<mxfile host="Electron" modified="2024-02-24T04:56:31.837Z" agent="Mozilla/5.0 (Windows NT 10.0; Win64; x64) AppleWebKit/537.36 (KHTML, like Gecko) draw.io/23.1.5 Chrome/120.0.6099.109 Electron/28.1.0 Safari/537.36" etag="jhyBMOC4IPNBPJtZ65Ox" version="23.1.5" type="device">
  <diagram name="Page-1" id="SER0nzGVURBfokXFbB5p">
    <mxGraphModel dx="1043" dy="2095" grid="1" gridSize="10" guides="1" tooltips="1" connect="1" arrows="1" fold="1" page="1" pageScale="1" pageWidth="827" pageHeight="1169" math="1" shadow="0">
      <root>
        <mxCell id="0" />
        <mxCell id="1" parent="0" />
        <mxCell id="KIiu1q--hpB5Ja1Us_eQ-70" value="" style="endArrow=classic;html=1;rounded=0;exitX=0.1;exitY=0.5;exitDx=0;exitDy=0;exitPerimeter=0;fillColor=#d5e8d4;strokeColor=#82b366;entryX=0.5;entryY=0;entryDx=0;entryDy=0;" parent="1" target="KIiu1q--hpB5Ja1Us_eQ-63" edge="1">
          <mxGeometry width="50" height="50" relative="1" as="geometry">
            <mxPoint x="1019.76" y="164" as="sourcePoint" />
            <mxPoint x="1020" y="220" as="targetPoint" />
          </mxGeometry>
        </mxCell>
        <mxCell id="KIiu1q--hpB5Ja1Us_eQ-69" value="" style="endArrow=classic;html=1;rounded=0;entryX=0.5;entryY=0;entryDx=0;entryDy=0;exitX=0.1;exitY=0.5;exitDx=0;exitDy=0;exitPerimeter=0;fillColor=#dae8fc;strokeColor=#6c8ebf;" parent="1" source="KIiu1q--hpB5Ja1Us_eQ-61" target="KIiu1q--hpB5Ja1Us_eQ-62" edge="1">
          <mxGeometry width="50" height="50" relative="1" as="geometry">
            <mxPoint x="1050" y="240" as="sourcePoint" />
            <mxPoint x="1100" y="190" as="targetPoint" />
          </mxGeometry>
        </mxCell>
        <mxCell id="NZJohYIaDpltHeSlh8Gu-1" value="&lt;font style=&quot;font-size: 16px;&quot;&gt;\(y_0\)&lt;/font&gt;" style="rounded=0;whiteSpace=wrap;html=1;" parent="1" vertex="1">
          <mxGeometry x="80" y="80" width="40" height="40" as="geometry" />
        </mxCell>
        <mxCell id="NZJohYIaDpltHeSlh8Gu-2" value="&lt;font style=&quot;font-size: 16px;&quot;&gt;\(y_1\)&lt;/font&gt;" style="rounded=0;whiteSpace=wrap;html=1;" parent="1" vertex="1">
          <mxGeometry x="120" y="80" width="40" height="40" as="geometry" />
        </mxCell>
        <mxCell id="NZJohYIaDpltHeSlh8Gu-3" value="&lt;font style=&quot;font-size: 16px;&quot;&gt;\(y_2\)&lt;/font&gt;" style="rounded=0;whiteSpace=wrap;html=1;" parent="1" vertex="1">
          <mxGeometry x="160" y="80" width="40" height="40" as="geometry" />
        </mxCell>
        <mxCell id="NZJohYIaDpltHeSlh8Gu-4" value="&lt;font style=&quot;font-size: 16px;&quot;&gt;\(y_3\)&lt;/font&gt;" style="rounded=0;whiteSpace=wrap;html=1;" parent="1" vertex="1">
          <mxGeometry x="200" y="80" width="40" height="40" as="geometry" />
        </mxCell>
        <mxCell id="NZJohYIaDpltHeSlh8Gu-5" value="&lt;font style=&quot;font-size: 16px;&quot;&gt;\(y_4\)&lt;/font&gt;" style="rounded=0;whiteSpace=wrap;html=1;" parent="1" vertex="1">
          <mxGeometry x="240" y="80" width="40" height="40" as="geometry" />
        </mxCell>
        <mxCell id="NZJohYIaDpltHeSlh8Gu-6" value="&lt;font style=&quot;font-size: 16px;&quot;&gt;\(y_5\)&lt;/font&gt;" style="rounded=0;whiteSpace=wrap;html=1;" parent="1" vertex="1">
          <mxGeometry x="280" y="80" width="40" height="40" as="geometry" />
        </mxCell>
        <mxCell id="NZJohYIaDpltHeSlh8Gu-7" value="" style="shape=curlyBracket;whiteSpace=wrap;html=1;rounded=1;labelPosition=left;verticalLabelPosition=middle;align=right;verticalAlign=middle;rotation=-90;fillColor=#dae8fc;strokeColor=#6c8ebf;" parent="1" vertex="1">
          <mxGeometry x="130" y="80" width="20" height="120" as="geometry" />
        </mxCell>
        <mxCell id="NZJohYIaDpltHeSlh8Gu-8" value="&lt;font style=&quot;font-size: 16px;&quot;&gt;\(z_1\)&lt;/font&gt;" style="rounded=0;whiteSpace=wrap;html=1;fillColor=#dae8fc;strokeColor=#6c8ebf;" parent="1" vertex="1">
          <mxGeometry x="120" y="220" width="40" height="40" as="geometry" />
        </mxCell>
        <mxCell id="NZJohYIaDpltHeSlh8Gu-9" value="&lt;font style=&quot;font-size: 16px;&quot;&gt;\(z_2\)&lt;/font&gt;" style="rounded=0;whiteSpace=wrap;html=1;fillColor=#d5e8d4;strokeColor=#82b366;" parent="1" vertex="1">
          <mxGeometry x="160" y="220" width="40" height="40" as="geometry" />
        </mxCell>
        <mxCell id="NZJohYIaDpltHeSlh8Gu-10" value="" style="shape=curlyBracket;whiteSpace=wrap;html=1;rounded=1;labelPosition=left;verticalLabelPosition=middle;align=right;verticalAlign=middle;rotation=-90;fillColor=#d5e8d4;strokeColor=#82b366;" parent="1" vertex="1">
          <mxGeometry x="170" y="100" width="20" height="120" as="geometry" />
        </mxCell>
        <mxCell id="NZJohYIaDpltHeSlh8Gu-11" value="" style="shape=curlyBracket;whiteSpace=wrap;html=1;rounded=1;labelPosition=left;verticalLabelPosition=middle;align=right;verticalAlign=middle;rotation=-90;fillColor=#ffe6cc;strokeColor=#d79b00;" parent="1" vertex="1">
          <mxGeometry x="210" y="120" width="20" height="120" as="geometry" />
        </mxCell>
        <mxCell id="NZJohYIaDpltHeSlh8Gu-12" value="" style="shape=curlyBracket;whiteSpace=wrap;html=1;rounded=1;labelPosition=left;verticalLabelPosition=middle;align=right;verticalAlign=middle;rotation=-90;fillColor=#f8cecc;strokeColor=#b85450;" parent="1" vertex="1">
          <mxGeometry x="250" y="140" width="20" height="120" as="geometry" />
        </mxCell>
        <mxCell id="NZJohYIaDpltHeSlh8Gu-13" value="&lt;font style=&quot;font-size: 16px;&quot;&gt;\(z_3\)&lt;/font&gt;" style="rounded=0;whiteSpace=wrap;html=1;fillColor=#ffe6cc;strokeColor=#d79b00;" parent="1" vertex="1">
          <mxGeometry x="200" y="220" width="40" height="40" as="geometry" />
        </mxCell>
        <mxCell id="NZJohYIaDpltHeSlh8Gu-14" value="&lt;font style=&quot;font-size: 16px;&quot;&gt;\(z_4\)&lt;/font&gt;" style="rounded=0;whiteSpace=wrap;html=1;fillColor=#f8cecc;strokeColor=#b85450;" parent="1" vertex="1">
          <mxGeometry x="240" y="220" width="40" height="40" as="geometry" />
        </mxCell>
        <mxCell id="NZJohYIaDpltHeSlh8Gu-16" value="" style="endArrow=classic;html=1;rounded=0;entryX=0.5;entryY=0;entryDx=0;entryDy=0;exitX=0.1;exitY=0.5;exitDx=0;exitDy=0;exitPerimeter=0;fillColor=#dae8fc;strokeColor=#6c8ebf;" parent="1" source="NZJohYIaDpltHeSlh8Gu-7" target="NZJohYIaDpltHeSlh8Gu-8" edge="1">
          <mxGeometry width="50" height="50" relative="1" as="geometry">
            <mxPoint x="210" y="240" as="sourcePoint" />
            <mxPoint x="260" y="190" as="targetPoint" />
          </mxGeometry>
        </mxCell>
        <mxCell id="NZJohYIaDpltHeSlh8Gu-17" value="" style="endArrow=classic;html=1;rounded=0;exitX=0.1;exitY=0.5;exitDx=0;exitDy=0;exitPerimeter=0;fillColor=#d5e8d4;strokeColor=#82b366;" parent="1" edge="1">
          <mxGeometry width="50" height="50" relative="1" as="geometry">
            <mxPoint x="179.76" y="164" as="sourcePoint" />
            <mxPoint x="180" y="220" as="targetPoint" />
          </mxGeometry>
        </mxCell>
        <mxCell id="NZJohYIaDpltHeSlh8Gu-18" value="" style="endArrow=classic;html=1;rounded=0;exitX=0.1;exitY=0.5;exitDx=0;exitDy=0;exitPerimeter=0;fillColor=#ffe6cc;strokeColor=#d79b00;" parent="1" edge="1">
          <mxGeometry width="50" height="50" relative="1" as="geometry">
            <mxPoint x="219.76" y="184" as="sourcePoint" />
            <mxPoint x="220" y="220" as="targetPoint" />
          </mxGeometry>
        </mxCell>
        <mxCell id="NZJohYIaDpltHeSlh8Gu-19" value="" style="endArrow=classic;html=1;rounded=0;exitX=0.1;exitY=0.5;exitDx=0;exitDy=0;exitPerimeter=0;fillColor=#f8cecc;strokeColor=#b85450;" parent="1" edge="1">
          <mxGeometry width="50" height="50" relative="1" as="geometry">
            <mxPoint x="259.76" y="210" as="sourcePoint" />
            <mxPoint x="260" y="220" as="targetPoint" />
          </mxGeometry>
        </mxCell>
        <mxCell id="KIiu1q--hpB5Ja1Us_eQ-1" value="&lt;font style=&quot;font-size: 16px;&quot;&gt;\(y_0\)&lt;/font&gt;" style="rounded=0;whiteSpace=wrap;html=1;" parent="1" vertex="1">
          <mxGeometry x="400" y="80" width="40" height="40" as="geometry" />
        </mxCell>
        <mxCell id="KIiu1q--hpB5Ja1Us_eQ-2" value="&lt;font style=&quot;font-size: 16px;&quot;&gt;\(y_1\)&lt;/font&gt;" style="rounded=0;whiteSpace=wrap;html=1;" parent="1" vertex="1">
          <mxGeometry x="440" y="80" width="40" height="40" as="geometry" />
        </mxCell>
        <mxCell id="KIiu1q--hpB5Ja1Us_eQ-3" value="&lt;font style=&quot;font-size: 16px;&quot;&gt;\(y_2\)&lt;/font&gt;" style="rounded=0;whiteSpace=wrap;html=1;fillColor=#f8cecc;strokeColor=#b85450;" parent="1" vertex="1">
          <mxGeometry x="480" y="80" width="40" height="40" as="geometry" />
        </mxCell>
        <mxCell id="KIiu1q--hpB5Ja1Us_eQ-4" value="&lt;font style=&quot;font-size: 16px;&quot;&gt;\(y_3\)&lt;/font&gt;" style="rounded=0;whiteSpace=wrap;html=1;fillColor=#fff2cc;strokeColor=#d6b656;" parent="1" vertex="1">
          <mxGeometry x="520" y="80" width="40" height="40" as="geometry" />
        </mxCell>
        <mxCell id="KIiu1q--hpB5Ja1Us_eQ-5" value="&lt;font style=&quot;font-size: 16px;&quot;&gt;\(y_4\)&lt;/font&gt;" style="rounded=0;whiteSpace=wrap;html=1;" parent="1" vertex="1">
          <mxGeometry x="560" y="80" width="40" height="40" as="geometry" />
        </mxCell>
        <mxCell id="KIiu1q--hpB5Ja1Us_eQ-6" value="&lt;font style=&quot;font-size: 16px;&quot;&gt;\(y_5\)&lt;/font&gt;" style="rounded=0;whiteSpace=wrap;html=1;" parent="1" vertex="1">
          <mxGeometry x="600" y="80" width="40" height="40" as="geometry" />
        </mxCell>
        <mxCell id="KIiu1q--hpB5Ja1Us_eQ-7" value="&lt;font style=&quot;font-size: 16px;&quot;&gt;\(y_6\)&lt;/font&gt;" style="rounded=0;whiteSpace=wrap;html=1;" parent="1" vertex="1">
          <mxGeometry x="640" y="80" width="40" height="40" as="geometry" />
        </mxCell>
        <mxCell id="KIiu1q--hpB5Ja1Us_eQ-8" value="&lt;font style=&quot;font-size: 16px;&quot;&gt;\(y_7\)&lt;/font&gt;" style="rounded=0;whiteSpace=wrap;html=1;" parent="1" vertex="1">
          <mxGeometry x="680" y="80" width="40" height="40" as="geometry" />
        </mxCell>
        <mxCell id="KIiu1q--hpB5Ja1Us_eQ-14" value="" style="shape=curlyBracket;whiteSpace=wrap;html=1;rounded=1;labelPosition=left;verticalLabelPosition=middle;align=right;verticalAlign=middle;rotation=90;" parent="1" vertex="1">
          <mxGeometry x="510" y="20" width="20" height="80" as="geometry" />
        </mxCell>
        <mxCell id="KIiu1q--hpB5Ja1Us_eQ-15" value="&lt;span style=&quot;font-size: 16px; font-weight: 400;&quot;&gt;2-high peaks or 2-low valleys&lt;/span&gt;" style="text;strokeColor=none;fillColor=none;html=1;fontSize=24;fontStyle=1;verticalAlign=middle;align=center;spacing=0;" parent="1" vertex="1">
          <mxGeometry x="455" y="20" width="130" height="30" as="geometry" />
        </mxCell>
        <mxCell id="KIiu1q--hpB5Ja1Us_eQ-16" value="" style="endArrow=classic;html=1;rounded=0;" parent="1" edge="1">
          <mxGeometry width="50" height="50" relative="1" as="geometry">
            <mxPoint x="520" y="130" as="sourcePoint" />
            <mxPoint x="520" y="180" as="targetPoint" />
          </mxGeometry>
        </mxCell>
        <mxCell id="KIiu1q--hpB5Ja1Us_eQ-17" value="&lt;font style=&quot;font-size: 16px;&quot;&gt;\(y_0\)&lt;/font&gt;" style="rounded=0;whiteSpace=wrap;html=1;" parent="1" vertex="1">
          <mxGeometry x="390" y="180" width="40" height="40" as="geometry" />
        </mxCell>
        <mxCell id="KIiu1q--hpB5Ja1Us_eQ-18" value="&lt;font style=&quot;font-size: 16px;&quot;&gt;\(y_1\)&lt;/font&gt;" style="rounded=0;whiteSpace=wrap;html=1;" parent="1" vertex="1">
          <mxGeometry x="430" y="180" width="40" height="40" as="geometry" />
        </mxCell>
        <mxCell id="KIiu1q--hpB5Ja1Us_eQ-19" value="&lt;font style=&quot;font-size: 16px;&quot;&gt;\(y_2\)&lt;/font&gt;" style="rounded=0;whiteSpace=wrap;html=1;fillColor=#f8cecc;strokeColor=#b85450;" parent="1" vertex="1">
          <mxGeometry x="470" y="180" width="40" height="40" as="geometry" />
        </mxCell>
        <mxCell id="KIiu1q--hpB5Ja1Us_eQ-20" value="&lt;font style=&quot;font-size: 16px;&quot;&gt;\(y_3\)&lt;/font&gt;" style="rounded=0;whiteSpace=wrap;html=1;fillColor=#fff2cc;strokeColor=#d6b656;" parent="1" vertex="1">
          <mxGeometry x="530" y="180" width="40" height="40" as="geometry" />
        </mxCell>
        <mxCell id="KIiu1q--hpB5Ja1Us_eQ-21" value="&lt;font style=&quot;font-size: 16px;&quot;&gt;\(y_4\)&lt;/font&gt;" style="rounded=0;whiteSpace=wrap;html=1;" parent="1" vertex="1">
          <mxGeometry x="570" y="180" width="40" height="40" as="geometry" />
        </mxCell>
        <mxCell id="KIiu1q--hpB5Ja1Us_eQ-22" value="&lt;font style=&quot;font-size: 16px;&quot;&gt;\(y_5\)&lt;/font&gt;" style="rounded=0;whiteSpace=wrap;html=1;" parent="1" vertex="1">
          <mxGeometry x="610" y="180" width="40" height="40" as="geometry" />
        </mxCell>
        <mxCell id="KIiu1q--hpB5Ja1Us_eQ-23" value="&lt;font style=&quot;font-size: 16px;&quot;&gt;\(y_6\)&lt;/font&gt;" style="rounded=0;whiteSpace=wrap;html=1;" parent="1" vertex="1">
          <mxGeometry x="650" y="180" width="40" height="40" as="geometry" />
        </mxCell>
        <mxCell id="KIiu1q--hpB5Ja1Us_eQ-24" value="&lt;font style=&quot;font-size: 16px;&quot;&gt;\(y_7\)&lt;/font&gt;" style="rounded=0;whiteSpace=wrap;html=1;" parent="1" vertex="1">
          <mxGeometry x="690" y="180" width="40" height="40" as="geometry" />
        </mxCell>
        <mxCell id="KIiu1q--hpB5Ja1Us_eQ-25" value="&lt;span style=&quot;font-size: 16px; font-weight: 400;&quot;&gt;left sequence&lt;/span&gt;" style="text;strokeColor=none;fillColor=none;html=1;fontSize=24;fontStyle=1;verticalAlign=middle;align=center;spacing=0;labelPosition=center;verticalLabelPosition=middle;" parent="1" vertex="1">
          <mxGeometry x="360" y="220" width="120" height="30" as="geometry" />
        </mxCell>
        <mxCell id="KIiu1q--hpB5Ja1Us_eQ-26" value="&lt;span style=&quot;font-size: 16px; font-weight: 400;&quot;&gt;right sequence&lt;/span&gt;" style="text;strokeColor=none;fillColor=none;html=1;fontSize=24;fontStyle=1;verticalAlign=middle;align=center;spacing=0;labelPosition=center;verticalLabelPosition=middle;" parent="1" vertex="1">
          <mxGeometry x="560" y="220" width="120" height="30" as="geometry" />
        </mxCell>
        <mxCell id="KIiu1q--hpB5Ja1Us_eQ-27" value="&lt;span style=&quot;font-size: 16px; font-weight: 400;&quot;&gt;splitting&lt;/span&gt;" style="text;strokeColor=none;fillColor=none;html=1;fontSize=24;fontStyle=1;verticalAlign=middle;align=center;spacing=0;" parent="1" vertex="1">
          <mxGeometry x="520" y="130" width="80" height="30" as="geometry" />
        </mxCell>
        <mxCell id="KIiu1q--hpB5Ja1Us_eQ-28" value="&lt;font style=&quot;font-size: 16px;&quot;&gt;\(y_0\)&lt;/font&gt;" style="rounded=0;whiteSpace=wrap;html=1;" parent="1" vertex="1">
          <mxGeometry x="390" y="300" width="40" height="40" as="geometry" />
        </mxCell>
        <mxCell id="KIiu1q--hpB5Ja1Us_eQ-29" value="&lt;font style=&quot;font-size: 16px;&quot;&gt;\(y_1\)&lt;/font&gt;" style="rounded=0;whiteSpace=wrap;html=1;" parent="1" vertex="1">
          <mxGeometry x="430" y="300" width="40" height="40" as="geometry" />
        </mxCell>
        <mxCell id="KIiu1q--hpB5Ja1Us_eQ-30" value="&lt;font style=&quot;font-size: 16px;&quot;&gt;\(z_2\)&lt;/font&gt;" style="rounded=0;whiteSpace=wrap;html=1;fillColor=#dae8fc;strokeColor=#6c8ebf;" parent="1" vertex="1">
          <mxGeometry x="470" y="300" width="40" height="40" as="geometry" />
        </mxCell>
        <mxCell id="KIiu1q--hpB5Ja1Us_eQ-31" value="&lt;font style=&quot;font-size: 16px;&quot;&gt;\(z_3\)&lt;/font&gt;" style="rounded=0;whiteSpace=wrap;html=1;fillColor=#d5e8d4;strokeColor=#82b366;" parent="1" vertex="1">
          <mxGeometry x="530" y="300" width="40" height="40" as="geometry" />
        </mxCell>
        <mxCell id="KIiu1q--hpB5Ja1Us_eQ-32" value="&lt;font style=&quot;font-size: 16px;&quot;&gt;\(y_4\)&lt;/font&gt;" style="rounded=0;whiteSpace=wrap;html=1;" parent="1" vertex="1">
          <mxGeometry x="570" y="300" width="40" height="40" as="geometry" />
        </mxCell>
        <mxCell id="KIiu1q--hpB5Ja1Us_eQ-33" value="&lt;font style=&quot;font-size: 16px;&quot;&gt;\(y_5\)&lt;/font&gt;" style="rounded=0;whiteSpace=wrap;html=1;" parent="1" vertex="1">
          <mxGeometry x="610" y="300" width="40" height="40" as="geometry" />
        </mxCell>
        <mxCell id="KIiu1q--hpB5Ja1Us_eQ-34" value="&lt;font style=&quot;font-size: 16px;&quot;&gt;\(y_6\)&lt;/font&gt;" style="rounded=0;whiteSpace=wrap;html=1;" parent="1" vertex="1">
          <mxGeometry x="650" y="300" width="40" height="40" as="geometry" />
        </mxCell>
        <mxCell id="KIiu1q--hpB5Ja1Us_eQ-35" value="&lt;font style=&quot;font-size: 16px;&quot;&gt;\(y_7\)&lt;/font&gt;" style="rounded=0;whiteSpace=wrap;html=1;" parent="1" vertex="1">
          <mxGeometry x="690" y="300" width="40" height="40" as="geometry" />
        </mxCell>
        <mxCell id="KIiu1q--hpB5Ja1Us_eQ-38" value="" style="endArrow=classic;html=1;rounded=0;" parent="1" edge="1">
          <mxGeometry width="50" height="50" relative="1" as="geometry">
            <mxPoint x="489.76" y="230" as="sourcePoint" />
            <mxPoint x="490" y="290" as="targetPoint" />
          </mxGeometry>
        </mxCell>
        <mxCell id="KIiu1q--hpB5Ja1Us_eQ-39" value="" style="endArrow=classic;html=1;rounded=0;" parent="1" edge="1">
          <mxGeometry width="50" height="50" relative="1" as="geometry">
            <mxPoint x="549.76" y="230" as="sourcePoint" />
            <mxPoint x="550" y="290" as="targetPoint" />
          </mxGeometry>
        </mxCell>
        <mxCell id="KIiu1q--hpB5Ja1Us_eQ-40" value="&lt;span style=&quot;font-size: 16px; font-weight: 400;&quot;&gt;EVS&lt;/span&gt;" style="text;strokeColor=none;fillColor=none;html=1;fontSize=24;fontStyle=1;verticalAlign=middle;align=center;spacing=0;" parent="1" vertex="1">
          <mxGeometry x="414" y="250" width="80" height="30" as="geometry" />
        </mxCell>
        <mxCell id="KIiu1q--hpB5Ja1Us_eQ-41" value="&lt;span style=&quot;font-size: 16px; font-weight: 400;&quot;&gt;EVS&lt;/span&gt;" style="text;strokeColor=none;fillColor=none;html=1;fontSize=24;fontStyle=1;verticalAlign=middle;align=center;spacing=0;" parent="1" vertex="1">
          <mxGeometry x="540" y="250" width="80" height="30" as="geometry" />
        </mxCell>
        <mxCell id="KIiu1q--hpB5Ja1Us_eQ-42" value="&lt;font style=&quot;font-size: 16px;&quot;&gt;\(y_0\)&lt;/font&gt;" style="rounded=0;whiteSpace=wrap;html=1;" parent="1" vertex="1">
          <mxGeometry x="400" y="400" width="40" height="40" as="geometry" />
        </mxCell>
        <mxCell id="KIiu1q--hpB5Ja1Us_eQ-43" value="&lt;font style=&quot;font-size: 16px;&quot;&gt;\(y_1\)&lt;/font&gt;" style="rounded=0;whiteSpace=wrap;html=1;" parent="1" vertex="1">
          <mxGeometry x="440" y="400" width="40" height="40" as="geometry" />
        </mxCell>
        <mxCell id="KIiu1q--hpB5Ja1Us_eQ-46" value="&lt;font style=&quot;font-size: 16px;&quot;&gt;\(y_4\)&lt;/font&gt;" style="rounded=0;whiteSpace=wrap;html=1;" parent="1" vertex="1">
          <mxGeometry x="560" y="400" width="40" height="40" as="geometry" />
        </mxCell>
        <mxCell id="KIiu1q--hpB5Ja1Us_eQ-47" value="&lt;font style=&quot;font-size: 16px;&quot;&gt;\(y_5\)&lt;/font&gt;" style="rounded=0;whiteSpace=wrap;html=1;" parent="1" vertex="1">
          <mxGeometry x="600" y="400" width="40" height="40" as="geometry" />
        </mxCell>
        <mxCell id="KIiu1q--hpB5Ja1Us_eQ-48" value="&lt;font style=&quot;font-size: 16px;&quot;&gt;\(y_6\)&lt;/font&gt;" style="rounded=0;whiteSpace=wrap;html=1;" parent="1" vertex="1">
          <mxGeometry x="640" y="400" width="40" height="40" as="geometry" />
        </mxCell>
        <mxCell id="KIiu1q--hpB5Ja1Us_eQ-49" value="&lt;font style=&quot;font-size: 16px;&quot;&gt;\(y_7\)&lt;/font&gt;" style="rounded=0;whiteSpace=wrap;html=1;" parent="1" vertex="1">
          <mxGeometry x="680" y="400" width="40" height="40" as="geometry" />
        </mxCell>
        <mxCell id="KIiu1q--hpB5Ja1Us_eQ-50" value="" style="shape=curlyBracket;whiteSpace=wrap;html=1;rounded=1;labelPosition=left;verticalLabelPosition=middle;align=right;verticalAlign=middle;rotation=-90;" parent="1" vertex="1">
          <mxGeometry x="510" y="320" width="20" height="80" as="geometry" />
        </mxCell>
        <mxCell id="KIiu1q--hpB5Ja1Us_eQ-51" value="&lt;span style=&quot;font-size: 16px; font-weight: 400;&quot;&gt;concatenate&lt;/span&gt;" style="text;strokeColor=none;fillColor=none;html=1;fontSize=24;fontStyle=1;verticalAlign=middle;align=center;spacing=0;labelPosition=center;verticalLabelPosition=middle;" parent="1" vertex="1">
          <mxGeometry x="520" y="360" width="110" height="30" as="geometry" />
        </mxCell>
        <mxCell id="KIiu1q--hpB5Ja1Us_eQ-52" value="&lt;font style=&quot;font-size: 16px;&quot;&gt;\(z_2\)&lt;/font&gt;" style="rounded=0;whiteSpace=wrap;html=1;fillColor=#dae8fc;strokeColor=#6c8ebf;" parent="1" vertex="1">
          <mxGeometry x="480" y="400" width="40" height="40" as="geometry" />
        </mxCell>
        <mxCell id="KIiu1q--hpB5Ja1Us_eQ-53" value="&lt;font style=&quot;font-size: 16px;&quot;&gt;\(z_3\)&lt;/font&gt;" style="rounded=0;whiteSpace=wrap;html=1;fillColor=#d5e8d4;strokeColor=#82b366;" parent="1" vertex="1">
          <mxGeometry x="520" y="400" width="40" height="40" as="geometry" />
        </mxCell>
        <mxCell id="KIiu1q--hpB5Ja1Us_eQ-54" value="" style="endArrow=classic;html=1;rounded=0;" parent="1" edge="1">
          <mxGeometry width="50" height="50" relative="1" as="geometry">
            <mxPoint x="519.71" y="370" as="sourcePoint" />
            <mxPoint x="520" y="390" as="targetPoint" />
          </mxGeometry>
        </mxCell>
        <mxCell id="KIiu1q--hpB5Ja1Us_eQ-55" value="&lt;font style=&quot;font-size: 16px;&quot;&gt;\(y_0\)&lt;/font&gt;" style="rounded=0;whiteSpace=wrap;html=1;" parent="1" vertex="1">
          <mxGeometry x="920" y="80" width="40" height="40" as="geometry" />
        </mxCell>
        <mxCell id="KIiu1q--hpB5Ja1Us_eQ-56" value="&lt;font style=&quot;font-size: 16px;&quot;&gt;\(y_1\)&lt;/font&gt;" style="rounded=0;whiteSpace=wrap;html=1;" parent="1" vertex="1">
          <mxGeometry x="960" y="80" width="40" height="40" as="geometry" />
        </mxCell>
        <mxCell id="KIiu1q--hpB5Ja1Us_eQ-57" value="&lt;font style=&quot;font-size: 16px;&quot;&gt;\(y_2\)&lt;/font&gt;" style="rounded=0;whiteSpace=wrap;html=1;" parent="1" vertex="1">
          <mxGeometry x="1000" y="80" width="40" height="40" as="geometry" />
        </mxCell>
        <mxCell id="KIiu1q--hpB5Ja1Us_eQ-58" value="&lt;font style=&quot;font-size: 16px;&quot;&gt;\(y_3\)&lt;/font&gt;" style="rounded=0;whiteSpace=wrap;html=1;" parent="1" vertex="1">
          <mxGeometry x="1040" y="80" width="40" height="40" as="geometry" />
        </mxCell>
        <mxCell id="KIiu1q--hpB5Ja1Us_eQ-59" value="&lt;font style=&quot;font-size: 16px;&quot;&gt;\(y_4\)&lt;/font&gt;" style="rounded=0;whiteSpace=wrap;html=1;" parent="1" vertex="1">
          <mxGeometry x="1080" y="80" width="40" height="40" as="geometry" />
        </mxCell>
        <mxCell id="KIiu1q--hpB5Ja1Us_eQ-60" value="&lt;font style=&quot;font-size: 16px;&quot;&gt;\(y_5\)&lt;/font&gt;" style="rounded=0;whiteSpace=wrap;html=1;" parent="1" vertex="1">
          <mxGeometry x="1120" y="80" width="40" height="40" as="geometry" />
        </mxCell>
        <mxCell id="KIiu1q--hpB5Ja1Us_eQ-61" value="" style="shape=curlyBracket;whiteSpace=wrap;html=1;rounded=1;labelPosition=left;verticalLabelPosition=middle;align=right;verticalAlign=middle;rotation=-90;fillColor=#dae8fc;strokeColor=#6c8ebf;" parent="1" vertex="1">
          <mxGeometry x="970" y="80" width="20" height="120" as="geometry" />
        </mxCell>
        <mxCell id="KIiu1q--hpB5Ja1Us_eQ-62" value="&lt;font style=&quot;font-size: 16px;&quot;&gt;\(z_1\)&lt;/font&gt;" style="rounded=0;whiteSpace=wrap;html=1;fillColor=#dae8fc;strokeColor=#6c8ebf;" parent="1" vertex="1">
          <mxGeometry x="960" y="230" width="40" height="40" as="geometry" />
        </mxCell>
        <mxCell id="KIiu1q--hpB5Ja1Us_eQ-63" value="&lt;font style=&quot;font-size: 16px;&quot;&gt;\(z_2\)&lt;/font&gt;" style="rounded=0;whiteSpace=wrap;html=1;fillColor=#d5e8d4;strokeColor=#82b366;" parent="1" vertex="1">
          <mxGeometry x="1000" y="230" width="40" height="40" as="geometry" />
        </mxCell>
        <mxCell id="KIiu1q--hpB5Ja1Us_eQ-64" value="" style="shape=curlyBracket;whiteSpace=wrap;html=1;rounded=1;labelPosition=left;verticalLabelPosition=middle;align=right;verticalAlign=middle;rotation=-90;fillColor=#d5e8d4;strokeColor=#82b366;" parent="1" vertex="1">
          <mxGeometry x="1010" y="100" width="20" height="120" as="geometry" />
        </mxCell>
        <mxCell id="KIiu1q--hpB5Ja1Us_eQ-65" value="" style="shape=curlyBracket;whiteSpace=wrap;html=1;rounded=1;labelPosition=left;verticalLabelPosition=middle;align=right;verticalAlign=middle;rotation=-90;fillColor=#ffe6cc;strokeColor=#d79b00;" parent="1" vertex="1">
          <mxGeometry x="1050" y="120" width="20" height="120" as="geometry" />
        </mxCell>
        <mxCell id="KIiu1q--hpB5Ja1Us_eQ-66" value="" style="shape=curlyBracket;whiteSpace=wrap;html=1;rounded=1;labelPosition=left;verticalLabelPosition=middle;align=right;verticalAlign=middle;rotation=-90;fillColor=#f8cecc;strokeColor=#b85450;" parent="1" vertex="1">
          <mxGeometry x="1090" y="140" width="20" height="120" as="geometry" />
        </mxCell>
        <mxCell id="KIiu1q--hpB5Ja1Us_eQ-67" value="&lt;font style=&quot;font-size: 16px;&quot;&gt;\(z_3\)&lt;/font&gt;" style="rounded=0;whiteSpace=wrap;html=1;fillColor=#ffe6cc;strokeColor=#d79b00;" parent="1" vertex="1">
          <mxGeometry x="1040" y="230" width="40" height="40" as="geometry" />
        </mxCell>
        <mxCell id="KIiu1q--hpB5Ja1Us_eQ-68" value="&lt;font style=&quot;font-size: 16px;&quot;&gt;\(z_4\)&lt;/font&gt;" style="rounded=0;whiteSpace=wrap;html=1;fillColor=#f8cecc;strokeColor=#b85450;" parent="1" vertex="1">
          <mxGeometry x="1080" y="230" width="40" height="40" as="geometry" />
        </mxCell>
        <mxCell id="KIiu1q--hpB5Ja1Us_eQ-71" value="" style="endArrow=classic;html=1;rounded=0;exitX=0.1;exitY=0.5;exitDx=0;exitDy=0;exitPerimeter=0;fillColor=#ffe6cc;strokeColor=#d79b00;entryX=0.5;entryY=0;entryDx=0;entryDy=0;" parent="1" target="KIiu1q--hpB5Ja1Us_eQ-67" edge="1">
          <mxGeometry width="50" height="50" relative="1" as="geometry">
            <mxPoint x="1059.76" y="184" as="sourcePoint" />
            <mxPoint x="1060" y="220" as="targetPoint" />
          </mxGeometry>
        </mxCell>
        <mxCell id="KIiu1q--hpB5Ja1Us_eQ-72" value="" style="endArrow=classic;html=1;rounded=0;exitX=0.1;exitY=0.5;exitDx=0;exitDy=0;exitPerimeter=0;fillColor=#f8cecc;strokeColor=#b85450;entryX=0.5;entryY=0;entryDx=0;entryDy=0;" parent="1" source="KIiu1q--hpB5Ja1Us_eQ-66" target="KIiu1q--hpB5Ja1Us_eQ-68" edge="1">
          <mxGeometry width="50" height="50" relative="1" as="geometry">
            <mxPoint x="1100" y="270" as="sourcePoint" />
            <mxPoint x="1100" y="280" as="targetPoint" />
          </mxGeometry>
        </mxCell>
        <mxCell id="KIiu1q--hpB5Ja1Us_eQ-74" value="\(&lt;br style=&quot;font-size: 10px;&quot;&gt;&amp;nbsp; z_1 = \frac{1}{4} y_0 + \frac{1}{2} y_1 + \frac{1}{4} y_2&lt;br style=&quot;font-size: 10px;&quot;&gt;\)" style="text;html=1;align=center;verticalAlign=middle;whiteSpace=wrap;rounded=0;fontSize=10;fontColor=#6C8EBF;" parent="1" vertex="1">
          <mxGeometry x="920" y="120" width="120" height="20" as="geometry" />
        </mxCell>
        <mxCell id="KIiu1q--hpB5Ja1Us_eQ-75" value="\(&lt;br style=&quot;font-size: 10px;&quot;&gt;&amp;nbsp; z_2 = \frac{1}{4} y_1 + \frac{1}{2} y_2 + \frac{1}{4} y_3&lt;br style=&quot;font-size: 10px;&quot;&gt;\)" style="text;html=1;align=center;verticalAlign=middle;whiteSpace=wrap;rounded=0;fontSize=10;fontColor=#82B366;" parent="1" vertex="1">
          <mxGeometry x="960" y="140" width="120" height="20" as="geometry" />
        </mxCell>
        <mxCell id="KIiu1q--hpB5Ja1Us_eQ-76" value="\(&lt;br style=&quot;font-size: 10px;&quot;&gt;&amp;nbsp; z_3 = \frac{1}{4} y_2 + \frac{1}{2} y_3 + \frac{1}{4} y_4&lt;br style=&quot;font-size: 10px;&quot;&gt;\)" style="text;html=1;align=center;verticalAlign=middle;whiteSpace=wrap;rounded=0;fontSize=10;fontColor=#D79B00;" parent="1" vertex="1">
          <mxGeometry x="1000" y="160" width="120" height="20" as="geometry" />
        </mxCell>
        <mxCell id="KIiu1q--hpB5Ja1Us_eQ-77" value="\(&lt;br style=&quot;font-size: 10px;&quot;&gt;&amp;nbsp; z_4 = \frac{1}{4} y_3 + \frac{1}{2} y_4 + \frac{1}{4} y_5&lt;br style=&quot;font-size: 10px;&quot;&gt;\)" style="text;html=1;align=center;verticalAlign=middle;whiteSpace=wrap;rounded=0;fontSize=10;fontColor=#B85450;" parent="1" vertex="1">
          <mxGeometry x="1040" y="180" width="120" height="20" as="geometry" />
        </mxCell>
        <mxCell id="KIiu1q--hpB5Ja1Us_eQ-78" value="\(&lt;br style=&quot;font-size: 14px;&quot;&gt;&amp;nbsp; z_j = \frac{1}{4} y_{j-1} + \frac{1}{2} y_j + \frac{1}{4} y_{j+1}&lt;br style=&quot;font-size: 14px;&quot;&gt;\)" style="text;html=1;align=center;verticalAlign=middle;whiteSpace=wrap;rounded=0;fontSize=14;fontColor=#000000;" parent="1" vertex="1">
          <mxGeometry x="980" y="50" width="120" height="20" as="geometry" />
        </mxCell>
        <mxCell id="KIiu1q--hpB5Ja1Us_eQ-81" value="" style="endArrow=classic;html=1;rounded=0;exitX=0.5;exitY=1;exitDx=0;exitDy=0;entryX=0.5;entryY=0;entryDx=0;entryDy=0;" parent="1" source="KIiu1q--hpB5Ja1Us_eQ-55" target="2uwr7_rNUOE0vX6nPSMb-1" edge="1">
          <mxGeometry width="50" height="50" relative="1" as="geometry">
            <mxPoint x="900" y="130" as="sourcePoint" />
            <mxPoint x="900" y="180" as="targetPoint" />
          </mxGeometry>
        </mxCell>
        <mxCell id="KIiu1q--hpB5Ja1Us_eQ-82" value="&lt;p style=&quot;line-height: 60%;&quot;&gt;&lt;/p&gt;&lt;div style=&quot;text-align: left; line-height: 60%;&quot;&gt;&lt;span style=&quot;font-size: 16px; font-weight: 400;&quot;&gt;end-value&amp;nbsp;&lt;/span&gt;&lt;/div&gt;&lt;div style=&quot;text-align: left; line-height: 60%;&quot;&gt;&lt;span style=&quot;font-size: 16px; font-weight: 400;&quot;&gt;does not change&lt;/span&gt;&lt;/div&gt;&lt;p&gt;&lt;/p&gt;" style="text;strokeColor=none;fillColor=none;html=1;fontSize=24;fontStyle=1;verticalAlign=middle;align=center;spacing=0;" parent="1" vertex="1">
          <mxGeometry x="1170" y="132.5" width="80" height="35" as="geometry" />
        </mxCell>
        <mxCell id="SjAacJ5gV3_FCl5hSbW8-1" value="&lt;font style=&quot;font-size: 16px;&quot;&gt;\(y_0\)&lt;/font&gt;" style="rounded=0;whiteSpace=wrap;html=1;" parent="1" vertex="1">
          <mxGeometry x="1400" y="80" width="40" height="40" as="geometry" />
        </mxCell>
        <mxCell id="SjAacJ5gV3_FCl5hSbW8-2" value="&lt;font style=&quot;font-size: 16px;&quot;&gt;\(y_1\)&lt;/font&gt;" style="rounded=0;whiteSpace=wrap;html=1;" parent="1" vertex="1">
          <mxGeometry x="1440" y="80" width="40" height="40" as="geometry" />
        </mxCell>
        <mxCell id="SjAacJ5gV3_FCl5hSbW8-3" value="&lt;font style=&quot;font-size: 16px;&quot;&gt;\(y_2\)&lt;/font&gt;" style="rounded=0;whiteSpace=wrap;html=1;" parent="1" vertex="1">
          <mxGeometry x="1480" y="80" width="40" height="40" as="geometry" />
        </mxCell>
        <mxCell id="SjAacJ5gV3_FCl5hSbW8-4" value="&lt;font style=&quot;font-size: 16px;&quot;&gt;\(y_3\)&lt;/font&gt;" style="rounded=0;whiteSpace=wrap;html=1;" parent="1" vertex="1">
          <mxGeometry x="1520" y="80" width="40" height="40" as="geometry" />
        </mxCell>
        <mxCell id="SjAacJ5gV3_FCl5hSbW8-5" value="&lt;font style=&quot;font-size: 16px;&quot;&gt;\(y_4\)&lt;/font&gt;" style="rounded=0;whiteSpace=wrap;html=1;" parent="1" vertex="1">
          <mxGeometry x="1560" y="80" width="40" height="40" as="geometry" />
        </mxCell>
        <mxCell id="SjAacJ5gV3_FCl5hSbW8-6" value="&lt;font style=&quot;font-size: 16px;&quot;&gt;\(y_5\)&lt;/font&gt;" style="rounded=0;whiteSpace=wrap;html=1;" parent="1" vertex="1">
          <mxGeometry x="1600" y="80" width="40" height="40" as="geometry" />
        </mxCell>
        <mxCell id="SjAacJ5gV3_FCl5hSbW8-9" value="" style="shape=curlyBracket;whiteSpace=wrap;html=1;rounded=1;labelPosition=left;verticalLabelPosition=middle;align=right;verticalAlign=middle;rotation=-90;fillColor=#dae8fc;strokeColor=#6c8ebf;" parent="1" vertex="1">
          <mxGeometry x="1490" y="40" width="20" height="200" as="geometry" />
        </mxCell>
        <mxCell id="SjAacJ5gV3_FCl5hSbW8-10" value="&lt;font style=&quot;font-size: 16px;&quot;&gt;\(z_2\)&lt;/font&gt;" style="rounded=0;whiteSpace=wrap;html=1;fillColor=#dae8fc;strokeColor=#6c8ebf;" parent="1" vertex="1">
          <mxGeometry x="1480" y="240" width="40" height="40" as="geometry" />
        </mxCell>
        <mxCell id="SjAacJ5gV3_FCl5hSbW8-11" value="&lt;font style=&quot;font-size: 16px;&quot;&gt;\(z_3\)&lt;/font&gt;" style="rounded=0;whiteSpace=wrap;html=1;fillColor=#d5e8d4;strokeColor=#82b366;" parent="1" vertex="1">
          <mxGeometry x="1520" y="240" width="40" height="40" as="geometry" />
        </mxCell>
        <mxCell id="SjAacJ5gV3_FCl5hSbW8-12" value="" style="shape=curlyBracket;whiteSpace=wrap;html=1;rounded=1;labelPosition=left;verticalLabelPosition=middle;align=right;verticalAlign=middle;rotation=-90;fillColor=#d5e8d4;strokeColor=#82b366;" parent="1" vertex="1">
          <mxGeometry x="1530" y="60" width="20" height="200" as="geometry" />
        </mxCell>
        <mxCell id="SjAacJ5gV3_FCl5hSbW8-13" value="" style="shape=curlyBracket;whiteSpace=wrap;html=1;rounded=1;labelPosition=left;verticalLabelPosition=middle;align=right;verticalAlign=middle;rotation=-90;fillColor=#ffe6cc;strokeColor=#d79b00;" parent="1" vertex="1">
          <mxGeometry x="1570" y="80" width="20" height="200" as="geometry" />
        </mxCell>
        <mxCell id="SjAacJ5gV3_FCl5hSbW8-14" value="" style="shape=curlyBracket;whiteSpace=wrap;html=1;rounded=1;labelPosition=left;verticalLabelPosition=middle;align=right;verticalAlign=middle;rotation=-90;fillColor=#f8cecc;strokeColor=#b85450;" parent="1" vertex="1">
          <mxGeometry x="1610" y="100" width="20" height="200" as="geometry" />
        </mxCell>
        <mxCell id="SjAacJ5gV3_FCl5hSbW8-15" value="&lt;font style=&quot;font-size: 16px;&quot;&gt;\(z_4\)&lt;/font&gt;" style="rounded=0;whiteSpace=wrap;html=1;fillColor=#ffe6cc;strokeColor=#d79b00;" parent="1" vertex="1">
          <mxGeometry x="1560" y="240" width="40" height="40" as="geometry" />
        </mxCell>
        <mxCell id="SjAacJ5gV3_FCl5hSbW8-16" value="&lt;font style=&quot;font-size: 16px;&quot;&gt;\(z_5\)&lt;/font&gt;" style="rounded=0;whiteSpace=wrap;html=1;fillColor=#f8cecc;strokeColor=#b85450;" parent="1" vertex="1">
          <mxGeometry x="1600" y="240" width="40" height="40" as="geometry" />
        </mxCell>
        <mxCell id="SjAacJ5gV3_FCl5hSbW8-17" value="" style="endArrow=classic;html=1;rounded=0;entryX=0.5;entryY=0;entryDx=0;entryDy=0;exitX=0.1;exitY=0.5;exitDx=0;exitDy=0;exitPerimeter=0;fillColor=#dae8fc;strokeColor=#6c8ebf;" parent="1" source="SjAacJ5gV3_FCl5hSbW8-9" target="SjAacJ5gV3_FCl5hSbW8-10" edge="1">
          <mxGeometry width="50" height="50" relative="1" as="geometry">
            <mxPoint x="1530" y="240" as="sourcePoint" />
            <mxPoint x="1580" y="190" as="targetPoint" />
          </mxGeometry>
        </mxCell>
        <mxCell id="SjAacJ5gV3_FCl5hSbW8-18" value="" style="endArrow=classic;html=1;rounded=0;exitX=0.1;exitY=0.5;exitDx=0;exitDy=0;exitPerimeter=0;fillColor=#d5e8d4;strokeColor=#82b366;entryX=0.5;entryY=0;entryDx=0;entryDy=0;" parent="1" source="SjAacJ5gV3_FCl5hSbW8-12" target="SjAacJ5gV3_FCl5hSbW8-11" edge="1">
          <mxGeometry width="50" height="50" relative="1" as="geometry">
            <mxPoint x="1499.76" y="164" as="sourcePoint" />
            <mxPoint x="1500" y="220" as="targetPoint" />
          </mxGeometry>
        </mxCell>
        <mxCell id="SjAacJ5gV3_FCl5hSbW8-19" value="" style="endArrow=classic;html=1;rounded=0;exitX=0.1;exitY=0.5;exitDx=0;exitDy=0;exitPerimeter=0;fillColor=#ffe6cc;strokeColor=#d79b00;entryX=0.5;entryY=0;entryDx=0;entryDy=0;" parent="1" source="SjAacJ5gV3_FCl5hSbW8-13" target="SjAacJ5gV3_FCl5hSbW8-15" edge="1">
          <mxGeometry width="50" height="50" relative="1" as="geometry">
            <mxPoint x="1539.76" y="184" as="sourcePoint" />
            <mxPoint x="1540" y="220" as="targetPoint" />
          </mxGeometry>
        </mxCell>
        <mxCell id="SjAacJ5gV3_FCl5hSbW8-20" value="" style="endArrow=classic;html=1;rounded=0;exitX=0.1;exitY=0.5;exitDx=0;exitDy=0;exitPerimeter=0;fillColor=#f8cecc;strokeColor=#b85450;entryX=0.5;entryY=0;entryDx=0;entryDy=0;" parent="1" source="SjAacJ5gV3_FCl5hSbW8-14" target="SjAacJ5gV3_FCl5hSbW8-16" edge="1">
          <mxGeometry width="50" height="50" relative="1" as="geometry">
            <mxPoint x="1609.76" y="210" as="sourcePoint" />
            <mxPoint x="1610" y="220" as="targetPoint" />
          </mxGeometry>
        </mxCell>
        <mxCell id="SjAacJ5gV3_FCl5hSbW8-22" value="&lt;font style=&quot;font-size: 16px;&quot;&gt;\(y_7\)&lt;/font&gt;" style="rounded=0;whiteSpace=wrap;html=1;" parent="1" vertex="1">
          <mxGeometry x="1680" y="80" width="40" height="40" as="geometry" />
        </mxCell>
        <mxCell id="SjAacJ5gV3_FCl5hSbW8-23" value="&lt;font style=&quot;font-size: 16px;&quot;&gt;\(y_6\)&lt;/font&gt;" style="rounded=0;whiteSpace=wrap;html=1;" parent="1" vertex="1">
          <mxGeometry x="1640" y="80" width="40" height="40" as="geometry" />
        </mxCell>
        <mxCell id="SjAacJ5gV3_FCl5hSbW8-27" value="&lt;p style=&quot;line-height: 60%; font-size: 12px;&quot;&gt;&lt;span style=&quot;font-size: 12px; font-weight: 400;&quot;&gt;running median of 3&lt;/span&gt;&lt;/p&gt;" style="text;strokeColor=none;fillColor=none;html=1;fontSize=12;fontStyle=1;verticalAlign=middle;align=right;spacing=0;spacingRight=6;" parent="1" vertex="1">
          <mxGeometry x="1380" y="200" width="80" height="20" as="geometry" />
        </mxCell>
        <mxCell id="SjAacJ5gV3_FCl5hSbW8-28" value="&lt;p style=&quot;line-height: 60%; font-size: 14px;&quot;&gt;&lt;span style=&quot;font-size: 14px; font-weight: 400;&quot;&gt;running median of 5&lt;/span&gt;&lt;/p&gt;" style="text;strokeColor=none;fillColor=none;html=1;fontSize=14;fontStyle=1;verticalAlign=middle;align=left;spacing=0;spacingLeft=6;" parent="1" vertex="1">
          <mxGeometry x="1600" y="120" width="130" height="20" as="geometry" />
        </mxCell>
        <mxCell id="SjAacJ5gV3_FCl5hSbW8-65" style="rounded=0;orthogonalLoop=1;jettySize=auto;html=1;exitX=0.5;exitY=1;exitDx=0;exitDy=0;entryX=0.5;entryY=0;entryDx=0;entryDy=0;" parent="1" source="SjAacJ5gV3_FCl5hSbW8-29" target="SjAacJ5gV3_FCl5hSbW8-51" edge="1">
          <mxGeometry relative="1" as="geometry">
            <mxPoint x="1920" y="220" as="targetPoint" />
            <Array as="points">
              <mxPoint x="1920" y="240" />
            </Array>
          </mxGeometry>
        </mxCell>
        <mxCell id="SjAacJ5gV3_FCl5hSbW8-29" value="&lt;font style=&quot;font-size: 16px;&quot;&gt;\(y_0\)&lt;/font&gt;" style="rounded=0;whiteSpace=wrap;html=1;" parent="1" vertex="1">
          <mxGeometry x="1920" y="80" width="40" height="40" as="geometry" />
        </mxCell>
        <mxCell id="SjAacJ5gV3_FCl5hSbW8-30" value="&lt;font style=&quot;font-size: 16px;&quot;&gt;\(y_1\)&lt;/font&gt;" style="rounded=0;whiteSpace=wrap;html=1;" parent="1" vertex="1">
          <mxGeometry x="1960" y="80" width="40" height="40" as="geometry" />
        </mxCell>
        <mxCell id="SjAacJ5gV3_FCl5hSbW8-31" value="&lt;font style=&quot;font-size: 16px;&quot;&gt;\(y_2\)&lt;/font&gt;" style="rounded=0;whiteSpace=wrap;html=1;" parent="1" vertex="1">
          <mxGeometry x="2000" y="80" width="40" height="40" as="geometry" />
        </mxCell>
        <mxCell id="SjAacJ5gV3_FCl5hSbW8-32" value="&lt;font style=&quot;font-size: 16px;&quot;&gt;\(y_3\)&lt;/font&gt;" style="rounded=0;whiteSpace=wrap;html=1;" parent="1" vertex="1">
          <mxGeometry x="2040" y="80" width="40" height="40" as="geometry" />
        </mxCell>
        <mxCell id="SjAacJ5gV3_FCl5hSbW8-33" value="&lt;font style=&quot;font-size: 16px;&quot;&gt;\(y_4\)&lt;/font&gt;" style="rounded=0;whiteSpace=wrap;html=1;" parent="1" vertex="1">
          <mxGeometry x="2080" y="80" width="40" height="40" as="geometry" />
        </mxCell>
        <mxCell id="SjAacJ5gV3_FCl5hSbW8-34" value="&lt;font style=&quot;font-size: 16px;&quot;&gt;\(y_5\)&lt;/font&gt;" style="rounded=0;whiteSpace=wrap;html=1;" parent="1" vertex="1">
          <mxGeometry x="2120" y="80" width="40" height="40" as="geometry" />
        </mxCell>
        <mxCell id="SjAacJ5gV3_FCl5hSbW8-35" value="&lt;font style=&quot;font-size: 16px;&quot;&gt;\(y_6\)&lt;/font&gt;" style="rounded=0;whiteSpace=wrap;html=1;" parent="1" vertex="1">
          <mxGeometry x="2160" y="80" width="40" height="40" as="geometry" />
        </mxCell>
        <mxCell id="SjAacJ5gV3_FCl5hSbW8-39" value="" style="shape=curlyBracket;whiteSpace=wrap;html=1;rounded=1;labelPosition=left;verticalLabelPosition=middle;align=right;verticalAlign=middle;rotation=-90;fillColor=#dae8fc;strokeColor=#6c8ebf;" parent="1" vertex="1">
          <mxGeometry x="1990" y="60" width="20" height="160" as="geometry" />
        </mxCell>
        <mxCell id="SjAacJ5gV3_FCl5hSbW8-40" value="&lt;font style=&quot;font-size: 16px;&quot;&gt;\(z_{1.5}\)&lt;/font&gt;" style="rounded=0;whiteSpace=wrap;html=1;fillColor=#dae8fc;strokeColor=#6c8ebf;" parent="1" vertex="1">
          <mxGeometry x="1980" y="220" width="40" height="40" as="geometry" />
        </mxCell>
        <mxCell id="SjAacJ5gV3_FCl5hSbW8-41" value="&lt;font style=&quot;font-size: 16px;&quot;&gt;\(z_{2.5}\)&lt;/font&gt;" style="rounded=0;whiteSpace=wrap;html=1;fillColor=#d5e8d4;strokeColor=#82b366;" parent="1" vertex="1">
          <mxGeometry x="2020" y="220" width="40" height="40" as="geometry" />
        </mxCell>
        <mxCell id="SjAacJ5gV3_FCl5hSbW8-42" value="" style="shape=curlyBracket;whiteSpace=wrap;html=1;rounded=1;labelPosition=left;verticalLabelPosition=middle;align=right;verticalAlign=middle;rotation=-90;fillColor=#d5e8d4;strokeColor=#82b366;" parent="1" vertex="1">
          <mxGeometry x="2030" y="80" width="20" height="160" as="geometry" />
        </mxCell>
        <mxCell id="SjAacJ5gV3_FCl5hSbW8-43" value="" style="shape=curlyBracket;whiteSpace=wrap;html=1;rounded=1;labelPosition=left;verticalLabelPosition=middle;align=right;verticalAlign=middle;rotation=-90;fillColor=#ffe6cc;strokeColor=#d79b00;" parent="1" vertex="1">
          <mxGeometry x="2068.75" y="101.25" width="20" height="157.5" as="geometry" />
        </mxCell>
        <mxCell id="SjAacJ5gV3_FCl5hSbW8-44" value="" style="shape=curlyBracket;whiteSpace=wrap;html=1;rounded=1;labelPosition=left;verticalLabelPosition=middle;align=right;verticalAlign=middle;rotation=-90;fillColor=#f8cecc;strokeColor=#b85450;" parent="1" vertex="1">
          <mxGeometry x="2110" y="120" width="20" height="160" as="geometry" />
        </mxCell>
        <mxCell id="SjAacJ5gV3_FCl5hSbW8-45" value="&lt;font style=&quot;font-size: 16px;&quot;&gt;\(z_{3.5}\)&lt;/font&gt;" style="rounded=0;whiteSpace=wrap;html=1;fillColor=#ffe6cc;strokeColor=#d79b00;" parent="1" vertex="1">
          <mxGeometry x="2060" y="220" width="40" height="40" as="geometry" />
        </mxCell>
        <mxCell id="SjAacJ5gV3_FCl5hSbW8-46" value="&lt;font style=&quot;font-size: 16px;&quot;&gt;\(z_{4.5}\)&lt;/font&gt;" style="rounded=0;whiteSpace=wrap;html=1;fillColor=#f8cecc;strokeColor=#b85450;" parent="1" vertex="1">
          <mxGeometry x="2100" y="220" width="40" height="40" as="geometry" />
        </mxCell>
        <mxCell id="SjAacJ5gV3_FCl5hSbW8-47" value="" style="endArrow=classic;html=1;rounded=0;entryX=0.5;entryY=0;entryDx=0;entryDy=0;exitX=0.1;exitY=0.5;exitDx=0;exitDy=0;exitPerimeter=0;fillColor=#dae8fc;strokeColor=#6c8ebf;" parent="1" source="SjAacJ5gV3_FCl5hSbW8-39" target="SjAacJ5gV3_FCl5hSbW8-40" edge="1">
          <mxGeometry width="50" height="50" relative="1" as="geometry">
            <mxPoint x="2050" y="240" as="sourcePoint" />
            <mxPoint x="2100" y="190" as="targetPoint" />
          </mxGeometry>
        </mxCell>
        <mxCell id="SjAacJ5gV3_FCl5hSbW8-48" value="" style="endArrow=classic;html=1;rounded=0;exitX=0.1;exitY=0.5;exitDx=0;exitDy=0;exitPerimeter=0;fillColor=#d5e8d4;strokeColor=#82b366;entryX=0.5;entryY=0;entryDx=0;entryDy=0;" parent="1" source="SjAacJ5gV3_FCl5hSbW8-42" target="SjAacJ5gV3_FCl5hSbW8-41" edge="1">
          <mxGeometry width="50" height="50" relative="1" as="geometry">
            <mxPoint x="2019.7600000000002" y="164" as="sourcePoint" />
            <mxPoint x="2020" y="220" as="targetPoint" />
          </mxGeometry>
        </mxCell>
        <mxCell id="SjAacJ5gV3_FCl5hSbW8-49" value="" style="endArrow=classic;html=1;rounded=0;exitX=0.1;exitY=0.5;exitDx=0;exitDy=0;exitPerimeter=0;fillColor=#ffe6cc;strokeColor=#d79b00;entryX=0.5;entryY=0;entryDx=0;entryDy=0;" parent="1" source="SjAacJ5gV3_FCl5hSbW8-43" target="SjAacJ5gV3_FCl5hSbW8-45" edge="1">
          <mxGeometry width="50" height="50" relative="1" as="geometry">
            <mxPoint x="2059.76" y="184" as="sourcePoint" />
            <mxPoint x="2060" y="220" as="targetPoint" />
          </mxGeometry>
        </mxCell>
        <mxCell id="SjAacJ5gV3_FCl5hSbW8-50" value="" style="endArrow=classic;html=1;rounded=0;exitX=0.1;exitY=0.5;exitDx=0;exitDy=0;exitPerimeter=0;fillColor=#f8cecc;strokeColor=#b85450;entryX=0.5;entryY=0;entryDx=0;entryDy=0;" parent="1" source="SjAacJ5gV3_FCl5hSbW8-44" target="SjAacJ5gV3_FCl5hSbW8-46" edge="1">
          <mxGeometry width="50" height="50" relative="1" as="geometry">
            <mxPoint x="2129.76" y="210" as="sourcePoint" />
            <mxPoint x="2130" y="220" as="targetPoint" />
          </mxGeometry>
        </mxCell>
        <mxCell id="SjAacJ5gV3_FCl5hSbW8-51" value="&lt;font style=&quot;font-size: 16px;&quot;&gt;\(z_{0}&#39;\)&lt;/font&gt;" style="rounded=0;whiteSpace=wrap;html=1;" parent="1" vertex="1">
          <mxGeometry x="1920" y="380" width="40" height="40" as="geometry" />
        </mxCell>
        <mxCell id="SjAacJ5gV3_FCl5hSbW8-53" value="&lt;font style=&quot;font-size: 16px;&quot;&gt;\(z_{1}&#39;\)&lt;/font&gt;" style="rounded=0;whiteSpace=wrap;html=1;fillColor=#f5f5f5;fontColor=#333333;strokeColor=#666666;" parent="1" vertex="1">
          <mxGeometry x="1960" y="380" width="40" height="40" as="geometry" />
        </mxCell>
        <mxCell id="SjAacJ5gV3_FCl5hSbW8-54" value="&lt;font style=&quot;font-size: 16px;&quot;&gt;\(z_{2}&#39;\)&lt;/font&gt;" style="rounded=0;whiteSpace=wrap;html=1;fillColor=#dae8fc;strokeColor=#6c8ebf;" parent="1" vertex="1">
          <mxGeometry x="2000" y="380" width="40" height="40" as="geometry" />
        </mxCell>
        <mxCell id="SjAacJ5gV3_FCl5hSbW8-56" value="" style="shape=curlyBracket;whiteSpace=wrap;html=1;rounded=1;labelPosition=left;verticalLabelPosition=middle;align=right;verticalAlign=middle;rotation=-90;" parent="1" vertex="1">
          <mxGeometry x="1970" y="240" width="20" height="80" as="geometry" />
        </mxCell>
        <mxCell id="SjAacJ5gV3_FCl5hSbW8-57" value="" style="shape=curlyBracket;whiteSpace=wrap;html=1;rounded=1;labelPosition=left;verticalLabelPosition=middle;align=right;verticalAlign=middle;rotation=-90;fillColor=#dae8fc;strokeColor=#6c8ebf;" parent="1" vertex="1">
          <mxGeometry x="2010" y="261.25" width="20" height="80" as="geometry" />
        </mxCell>
        <mxCell id="SjAacJ5gV3_FCl5hSbW8-58" value="" style="endArrow=classic;html=1;rounded=0;exitX=0.1;exitY=0.5;exitDx=0;exitDy=0;exitPerimeter=0;entryX=0.5;entryY=0;entryDx=0;entryDy=0;" parent="1" target="SjAacJ5gV3_FCl5hSbW8-53" edge="1">
          <mxGeometry width="50" height="50" relative="1" as="geometry">
            <mxPoint x="1980" y="290.25" as="sourcePoint" />
            <mxPoint x="1980" y="321.25" as="targetPoint" />
          </mxGeometry>
        </mxCell>
        <mxCell id="SjAacJ5gV3_FCl5hSbW8-59" value="" style="endArrow=classic;html=1;rounded=0;exitX=0.1;exitY=0.5;exitDx=0;exitDy=0;exitPerimeter=0;entryX=0.5;entryY=0;entryDx=0;entryDy=0;fillColor=#dae8fc;strokeColor=#6c8ebf;" parent="1" source="SjAacJ5gV3_FCl5hSbW8-57" target="SjAacJ5gV3_FCl5hSbW8-54" edge="1">
          <mxGeometry width="50" height="50" relative="1" as="geometry">
            <mxPoint x="2020" y="321.25" as="sourcePoint" />
            <mxPoint x="2020" y="332.25" as="targetPoint" />
          </mxGeometry>
        </mxCell>
        <mxCell id="SjAacJ5gV3_FCl5hSbW8-62" value="" style="shape=curlyBracket;whiteSpace=wrap;html=1;rounded=1;labelPosition=left;verticalLabelPosition=middle;align=right;verticalAlign=middle;rotation=-90;" parent="1" vertex="1">
          <mxGeometry x="1950" y="140" width="20" height="80" as="geometry" />
        </mxCell>
        <mxCell id="SjAacJ5gV3_FCl5hSbW8-63" value="&lt;font style=&quot;font-size: 16px;&quot;&gt;\(z_{0.5}\)&lt;/font&gt;" style="rounded=0;whiteSpace=wrap;html=1;fillColor=#f5f5f5;fontColor=#333333;strokeColor=#666666;" parent="1" vertex="1">
          <mxGeometry x="1940" y="220" width="40" height="40" as="geometry" />
        </mxCell>
        <mxCell id="SjAacJ5gV3_FCl5hSbW8-66" value="" style="endArrow=classic;html=1;rounded=0;exitX=0.1;exitY=0.5;exitDx=0;exitDy=0;exitPerimeter=0;entryX=0.501;entryY=-0.05;entryDx=0;entryDy=0;entryPerimeter=0;" parent="1" target="SjAacJ5gV3_FCl5hSbW8-63" edge="1">
          <mxGeometry width="50" height="50" relative="1" as="geometry">
            <mxPoint x="1960" y="188.5" as="sourcePoint" />
            <mxPoint x="1960" y="211.5" as="targetPoint" />
          </mxGeometry>
        </mxCell>
        <mxCell id="SjAacJ5gV3_FCl5hSbW8-67" value="&lt;font style=&quot;font-size: 16px;&quot;&gt;\(z_{3}&#39;\)&lt;/font&gt;" style="rounded=0;whiteSpace=wrap;html=1;fillColor=#d5e8d4;strokeColor=#82b366;" parent="1" vertex="1">
          <mxGeometry x="2040" y="380" width="40" height="40" as="geometry" />
        </mxCell>
        <mxCell id="SjAacJ5gV3_FCl5hSbW8-68" value="&lt;font style=&quot;font-size: 16px;&quot;&gt;\(z_{4}&#39;\)&lt;/font&gt;" style="rounded=0;whiteSpace=wrap;html=1;fillColor=#fff2cc;strokeColor=#d6b656;" parent="1" vertex="1">
          <mxGeometry x="2080" y="380" width="40" height="40" as="geometry" />
        </mxCell>
        <mxCell id="SjAacJ5gV3_FCl5hSbW8-69" value="" style="shape=curlyBracket;whiteSpace=wrap;html=1;rounded=1;labelPosition=left;verticalLabelPosition=middle;align=right;verticalAlign=middle;rotation=-90;fillColor=#d5e8d4;strokeColor=#82b366;" parent="1" vertex="1">
          <mxGeometry x="2050" y="286.12" width="20" height="80" as="geometry" />
        </mxCell>
        <mxCell id="SjAacJ5gV3_FCl5hSbW8-70" value="" style="shape=curlyBracket;whiteSpace=wrap;html=1;rounded=1;labelPosition=left;verticalLabelPosition=middle;align=right;verticalAlign=middle;rotation=-90;fillColor=#fff2cc;strokeColor=#d6b656;" parent="1" vertex="1">
          <mxGeometry x="2090" y="311.12" width="20" height="80" as="geometry" />
        </mxCell>
        <mxCell id="SjAacJ5gV3_FCl5hSbW8-71" value="" style="endArrow=classic;html=1;rounded=0;exitX=0.1;exitY=0.5;exitDx=0;exitDy=0;exitPerimeter=0;entryX=0.5;entryY=0;entryDx=0;entryDy=0;fillColor=#d5e8d4;strokeColor=#82b366;" parent="1" source="SjAacJ5gV3_FCl5hSbW8-69" target="SjAacJ5gV3_FCl5hSbW8-67" edge="1">
          <mxGeometry width="50" height="50" relative="1" as="geometry">
            <mxPoint x="2030" y="319.12" as="sourcePoint" />
            <mxPoint x="2030" y="386.12" as="targetPoint" />
          </mxGeometry>
        </mxCell>
        <mxCell id="SjAacJ5gV3_FCl5hSbW8-72" value="" style="endArrow=classic;html=1;rounded=0;exitX=0.1;exitY=0.5;exitDx=0;exitDy=0;exitPerimeter=0;entryX=0.5;entryY=0;entryDx=0;entryDy=0;fillColor=#fff2cc;strokeColor=#d6b656;" parent="1" source="SjAacJ5gV3_FCl5hSbW8-70" target="SjAacJ5gV3_FCl5hSbW8-68" edge="1">
          <mxGeometry width="50" height="50" relative="1" as="geometry">
            <mxPoint x="2070" y="344.12" as="sourcePoint" />
            <mxPoint x="2070" y="386.12" as="targetPoint" />
          </mxGeometry>
        </mxCell>
        <mxCell id="SjAacJ5gV3_FCl5hSbW8-74" value="&lt;p style=&quot;line-height: 60%;&quot;&gt;&lt;span style=&quot;font-size: 16px; font-weight: 400;&quot;&gt;running median of 4&lt;/span&gt;&lt;/p&gt;" style="text;strokeColor=none;fillColor=none;html=1;fontSize=24;fontStyle=1;verticalAlign=middle;align=left;spacing=0;" parent="1" vertex="1">
          <mxGeometry x="2240" y="140" width="80" height="30" as="geometry" />
        </mxCell>
        <mxCell id="SjAacJ5gV3_FCl5hSbW8-75" value="" style="shape=curlyBracket;whiteSpace=wrap;html=1;rounded=1;labelPosition=left;verticalLabelPosition=middle;align=right;verticalAlign=middle;rotation=-180;" parent="1" vertex="1">
          <mxGeometry x="2210" y="80" width="20" height="150" as="geometry" />
        </mxCell>
        <mxCell id="SjAacJ5gV3_FCl5hSbW8-76" value="" style="shape=curlyBracket;whiteSpace=wrap;html=1;rounded=1;labelPosition=left;verticalLabelPosition=middle;align=right;verticalAlign=middle;rotation=-180;" parent="1" vertex="1">
          <mxGeometry x="2210" y="250" width="20" height="160" as="geometry" />
        </mxCell>
        <mxCell id="SjAacJ5gV3_FCl5hSbW8-78" value="&lt;p style=&quot;line-height: 60%;&quot;&gt;&lt;span style=&quot;font-size: 16px; font-weight: 400;&quot;&gt;running median of 2&lt;/span&gt;&lt;/p&gt;" style="text;strokeColor=none;fillColor=none;html=1;fontSize=24;fontStyle=1;verticalAlign=middle;align=left;spacing=0;" parent="1" vertex="1">
          <mxGeometry x="2240" y="315" width="80" height="30" as="geometry" />
        </mxCell>
        <mxCell id="cyDXjY6HerALDzwMRZeK-1" value="&lt;font style=&quot;font-size: 16px;&quot;&gt;\(z_1\)&lt;/font&gt;" style="rounded=0;whiteSpace=wrap;html=1;fillColor=#f5f5f5;strokeColor=#666666;fontColor=#333333;" parent="1" vertex="1">
          <mxGeometry x="1440" y="240" width="40" height="40" as="geometry" />
        </mxCell>
        <mxCell id="cyDXjY6HerALDzwMRZeK-2" value="" style="shape=curlyBracket;whiteSpace=wrap;html=1;rounded=1;labelPosition=left;verticalLabelPosition=middle;align=right;verticalAlign=middle;rotation=-90;fillColor=#dae8fc;strokeColor=#000000;" parent="1" vertex="1">
          <mxGeometry x="1450" y="140" width="20" height="120" as="geometry" />
        </mxCell>
        <mxCell id="cyDXjY6HerALDzwMRZeK-4" value="" style="endArrow=classic;html=1;rounded=0;entryX=0.5;entryY=0;entryDx=0;entryDy=0;" parent="1" source="cyDXjY6HerALDzwMRZeK-2" target="cyDXjY6HerALDzwMRZeK-1" edge="1">
          <mxGeometry width="50" height="50" relative="1" as="geometry">
            <mxPoint x="1390" y="180" as="sourcePoint" />
            <mxPoint x="1390" y="140" as="targetPoint" />
          </mxGeometry>
        </mxCell>
        <mxCell id="cyDXjY6HerALDzwMRZeK-5" value="&lt;font style=&quot;font-size: 16px;&quot;&gt;\(\hat{y}_{-1}^{}\)&lt;/font&gt;" style="rounded=0;whiteSpace=wrap;html=1;fillColor=#bac8d3;strokeColor=#23445d;" parent="1" vertex="1">
          <mxGeometry x="1360" y="340" width="40" height="40" as="geometry" />
        </mxCell>
        <mxCell id="cyDXjY6HerALDzwMRZeK-9" value="\(\hat{y}_{-1}^{} = 3 z_1 - 2 z_2\)" style="text;html=1;align=right;verticalAlign=middle;whiteSpace=wrap;rounded=0;fontSize=12;fontColor=#000000;" parent="1" vertex="1">
          <mxGeometry x="1260" y="310" width="110" height="20" as="geometry" />
        </mxCell>
        <mxCell id="cyDXjY6HerALDzwMRZeK-10" value="" style="shape=curlyBracket;whiteSpace=wrap;html=1;rounded=1;labelPosition=left;verticalLabelPosition=middle;align=right;verticalAlign=middle;rotation=-90;fillColor=#dae8fc;strokeColor=#000000;" parent="1" vertex="1">
          <mxGeometry x="1470" y="260" width="20" height="80" as="geometry" />
        </mxCell>
        <mxCell id="cyDXjY6HerALDzwMRZeK-11" value="" style="endArrow=classic;html=1;rounded=0;entryX=0.5;entryY=0;entryDx=0;entryDy=0;exitX=0.1;exitY=0.5;exitDx=0;exitDy=0;exitPerimeter=0;edgeStyle=orthogonalEdgeStyle;" parent="1" source="cyDXjY6HerALDzwMRZeK-10" target="cyDXjY6HerALDzwMRZeK-5" edge="1">
          <mxGeometry width="50" height="50" relative="1" as="geometry">
            <mxPoint x="1390" y="180" as="sourcePoint" />
            <mxPoint x="1390" y="140" as="targetPoint" />
            <Array as="points">
              <mxPoint x="1480" y="320" />
              <mxPoint x="1380" y="320" />
            </Array>
          </mxGeometry>
        </mxCell>
        <mxCell id="cyDXjY6HerALDzwMRZeK-12" value="" style="endArrow=classic;html=1;rounded=0;exitX=0.5;exitY=1;exitDx=0;exitDy=0;jumpStyle=arc;jumpSize=12;" parent="1" source="SjAacJ5gV3_FCl5hSbW8-1" edge="1">
          <mxGeometry width="50" height="50" relative="1" as="geometry">
            <mxPoint x="1490" y="318" as="sourcePoint" />
            <mxPoint x="1420" y="340" as="targetPoint" />
          </mxGeometry>
        </mxCell>
        <mxCell id="cyDXjY6HerALDzwMRZeK-13" value="&lt;font style=&quot;font-size: 16px;&quot;&gt;\(y_0\)&lt;/font&gt;" style="rounded=0;whiteSpace=wrap;html=1;" parent="1" vertex="1">
          <mxGeometry x="1400" y="340" width="40" height="40" as="geometry" />
        </mxCell>
        <mxCell id="cyDXjY6HerALDzwMRZeK-14" value="&lt;font style=&quot;font-size: 16px;&quot;&gt;\(z_1\)&lt;/font&gt;" style="rounded=0;whiteSpace=wrap;html=1;fillColor=#f5f5f5;strokeColor=#666666;fontColor=#333333;" parent="1" vertex="1">
          <mxGeometry x="1440" y="340" width="40" height="40" as="geometry" />
        </mxCell>
        <mxCell id="cyDXjY6HerALDzwMRZeK-15" value="" style="endArrow=classic;html=1;rounded=0;entryX=0.5;entryY=0;entryDx=0;entryDy=0;exitX=0.5;exitY=1;exitDx=0;exitDy=0;jumpStyle=arc;jumpSize=12;" parent="1" source="cyDXjY6HerALDzwMRZeK-1" target="cyDXjY6HerALDzwMRZeK-14" edge="1">
          <mxGeometry width="50" height="50" relative="1" as="geometry">
            <mxPoint x="1470" y="220" as="sourcePoint" />
            <mxPoint x="1470" y="250" as="targetPoint" />
          </mxGeometry>
        </mxCell>
        <mxCell id="cyDXjY6HerALDzwMRZeK-16" value="&lt;font style=&quot;font-size: 16px;&quot;&gt;\(z_2\)&lt;/font&gt;" style="rounded=0;whiteSpace=wrap;html=1;fillColor=#dae8fc;strokeColor=#6c8ebf;" parent="1" vertex="1">
          <mxGeometry x="1480" y="340" width="40" height="40" as="geometry" />
        </mxCell>
        <mxCell id="cyDXjY6HerALDzwMRZeK-17" value="&lt;font style=&quot;font-size: 16px;&quot;&gt;\(z_3\)&lt;/font&gt;" style="rounded=0;whiteSpace=wrap;html=1;fillColor=#d5e8d4;strokeColor=#82b366;" parent="1" vertex="1">
          <mxGeometry x="1520" y="340" width="40" height="40" as="geometry" />
        </mxCell>
        <mxCell id="cyDXjY6HerALDzwMRZeK-18" value="&lt;font style=&quot;font-size: 16px;&quot;&gt;\(z_4\)&lt;/font&gt;" style="rounded=0;whiteSpace=wrap;html=1;fillColor=#ffe6cc;strokeColor=#d79b00;" parent="1" vertex="1">
          <mxGeometry x="1560" y="340" width="40" height="40" as="geometry" />
        </mxCell>
        <mxCell id="cyDXjY6HerALDzwMRZeK-19" value="&lt;font style=&quot;font-size: 16px;&quot;&gt;\(z_5\)&lt;/font&gt;" style="rounded=0;whiteSpace=wrap;html=1;fillColor=#f8cecc;strokeColor=#b85450;" parent="1" vertex="1">
          <mxGeometry x="1600" y="340" width="40" height="40" as="geometry" />
        </mxCell>
        <mxCell id="cyDXjY6HerALDzwMRZeK-20" value="&lt;p style=&quot;line-height: 60%; font-size: 14px;&quot;&gt;&lt;span style=&quot;font-size: 14px; font-weight: 400;&quot;&gt;running median of 5&lt;/span&gt;&lt;/p&gt;" style="text;strokeColor=none;fillColor=none;html=1;fontSize=14;fontStyle=1;verticalAlign=middle;align=left;spacing=0;spacingLeft=6;" parent="1" vertex="1">
          <mxGeometry x="1640" y="140" width="130" height="20" as="geometry" />
        </mxCell>
        <mxCell id="cyDXjY6HerALDzwMRZeK-21" value="&lt;p style=&quot;line-height: 60%; font-size: 14px;&quot;&gt;&lt;span style=&quot;font-size: 14px; font-weight: 400;&quot;&gt;running median of 5&lt;/span&gt;&lt;/p&gt;" style="text;strokeColor=none;fillColor=none;html=1;fontSize=14;fontStyle=1;verticalAlign=middle;align=left;spacing=0;spacingLeft=6;" parent="1" vertex="1">
          <mxGeometry x="1680" y="160" width="130" height="20" as="geometry" />
        </mxCell>
        <mxCell id="cyDXjY6HerALDzwMRZeK-22" value="&lt;p style=&quot;line-height: 60%; font-size: 14px;&quot;&gt;&lt;span style=&quot;font-size: 14px; font-weight: 400;&quot;&gt;running median of 5&lt;/span&gt;&lt;/p&gt;" style="text;strokeColor=none;fillColor=none;html=1;fontSize=14;fontStyle=1;verticalAlign=middle;align=left;spacing=0;spacingLeft=6;" parent="1" vertex="1">
          <mxGeometry x="1720" y="180" width="130" height="20" as="geometry" />
        </mxCell>
        <mxCell id="cyDXjY6HerALDzwMRZeK-23" value="" style="shape=curlyBracket;whiteSpace=wrap;html=1;rounded=1;labelPosition=left;verticalLabelPosition=middle;align=right;verticalAlign=middle;rotation=-90;fillColor=#dae8fc;strokeColor=#000000;" parent="1" vertex="1">
          <mxGeometry x="1410" y="340" width="20" height="120" as="geometry" />
        </mxCell>
        <mxCell id="cyDXjY6HerALDzwMRZeK-25" value="&lt;p style=&quot;line-height: 60%; font-size: 12px;&quot;&gt;&lt;span style=&quot;font-size: 12px; font-weight: 400;&quot;&gt;running median of 3&lt;/span&gt;&lt;/p&gt;" style="text;strokeColor=none;fillColor=none;html=1;fontSize=12;fontStyle=1;verticalAlign=middle;align=right;spacing=0;spacingRight=6;" parent="1" vertex="1">
          <mxGeometry x="1340" y="400" width="80" height="20" as="geometry" />
        </mxCell>
        <mxCell id="cyDXjY6HerALDzwMRZeK-26" value="" style="endArrow=classic;html=1;rounded=0;entryX=0.5;entryY=0;entryDx=0;entryDy=0;" parent="1" edge="1">
          <mxGeometry width="50" height="50" relative="1" as="geometry">
            <mxPoint x="1420" y="410" as="sourcePoint" />
            <mxPoint x="1420" y="440" as="targetPoint" />
          </mxGeometry>
        </mxCell>
        <mxCell id="cyDXjY6HerALDzwMRZeK-27" value="&lt;font style=&quot;font-size: 16px;&quot;&gt;\(z_0\)&lt;/font&gt;" style="rounded=0;whiteSpace=wrap;html=1;" parent="1" vertex="1">
          <mxGeometry x="1400" y="440" width="40" height="40" as="geometry" />
        </mxCell>
        <mxCell id="cyDXjY6HerALDzwMRZeK-28" value="&lt;font style=&quot;font-size: 16px;&quot;&gt;\(z_1\)&lt;/font&gt;" style="rounded=0;whiteSpace=wrap;html=1;fillColor=#f5f5f5;strokeColor=#666666;fontColor=#333333;" parent="1" vertex="1">
          <mxGeometry x="1440" y="440" width="40" height="40" as="geometry" />
        </mxCell>
        <mxCell id="cyDXjY6HerALDzwMRZeK-29" value="&lt;font style=&quot;font-size: 16px;&quot;&gt;\(z_2\)&lt;/font&gt;" style="rounded=0;whiteSpace=wrap;html=1;fillColor=#dae8fc;strokeColor=#6c8ebf;" parent="1" vertex="1">
          <mxGeometry x="1480" y="440" width="40" height="40" as="geometry" />
        </mxCell>
        <mxCell id="cyDXjY6HerALDzwMRZeK-30" value="&lt;font style=&quot;font-size: 16px;&quot;&gt;\(z_3\)&lt;/font&gt;" style="rounded=0;whiteSpace=wrap;html=1;fillColor=#d5e8d4;strokeColor=#82b366;" parent="1" vertex="1">
          <mxGeometry x="1520" y="440" width="40" height="40" as="geometry" />
        </mxCell>
        <mxCell id="cyDXjY6HerALDzwMRZeK-31" value="&lt;font style=&quot;font-size: 16px;&quot;&gt;\(z_4\)&lt;/font&gt;" style="rounded=0;whiteSpace=wrap;html=1;fillColor=#ffe6cc;strokeColor=#d79b00;" parent="1" vertex="1">
          <mxGeometry x="1560" y="440" width="40" height="40" as="geometry" />
        </mxCell>
        <mxCell id="cyDXjY6HerALDzwMRZeK-32" value="&lt;font style=&quot;font-size: 16px;&quot;&gt;\(z_5\)&lt;/font&gt;" style="rounded=0;whiteSpace=wrap;html=1;fillColor=#f8cecc;strokeColor=#b85450;" parent="1" vertex="1">
          <mxGeometry x="1600" y="440" width="40" height="40" as="geometry" />
        </mxCell>
        <mxCell id="cyDXjY6HerALDzwMRZeK-35" value="" style="shape=image;verticalLabelPosition=bottom;labelBackgroundColor=default;verticalAlign=top;aspect=fixed;imageAspect=0;image=data:image/png,iVBORw0KGgoAAAANSUhEUgAAAh4AAAFICAIAAACQnmBqAAAAAXNSR0IArs4c6QAAIABJREFUeAHtnQlYFGeax1+hgW4QEQ02DCoI6nijJuIqxCtGkQyOiWIy8ciM2TU6LsNkEjbuZFFX1OiTxNt459ARdUzWjTGreMYrjmcmUSESRQMKjKDQqFw2XftoTSplV3fTdHVX1/Gvxyfz1VtfffV+v7emflRXH8RgAQEQAAEQAAG3EiC3jobBQAAEQAAEQICBWnASgAAIgAAIuJkA1OJmoBgOBEAABEAAasE5AAIgAAIg4GYCUIubgWI4EAABEAABqAXnAAiAAAiAgJsJQC1uBorhQAAEQAAEoBacAyAAAiAAAm4moGy1WCwWk8lksVjcTAXDgQAIgAAIiCCgbLWYTCYiMplMIghgVxAAARAAATcTgFrcDBTDgQAIgAAIQC04B0AABEAABNxMAGpxM1AMBwIgAAIgALXgHAABEAABEHAzAajFzUAxHAiAAAiAANSCcwAEQAAEQMDNBKAWNwPFcCAAAiAAAlALzgEQAAEQAAE3E4Ba3AwUw4EACIAACEAtOAdAAARAAATcTABqcTNQDAcCIAACIAC14BwAARAAARBwMwGoxc1AMRwIgAAIgADUgnMABEAABEDAzQSgFjcDxXAgAAIgAAJQC84BEAABEAABNxOAWtwMFMOBAAiAAAhALTgHQAAEQAAE3EwAanEzUAwHAiAAAiAgtVrOnTuXkpISGhpqMBi6d+++bNkyrgYnTpxISEgwGAxGozEtLe3u3bvcJnsNk8lERCaTyV4HxEEABEAABKQnIKlacnJy/P39+/fvv3jx4nXr1r311lsZGRnsnL/55hu9Xt+nT5/Vq1e//fbbAQEBSUlJjeKAWhpFhA4gAAIgID0B6dRiMpmMRuPzzz/f0NAgnOeoUaMiIiK4+4/169cTUU5OjrAnPwK18GmgDQIgAAIyISCdWlavXk1Eubm5DMPcu3ePLxiTyaTT6bg7GIZh6urqmjdv/uqrrzrGBLU45oOtIAACIOAVAtKpZezYsS1atNi/f3/nzp2JKCgoaNq0aTU1NQzDHD9+nIi2b9/OR5CYmNi3b19+RNiGWoRM1B2xWCz37Cw5OTlXr161udFisagbC2YHAnIjIJ1aevXqFfhoSUtL++yzz9LS0ojopZdeYhhmx44dRHT06FE+ndTU1PDwcH6EbdfW1pp+WoqKioiooqKiAYsGCJjN5oSEBJ+mL4mJiWazWQOEMEUQ8DgB4TXZZkQ6tcTExBDRtGnTuDxee+01IsrPz9+0aRMRnTp1itvEMMykSZNCQkL4EbY9e/ZsenzJz88vwaIBAsXFxZMnT+7X9GXy5MnFxcUaIIQpgoDHCQivyTYj0qmle/fuRHTkyBEujyNHjhDRJ598grsWj/+loZYDmM3mKlvL559/7uPj07NnT1sbq3DLopb6Yx7eJ8BdwB03pFPLs88+S0Tff/89l1BeXh4RLV26FM9aOCZouEZg//79RNSzZ0/XdsdeIAAC7iUgnVpmzpxJRAcPHuQmcPDgQSLasmVLZWWlzXeITZkyhetss4HH+DaxaDAItWiw6JiynAlIp5bz588T0csvv8zh+M1vfqPT6W7evMkwTFJSUkRERFVVFbt1w4YNRLRnzx6us80G1GITiwaDUIsGi44py5mAdGphGGbKlClENH78+FWrVqWmphLRf/7nf7J0zp07FxAQwH0aX6/XjxgxolFwUEujiDTSAWrRSKExTaUQkFQt9fX1c+bMiYqK8vPz69ix45IlS/iYjh07NnDgQL1eHxYWNmPGDO4Oht/Hqg21WAHR7CrUotnSY+LyJCCpWtyOAGpxO1KFDgi1KLRwSFutBKAWtVZWW/OCWrRVb8xW9gSgFtmXCAk6QQBqcQISuoCAdASgFulY40ieIwC1eI4tRgYBFwhALS5Awy6yIwC1yK4kSEjbBKAWbddfLbOHWtRSScxDJQSgFpUUUuPTgFo0fgJg+nIjALXIrSLIxxUCUIsr1LAPCHiMANTiMbQYWEICUIuEsHEoEGicANTSOCP0kD8BqEX+NUKGmiIAtWiq3KqdLNSi2tJiYsokALUos27I+nECUMvjPLAGAl4mALV4uQA4vFsIQC1uwYhBQMBdBKAWd5HEON4kALV4kz6ODQICAlCLAAkCCiQAtSiwaEhZzQSgFjVXVztzg1q0U2vMVBEEoBZFlAlJNkIAamkEEDaDgLQEoBZpeeNoniEAtXiGK0YFARcJQC0ugsNusiIAtciqHEgGBKAWnANqIAC1qKGKmIOKCEAtKiqmhqcCtWi4+Ji6HAlALXKsCnJqKgGopanE0B8EPEoAavEoXgwuEQGoRSLQOAwIOEcAanGOE3rJmwDUIu/6IDvNEYBaNFdyVU4YalFlWTEp5RKAWpRbO2T+MwGo5WcWaIGADAhALTIoAlIQTQBqEY0QA4CAOwlALe6kibG8RQBq8RZ5HBcEbBKAWmxiQVBhBKAWhRUM6aqdANSi9gprY35QizbqjFkqhgDUophSIVEHBKAWB3CwCQSkJwC1SM8cR3Q/AajF/UwxIgiIIAC1iICHXWVDAGqRTSmQCAg8JAC14DxQAwGoRQ1VxBxURABqUVExNTwVqEXDxcfU5UgAapFjVZBTUwlALU0lhv4g4FECUItH8Wpo8NOnT8+YMaNbt26BgYHt2rVLTU29fPmycP6rVq0iovj4eOEmMRGoRQw9G/te/9pG0CrkTB+rXbCqGQJQi2ZK7eGJjh07Njw8PC0tbf369VlZWUajMSgo6MKFC1aHHThwoL+/PxH98MMPVpvErEItYuhZ73toATO7BXNssXWcv35s8cM+hxbwY2iDAEdAOrUcPnyYBMvJkye5VE6cOJGQkGAwGIxGY1pa2t27d7lN9homk4mITCaTvQ6IS0bgxIkTdXV13OHy8/MDAgImTJjARRiGKSgoIKK5c+f6+fnNmTOHv0lkG2oRCfDn3a9//dAZ7D97dmG9wvbBvcvP7ND6mYDUavnDH/6wmbeUlZWxuXzzzTd6vb5Pnz6rV69+++23AwICkpKSfk7TTgtqsQNGFuG+jxZ+KllZWb6+vqWlpcnJyZ06deJvGjVqVFRUFD9isVj69OmTmJjID9prQy32yLgS55tDaBfHW105HvZRIQGp1bJjxw6bFEeNGhUREcHdf6xfv56IcnJybHbmglALh0JuDYvFEhkZOWLECH5iXbp0GTp0KMMwH3/8MRGdPn2a2zpr1iwiunPnDhfJzs4mouPHj3MRBw2oxQEcVzbZ84e9uCvHwD5qJuAFtVRVVT148IAP1WQy6XS6jIwMLlhXV9e8efNXX32Vi9hsQC02scghuHnzZiLauHEjl8zZs2eJaM2aNQzDVFZW+vv7p6enc1t37dpFRAcPHmQj9fX1sbGxKSkpXAfHDajFMR9XtgotIoy4Mi720QQBqdXSvHlzIvL19R0yZMiZM2dYxsePHyei7du385EnJib27duXHxG2oRYhEzlE8vLyWrRoMWDAALPZzOXz+uuv63Q67iXQ0aNHG41GrkNJSQkRvfvuu2z/lStX+vj4CN8FwI1m1YBarIC4Z5XvkoVRjT+Dcc9RMYoaCEinlhMnTowdO3bjxo2ff/75O++807p1a71ef/78eYZhduzYQURHjx7lE01NTQ0PD+dH2HZtba3pp6WoqIiIKioqGrDIhsDNmzdjYmLatWtXVFTEJVVfXx8REfHss89yEfa2Zs+ePVwkMjLyN7/5TUNDQ1VVldFonDRpErep0ca+fft8fHzi4uIa7YkOTSNw9P2fjfLouX3D0febNgJ6q4uA8JpsMyKdWqwO/8MPPxgMhpEjRzIMs2nTJiI6deoUv8+kSZNCQkL4EbY9e/Zsqzea5efnl2CRB4HLly/36NEjNDT0q6++4me0bds2Ilq8eDEXvHLlil6vT01N5SJJSUmdOnUqKSnJyMjw9/c/ffo0t6nRxp49e/r16zdu3LhGe6JDUwk0LGjP2aVhQfum7o7+KiMgvCbbjHhNLQzDvPTSS/7+/mazGXct6viz5v79+08//XRgYODx48etZjR58mQ/P7/y8nJ+/IUXXggODr537x4bnDdvno+Pz7Vr11q0aPGHP/yB37PRNu5aGkXkYgcF3rVMmzbtySefvH//votTxm4OCdgUiTDoTbVkZGSwn0rBsxZhYRQXMZvNo0eP1ul0X375pVXy1dXVwcHBycnJVvHt27cT0bZt29h4Tk4OESUkJAQHB9+6dcuqs+NVPGtxzMfFrQp81nL9+nX2VY3MzEwXZ43d3EHAm2oZO3asXq9vaGiorKy0+Q6xKVOmOJ4jHuM75iPl1vT0dCJKSUnhfWzpYZNhGPbVsOTk5HceXzIzM9ld2Dxv377NXhRc+DQl1OL+WvO9wn66RRhx/1HFjjh16lT2LDIajfzP8IodF/s3kYB0arH6O/Tvf/+7n5/f6NGj2YSTkpIiIiKqqqrY1Q0bNhDRnj17HE8HanHMR8qtgwcPtnoGxq4yDJOSkmJzExtkXyhjU42Ojg4LC3Pmixispga1WAERu2rPIvbiYo/nnv2vX7+u0+m4k419p7t7hsYoTSQgnVqGDh2anJw8b968devW/fGPfwwMDAwJCcnNzWUTPnfuXEBAAPdpfL1eb/VpO5vzglpsYlFo8OrVq76+vsuWLXMhf6jFBWh2d3HsD8db7Q4qxQb2liUgIIC1S7t27XDjIgV3W8eQTi3Lli2Lj49v1aqVTqeLiIiYOHGi1RcUHjt2bODAgXq9PiwsbMaMGdwdjK20/xmDWhzAUdym8ePHx8bGunYtgFrcVm7FfocYd8vyxBNPEBH7X9y4uO3EaOJA0qmliYk51R1qcQqTvDtVVFRkZ2dPnTq1WbNme/fudS1ZqMU1brb3UuY3H7O3LMOHD4+MjCSiN998k4hw42K7xJ6PQi2eZ4wjOCTw6aefElHbtm3XrVvnsKOjjVCLIzoubHPm+4yd6ePCoV3apby8nH3KcuzYMVYtJ06ciIiIIKK//OUvLg2JnUQRgFpE4cPOMiEAtcikEN5K4/bt29HR0RMnTmQYhlXLuXPnsrOzmzdv3ui7gbyVs7qPC7Wou75amR3UopVKOzFPTi1O9EUXTxGAWjxFFuNKSQBqkZK2zI8FtcihQFCLHKqAHMQSgFrEElTR/lCLHIoJtcihCshBLAGoRSxBFe0PtcihmFCLHKqAHMQSgFrEElTR/lCLHIoJtcihCshBLAGoRSxBFe0PtcihmFCLHKqAHMQSgFrEElTR/lCLHIoJtcihCshBLAGoRSxBFe3vmlpWrVpFRPHx8Soi0fhU7t69O2vWrJEjR4aGhhLRRx99JNyntrb2P/7jPyIiIvR6fXx8/L59+4R9hBGoRcgEEeURgFqUVzOPZeyaWgYOHOjv709EVt9t6LE0ZTHwtWvXiKh9+/ZDhgyxp5aXXnpJp9O9+eaba9euHTBggE6nO3bsWKPZQy2NIkIHBRCAWhRQJKlSdEEtBQUFRDR37lw/Pz8Xfi5Iqpm5/zi1tbUlJSUMw5w5c8amWk6dOkVE7777Lnvsmpqa2NjYAQMGNJoK1NIoInRQAAGoRQFFkipFF9SSlZXl6+tbWlqanJzcqVMnfqajRo2KioriRywWS58+fRITE/lBpbftqSUjI8PX19dkMnETXLBgAREVFhZyEZsNqMUmFgQVRgBqUVjBPJmuC2rp0qXL0KFDGYb5+OOPiej06dNcgrNmzSKiO3fucJHs7GwiOn78OBeRSaO+vr7M4dLQ0GAvVXtqGT58eNeuXfl7HThwgIh27drFDwrbUIuQCSLKIwC1KK9mHsu4qWo5e/YsEbG/7FJZWenv75+ens5lt2vXLiI6ePAgG6mvr4+NjU1JSeE6yKdx+PBh7hc2bTauXbtmL1t7aunevfuwYcP4e126dInDxY9btaEWKyBYVSQBqEWRZfNM0k1Vy+uvv67T6crKyth0Ro8ebTQazWYzu1pSUsJ/2LBy5UofH58LFy54JndHoxJRUVGRgx537tzZ73Cpqamxt7s9tcTExIwaNYq/19WrV4loyZIl/KCwDbUImSCiPAJQi/Jq5rGMm6QWs9kcERHB/7n0LVu2EFFOTg6XYGRk5Msvv8wwzL1794xG4+TJk7lNHm1ERUXx34vVqFrEJGNPLbhrEUMV+yqeANSi+BK6bwJNUsu+ffuIaOPGjdzx7969azAY+P4YM2YM+7xh7ty5/v7+169f5zp7tNFUtdTV1ZU4XLhbMWHa9tSCZy1CVohoiADUoqFiNzbVJqnllVde8fPz4z+lZxhm7NixwcHB1dXV7KHmz5/v4+Pz448/tmjRgv8YpqGhIS0trXXr1iEhIU899RT7khoRrVy5MioqKiQkZM2aNSdOnOjatWvLli3nzp3Ljnbx4sXExMSQkJC+ffty7wUQBl999dVmzZoZDIagoCD2hzKJ6IMPPoiOjm7duvWCBQuEGDzxrOXNN9+0eofY/Pnz8Q4xIXxE1EkAalFnXV2alfNqqa6uDg4OTk5OtjrO9u3biWjbtm1sPCcnh4gSEhKCg4Nv3brFdd6zZ8+TTz5pMpnMZvO5c+fu3r3LMAwRvfjii/fv3z906JBer3/hhRdu376dl5en1+uvXr1aV1fXoUOHZcuW1dfXb9u2LTQ09M6dOzaDDMMI71rGjRt39+7dCxcuBAQEXLlyhcuEbXjiWcvf/vY3/qOm2trajh079u/f3+rQwlU8axEyQUR5BKAW5dXMYxk7r5Zt27YRUXJy8juPL5mZmUTEvQ3s9u3b7BuurD5NeeDAgc6dO586dcpisXCzIaJz586xq23atPnss8/Ydnx8/M6dO48ePcr/lMy//Mu/ZGdn2wzaVMvZs2fZ0fr167dz507uoGIaK1asyMrKmj59OhG98MILWY+WyspKbszU1FSdTpeRkbF27dqBAwfqdLojR45wW+01oBZ7ZBBXEgGoRUnV8nCuzqslJSXF5pt02aCfn195eTmbbHR0dFhYGHtfwk9/8eLFcXFxRqPxjTfeqK+vZ+9auPdx8W87Bg8evHnz5m3btvE/a/niiy++9957NoM21cKNzI7Gz8TldlRUlBAC/23KNTU1b775Znh4eEBAQL9+/fbu3evMsaAWZyihj9wJQC1yr5CE+TmvFieTunr1qq+v77Jly+z1Lyws7NGjB/vdjvz3cQnVYnWDMmDAAOFdCxtkGCY6OtreO8TcqBZ7kxIZh1pEAsTusiAAtciiDPJIwu1qGT9+fGxsbF1dndX8zpw5c/r06QcPHlRUVPTp02fTpk2N3rXU1dVFRUWtWLHiwYMHf/3rX1u2bMk+axEGGYaJj4/fvHkzd1C+tKAWDotHGiaTiYj432/jkcNgUNkTgFpkXyLpEnSXWioqKrKzs6dOndqsWTObrwIdOHCgR48eQUFBbdq0+fd//3f2rb18AQjvWhiG+fbbbwcOHNiiRYs+ffocPXqU5WIz+Nlnn0VGRoaEhGzZssVKWlCLZ88nqMWzfJUzOtSinFp5PFN3qeXTTz8lorZt265bt87jSavuAHhBTHUl1eSEoBZNlt32pN2lFtujI+ocAajFOU7oJW8CUIu86yNpdlCLpLjtHAxqsQMGYUURgFoUVS7PJgu1eJavc6NDLc5xQi95E4Ba5F0fSbODWiTFbedgUIsdMAgrigDUoqhyeTZZqMWzfJ0bHWpxjhN6yZsA1CLv+kiaHdQiKW47B4Na7IBBWFEEoBZFlcuzyUItnuXr3OhQi3Oc0EveBKAWedfH49k9ePAgIyNj+/btDMNwavn+++9/97vfFRQUePzwOICAANQiQIKAAglALQosmjtTLigoICK9Xl9cXMyq5ezZs4mJiUS0dOlSdx4JYzlHAGpxjhN6yZDA9a+5pOyqhdeH64yG+ghYLJaEhAQiSk9PZ9WyevVqIgoICLhx44b65iv/GUEt8q8RMrRF4NACZnYL5thidptttRxb/LDPIRu/x2drRMSUTYA9B/R6fXh4OBH17t2biNLS0pQ9K8Vm7x21zJs3j4i6d+/O53bixImEhASDwWA0GtPS0oQ/jcDvzLbxHWJCJpqIXP/6oTPYf4/sYkMtrFfYPrh30cBpwd24BAUFsT9AglsWL5bdC2opKioKDAwMCgriq+Wbb77R6/V9+vRZvXr122+/HRAQkJSU1CgXqKVRRKrtwDfHscXWanl8q2ohYGKPE2BPA+6HrXDL8jgeSde8oJYXX3xx2LBhgwcP5qtl1KhRERER3Nfjr1+/nohycnIcw4BaHPNR+VaeP/I/+j0R9ezZ8+GUeXHuFTOVo8D0HhHgblyIyN/fH09ZvHheSK2WI0eO+Pr6fvfdd3y1mEwm9reXORB1dXXNmzd/9dVXuYjNBtRiE4uGgjyL/EeC/0O18CLwiobOhJ+myt24vPjiiz/F8L9eICCpWsxmc69evV577TWGYfhqOX78OBGx70nnGCQmJvbt25dbtdmAWmxi0VaQ55KKmS2tnsFoCwVmyzAWiyUqKsrX1/fy5cvg4UUCkqpl5cqVISEht27dslLLjh07iIj7wTUWR2pqanh4uBBNbW2t6aelqKiIiCoqKhqwaJnA0fd/Nsqj5/YNR9/XMg/M/cGDB4DgIQLCa7LNiHRqKS8vb9Wq1Xvvvcfmwb9r2bRpExGdOnWKn+KkSZNCQkL4EbY9e/Zs7jEd28jPzy/Bom0CdVm/4OzSsKC9tmFg9iDgQQLCa7LNiHRqmTZtWseOHevq6tg8+GrBXYuH/r7QyrC4a9FKpTFP7xOwKRJhUCK15Ofn+/j4LF++/NpPS//+/Tt37nzt2rXbt2/jWYuwMIg4SwDPWpwlhX4gIB0BidRy+PBhq1exuNX09PTKykqb7xCbMmWKYxJ4jO+Yj/q38ryCd4ipv9yYoXIISKSWsrKynY8v3bt3b9++/c6dO7/77juGYZKSkiIiIqqqqlh0GzZsIKI9e/Y4Jgm1OOaj8q08r+BzLSqvNaanNAISqUWIhf+shWGYc+fOBQQEcJ/G1+v1I0aMEO5lFYFarIBoaJXnFQafxtdQ4TFVZRCQi1oefob62LGBAwfq9fqwsLAZM2ZwdzAOQEItDuCoeRO+Q0zN1cXc1EDAa2pxCzyoxS0YFTkIvvlYkWVD0lohALVopdIqnCfv+4ytv56Smy2vDxdDAwRAwNMEoBZPE8b4UhCwqxYpDo5jgAAIWBOAWqyJYF2JBKAWJVYNOauYANSi4uJqaGpQi4aKjakqgQDUooQqIcfGCEAtjRHCdhCQlADUIiluHMxDBKAWD4HFsCDgGgGoxTVu2EteBKAWedUD2WieANSi+VNAFQCgFlWUEZNQDwGoRT211PJMoBYtVx9zlyEBqEWGRUFKTSYAtTQZGXYAAU8SgFo8SRdjS0UAapGKNI4DAk4RgFqcwoROMicAtci8QEhPawSgFq1VXJ3zhVrUWVfMSrEEoBbFlg6J8whALTwYaIKA9wk0rpZBgwadPHnS+5naygBfqm+LihZjUIsWq445y5hA42rp06ePj4/PmDFjcnNz5TYRqEVuFfFWPlCLt8jjuCBgk0DjamEYJjs7u2PHjjqd7ne/+11hYaHNgbwShFq8gl2GB4VaZFgUpKRlAk6phWGYBw8erFy5Mjw8XK/X/+lPfyovL5cDNahFDlWQQw5QixyqgBxAgCPgrFrYHe7fvz937tyQR0tWVtb9+/e5gbzSgFq8gl2GB4VaZFgUpKRlAk1TC0uqsLAwMTHRx8fHaDSuXLnywYMH3iIItXiLvNyOC7XIrSLIR+MEnFJLZWXl4cOH33///YkTJ3bv3l2n0zV7tHTo0EGn03Xq1Gn//v1e4Qi1eAW7DA8KtciwKEhJywQaV0t0dLTPo6VZs2Zt27Z9/vnnFyxYsG/fvjt37jAMc/Xq1fHjx/v6+m7cuFF6jlCL9MzleUSoRZ51QVaaJdC4WkaNGjV79uwvvviitLTUHqapU6e2b9/e3lbPxaEWz7FV1shQi7LqhWxVT6BxtTiDIDs7u1mzZs70dG8fqMW9PJU7GtSi3Nohc1UScI9aKisrP/vsM+kBQS3SM5fnEaEWedYFWWmWgHvU4i18UIu3yMvtuFCL3CqCfDROAGrR+AmgkulDLSopJKahFgJQi1oqqe15QC3arj9mLzsCUIvsSoKEXCAAtbgADbuAgOcIQC2eY4uRpSMAtUjHGkcCAScIQC1OQEIX2ROAWmRfIiSoLQJQi7bqrdbZQi1qrSzmpVACUItCC4e0HyMAtTyGAysg4G0CUIu3K4Dju4MA1OIOihgDBNxGAGpxG0oM5EUCUIsX4ePQICAkALUImSDiCoHTp0/PmDGjW7dugYGB7dq1S01NvXz5snCgVatWEVF8fLxwk5gI1CKGHvYFAbcTgFrcjlSjA44dOzY8PDwtLW39+vVZWVlGozEoKOjChQtWOAYOHOjv709EP/zwg9UmMatQixh62BcE3E4AanE7Uo0OeOLEibq6Om7y+fn5AQEBEyZM4CIMwxQUFBDR3Llz/fz85syZw98ksg21iASI3UHAvQSkU8vFixfHjRvXoUMHg8HQunXrp59+eteuXfzJ5Obmjhw5MigoKDQ0dOLEibdu3eJvtdnG11PaxCKTYN9HCz+ZrKwsX1/f0tLS5OTkTp068TeNGjUqKiqKH7FYLH369ElMTOQH7bWhFntkEAcBrxCQTi1ffvnlyJEj58yZs27duqVLlz799NNEtHbtWnbaRUVFTzzxRGxs7LJly+bPnx8aGhoXF8f/K9gmHajFJhY5BC0WS2Rk5IgRI/jJdOnSZejQoQzDfPzxx0R0+vRpbuusWbOIiP3pUjaYnZ1NRMePH+f6OGhALQ7gYBMISE9AOrVYzc1sNsfFxf3yl79k49OnTzcYDD/++CO7yl4pOPFY7cutQi0cCrk1Nm/eTET8n7U+e/YsEa1Zs4ZhmMrKSn9///T0dC4CAAWsAAAa7UlEQVTtXbt2EdHBgwfZSH19fWxsbEpKCtfBcQNqccwHW0FAYgJeUwvDML/61a+MRiM74TZt2qSmpvIn37lz52eeeYYfEbahFiETOUTy8vJatGgxYMAAs9nM5fP666/rdLqysjI2Mnr0aKPRyHUoKSkhonfffZfdunLlSh8fH+G7ALjRrBpQixUQrIKAdwlIrZZ79+6VlZVduXJl8eLFvr6+L7/8MsMwN27cIKJFixbxWUycOLFVq1b8iLANtQiZeD1SUlISExPTrl27mzdvcsmYzeaIiAj+62NbtmwhopycHK5PZGQkez7cu3fPaDROnjyZ29RoA2ppFBE6gICUBKRWy2uvvUaPFh8fn3HjxrGvrZ85c4aINm3axJ95RkYGEdXW1vKDDMPU1taaflqKioqIqKKiogGLPAjcuXOnd+/erVq1unDhAj+jvXv3EtH69eu5oMlkMhgMkyZN4iK//vWvu3bt2tDQ8N///d/+/v4FBQXcpkYb+/bt8/HxiYuLa7QnOoAACIghYHVBtrcqtVry8vL279//ySefPPfcc88//3xpaSnDMEePHiWi7du387PMzMxktcEPMgwze/ZsVk7cf/Pz80uwyIDAtWvX+vfvbzAYvvjiC6t0xo8f7+fnl5eXx48/99xzzZs3LygoYIMzZ8708fE5c+ZMcHDwv/7rv/J7Ntres2dPv379xo0b12hPdAABEBBDwOqCbG9VarXw83j22Wf79etnsVhw1yLmjwiZ7FtfX5+SkqLT6b744gurlO7duxccHDxq1Cir+NatW4koOzubje/Zs4eIEhISgoODS0tLrTo7XsVdi2M+2AoC7iLAv4Y7aHtTLWvXriWi77//Hs9aHFRIKZvS09OJKCUlZfPjC8Mw27ZtI6Lk5OR3Hl/YG1PubWC3b99m70Rd+DQlnrUo5TxBnhoh4E21LF26lIhOnTrFMExYWJjwHWLDhg1zXAY8xnfMR8qtgwcP5l6i5DcYhklJSeFHrNp+fn7l5eVsqtHR0WFhYXfv3m1q5lBLU4mhPwh4lIB0avnHP/7Bn0l9fX3fvn0NBgN7HZk2bZrBYCgsLGT7HDhwgIhWr17N30XYhlqETJQbuXr1qq+v77Jly1yYAtTiAjTsAgKeIyCdWsaMGTNs2LA5c+awX1/YpUsXInr//ffZuRUWFrZu3To2Nnb58uULFiwIDQ3t2bOn8O1hViCgFisgil4dP358bGxso1/BYHOOUItNLAiCgLcISKeWrVu3Dh8+3Gg06nS60NDQ4cOHf/755/xpX7x4ccSIEYGBgS1btpwwYQL75jF+B2EbahEyUVykoqIiOzt76tSpzZo127t3r2v5Qy2uccNeIOAhAtKpxRMTgFo8QVXiMT/99FMiatu27bp161w+NNTiMjrsCAKeIAC1eIIqxpSaANQiNXEcDwQcEoBaHOLBRoUQgFoUUiikqRUCUItWKq3ueUIt6q4vZqc4AlCL4kqGhG0QgFpsQEEIBLxHAGrxHnsc2X0EoBb3scRIIOAGAlCLGyBiCK8TgFq8XgIkAAJ8AlALnwbaSiUAtSi1cshbpQSgFpUWVmPTglo0VnBMV+4EoBa5Vwj5OUMAanGGEvqAgGQEoBbJUONAHiQAtXgQLoYGgaYTgFqazgx7yI8A1CK/miAjTROAWjRdftVMHmpRTSkxEXUQgFrUUUetzwJq0foZgPnLjADUIrOCIB2XCEAtLmHDTiDgKQJQi6fIYlwpCUAtUtLGsUCgUQJQS6OI0EEBBKAWBRQJKWqJANSipWqrd65Qi3pri5kpkgDUosiyIWkrAlCLFRCsgoB3CUAt3uWPo7uHANTiHo4YBQTcRABqcRNIDONVAlCLV/Hj4CBgTQBqsSaCdSUSgFqUWDXkrGICUIuKi6uhqUEtGio2pqoEAlCLEqqEHBsjALU0RgjbQUBSAlCLpLhxMA8RgFo8BBbDgoBrBKAW17hhL3kRgFrkVQ9ko3kCUIvmTwFVAIBaVFFGTEI9BKAW9dRSyzOBWrRcfcxdhgSgFhkWBSk1mQDU0mRk2AEEPEkAavEkXYwtFQGoRSrSOA4IOEUAanEKEzrJnADUIvMCIT2tEYBatFZxdc4XalFnXTErxRKAWhRbOiTOIwC18GCgCQLeJwC1eL8GyEA8AahFPEOMAAJuJAC1uBEmhvIaAajFa+hxYBCwRQBqsUUFMaURgFqUVjHkq3ICUIvKC6yR6UEtGik0pqkUAlCLUiqFPB0RgFoc0cE2EJCcgHRqOX369IwZM7p16xYYGNiuXbvU1NTLly/z55ubmzty5MigoKDQ0NCJEyfeunWLv9Vm22QyEZHJZLK5FUHtEIBatFNrzFQRBKRTy9ixY8PDw9PS0tavX5+VlWU0GoOCgi5cuMBiKioqeuKJJ2JjY5ctWzZ//vzQ0NC4uLi6ujrHEKEWx3y0sxVq0U6tMVNFEJBOLSdOnOCrIj8/PyAgYMKECSym6dOnGwyGH3/8kV1lrxRr1651DBFqccxHO1uhFu3UGjNVBAHp1CLE0ffRwsbbtGmTmprK79O5c+dnnnmGHxG2oRYhE21GoBZt1h2zli0Br6nFYrFERkaOGDGCYZgbN24Q0aJFi/iYJk6c2KpVK35E2IZahEzUHbFYLPdsLbt27SKi7t2729p4z2KxqBsLZgcCciPgNbVs3ryZiDZu3MgwzJkzZ4ho06ZNfDoZGRlEVFtbyw8yDFNbW2v6aSkqKiKiioqKBiwaIGA2mxMSEnyaviQmJprNZg0QwhRBwOMErC7I9la9o5a8vLwWLVoMGDDAbDYzDHP06FEi2r59Oz/LzMxMVhv8IMMws2fPpseX/Pz8EiwaIFBcXDx58uR+TV8mT55cXFysAUKYIgh4nIDVBdneqhfUUlJSEhMT065du5s3b7Jp4a7F439pqOUAZrO5ys5SWVlpZ0sVblnUUn/Mw/sE7LnEKi61WiorK3v37t2qVatLly5xqeBZC4cCDRAAARBQAQFJ1VJTU/P0008HBgZ+/fXXVuzCwsKE7xAbNmyYVTerVTzGtwKCVRAAARCQAwHp1GI2m0ePHq3T6b788kvhzKdNm2YwGAoLC9lNBw4cIKLVq1cLe/IjUAufBtogAAIgIBMC0qklPT2diFJSUjY/vrAgCgsLW7duHRsbu3z58gULFoSGhvbs2VP49jAralCLFRCsggAIgIAcCEinlsGDBz/+xq5/rnEULl68OGLEiMDAwJYtW06YMKG0tJTbZK8BtdgjgzgIgAAIeJGAdGrxxCShFk9QxZggAAIgIJIA1CISIHYHARAAARCwJgC1WBPBOgiAAAiAgEgCUItIgNgdBEBAUgJms7kGiycJsF+SIrKoUItIgNgdBEBAIgIWi6W4uDgXi+cJFBcXi/xSV6hFov9X4DAgAAIiCbBeKS8vr66u9uRf7Zoeu7q6ury8PDc3t7i4WEy9oBYx9LAvCICARATMZnNubm55eblEx9P2YVi7iHllDGrR9hmE2YOAQgjU1NTk5uZWV1crJF9lp1ldXZ2bm1tTU+PyNKAWl9FhRxAAAekIsGoRc7GTLlflH0k8bahF+WcBZgACGiAg/mKnAUhum6J42lCL24qBgUAABDxHQPzFznO5qW9k8bShFvWdFZgRCKiQgPiLncViuX2vrvD2/dv36kS+s7ZJfNkfxm3SLl7vLJ421OL1IiIBEACBxgmIudhVVtdvPFYwaNGhqLd2s/8GLTq08VhBZXV94wcW3cN5taxateqjjz4SfUA3DCCGNnt4qMUNZcAQIAACnibg8sXuq8u3umbuiX5rd/RPXol61I5+a3fXzD1fXb7l6cydV0v37t0HDx7s6XycGd9l2tzgUAuHAg0QAAH5EnDtYvfV5VsdZu6OnvnPmxXuroVtRM/c3WHmbk/bBWqR71llLzN8qb49MoiDgMoIuKCWyur6h/crdrzC2aVr5h73vjJ27Nixp556KiAgICYmZs2aNXy1fPjhh0OHDg0LC/P39+/atesHH3zAlSkqKor/i1bs7cvt27ffeOONHj16BAUFBQcHJyUl/f3vf+d28VzDBdpWyeCuxQoIVkEABORIwIWL3cZjBfwXwaxuWbjV6Ld2f3i8wF1z/u677wwGQ/v27d95552srCyj0dirVy+if15p+/Xr99vf/nbJkiUrVqwYMWIEEa1cuZI99M6dO9u2bdulSxf2Z3j37dvHMMyZM2diY2Nnzpy5du3auXPnRkZGhoSE3Lx5013Z2hvHBdpWQ0EtVkCwCgIgIEcCTb3YWSyWQYsOOamWQYsOues9Y2PGjNHr9T/++CMLMTc319fXl1OL1bcJjBw5MiYmhsMtfNZSW1vb0NDAdbh27VpAQMDcuXO5iIcaTaUtTANqETJBBARAQHYEmnqxu32vjrsvcaZx516d+DmbzWaDwfDSSy/xh0pOTubUwsUrKyvLysoWLFhARJWVlWxcqBauv9lsLi8vLysr69Wr15gxY7i4hxpNpS1MA2oRMkEEBEBAdgSaerErvH3fGaNwfQpv3xc/55KSEiLKzMzkD/X6669zajl+/PgzzzwTGBjIf6zC3eII1dLQ0LB48eKOHTuytz7sXkOHDuWP74l2U2kLc4BahEwQAQEQkB2Bpl7svHLX4lgtV65cCQgIiIuLW7NmzZdffrl//37WOteuXWNxC9WSlZVFRFOmTNm6dWtOTs7+/fuFfTxRqqbSFuYAtQiZIAICICA7Ak292HnlWYvjF8SWLFlCRNw9CsMwf/7zn4mIU0uPHj2sPtcSFxdndY8SGRlp1ccTpWoqbWEOUIuQCSIgAAKyI+DCxc4r7xBz8Bh/+fLlRHT9+nUWbmVlZUREBF8t/fv3j4uL46Pv27fvkCFDuMhf//pXIoJaOCCeauBzLZ4ii3FBQGYEXFCLM59r6TDz4Wfy3fi5lm+//Vav17dv337hwoXz5s3jv/n4+++/9/f379mz58qVKxcuXBgbGxsXF8dXy+9///tmzZplZWVt3br14MGDDMPMmjWLiH7729+uW7cuLS2tVatWMTExUIvHz02oxeOIcQAQkAcBF9TCMIwzn8Y/4u7vejly5MiTTz7p7+8v/Mjkrl27evXqpdfro6OjFy1a9OGHH/LVUlpa+txzzwUHB3O3JrW1tW+88UZERITBYEhISDh58uTgR4una+IabX5WeEGMTwNtEAABmRJw+WLn+DvE3O4VmeJrYlou0+aOA7VwKNAAARCQLwExF7vK6voPj1t/8/GHxwtMNVJ887F8mdrPTAxtdlSoxT5dbAEBEJANAfEXO4vFcufR77Xckfb3WmSDsAmJiKcNtTQBN7qCAAh4i4D4i523MlficcXThlqUWHfkDAKaIyD+Yqc5ZCImLJ421CICP3YFARCQioD4i51UmarhOOJpQy1qOA8wBxBQPQHxFzvVI3LjBMXThlrcWA4MBQIg4CkC4i92nspMjeOKpw21qPG8wJxAQHUExF/sVIfEgxMSTxtq8WB5MDQIgIC7CIi/2LkrEy2MI5421KKF8wRzBAHFExB/sVM8AgknIJ421CJduSwWy+1Hn9i6jU9sSUcdR1IJAfEXO5WAkGQa4mlDLVIUqrK6fuMx6++Z2HiswI3ftyrFNHAMEPAeARcvdte/bjxlZ/o0PorcewwePLh79+5OZukibd7o0qnl7t27s2bNGjlyZGhoKBF99NFHvDQeNnNzc0eOHBkUFBQaGjpx4sRbt25ZdRCuKuKbjx1/O95X7v7WVSElREBABQRcudgdWsDMbsEcW+xo+scWP+xzaIGjPkrbdvPmzdmzZ3/zzTf8xFWrlmvXrhFR+/bthwwZIlRLUVHRE088ERsbu2zZsvnz54eGhsbFxdXV1fHRCNvyV4sz3+kNuwgriwgIWBFoslquf/3QGew/e3ZhvcL2UdG9y5kzZ4TXWNWqpba2tqSkhGEYm9OePn26wWDgftpz//79RLR27Vqr08tqVeZqceaXiKLd/UtEVoiwCgLqINBktTDMw/sVB3ZxvFXJ1GxeY1WrFq5SNqfdpk2b1NRUrg/DMJ07d37mmWf4EWFb5mrxyu+nCikhAgIqIOCKWhzYxWNeqaqqSk9Pj4qK8vf3DwsLGz58+Llz5xiGYa/s33777aBBgwwGQ2xs7I4dOx7+WNlXX8XHx+v1+s6dO+/fv59fqfPnzyclJQUHBwcFBQ0bNuzkyZP8rVevXh03blxoaKjBYOjfv//u3bvZrYcPH6bHF/bpA5vApUuXhgwZYjAYfvGLXyxatIg/IL/tIm3eENI9a+EOKlTLjRs3iMhqnhMnTmzVqhW3l82GnNVisVgGLToU/dbuqMb+Rb+1e9CiQxaLxeYcEQQBEGAYxvWLndAiwoj7EL/88sv+/v5/+tOfNmzYsGjRopSUlL/85S+sWn7xi1+0a9cuIyNjxYoV3bp18/X13bZtW3h4+Jw5c5YuXRoZGRkSElJVVcXmcvHixaCgoIiIiKysrIULF3bo0CEgIOBvf/sbu7W0tNRoNAYHB7/99tuLFy+Oi4vz8fH5n//5H4ZhSktL586dS0RTp07d/Gi5evUqP4H09PQPPvhg2LBhRPR///d/NqfuOu2fhpOFWljZbNq06aesHv5vRkYGEdXW1vKDDMPU1taaflqKioqIqKKiokF+S1lVTaNS4Xcov1sjv0kgIxCQC4H79+9funSpurra4sJy9OdXxiwLo7hXySxHF7swmONdQkJCfv/73wv7DB48mIi2bNnCbsrLyyMiHx+fkydPspG9e/cS0Ycffsiujhkzxt/f/8qVK+zqzZs3g4ODBw0axK6mp6cT0dGjR9nVqqqqDh06REdHm81mi8Vy+vRp/lBsHzaBTz75hF2tra0NDw8fO3Ysu2r13+rq6kuXLt2/f19YfqsLsr1VWajl6NGjRLR9+3Z+lpmZmaw2+EGGYWbPnv343R7l5+eXyG859/11vjkabZ/7/rr8JoGMQEAuBAoLCy9cuFBVVVXv0mL+6j3OKGzD/NV7Lo3UyE5RUVFPPvnk9evXrfoNGjSoefPmdXV1XLxly5bdunXjVsvKyojoz3/+c319fU1NTWBg4Lhx47it9fX1//Zv/+bj41NeXl5fX9+pU6d+/frxt86bN4+Izp8/X19ff/LkSSLasGEDv4MwgV/96le9e/fm9+HaVVVVFy5cKCwsFJbf6oJsb1UWasFdS9Rbu3HXIvz7CBEQ4AiIumth/ybn368sjLL6O91dq9u2bdPr9T4+Pv369Zs1axZ32zF48OAuXbrwjxIVFZWUlMSPENGMGTMsFktxcTER/dd//Rd/65IlS4jowoULFoslICBg0qRJ/K07d+4koi+++MLBXYtVAq+88kp0dDR/EK6tkrsWPGvBsxZ7f/sgDgIsAbGv/vOfrzh+R7Jo4sXFxatWrfr1r38dGBio1+vZ5xnCN2hFRUU999xz/KOxamEYpqSkhIgyMzP5W5cuXUpEFy9eZBiGVQt/6//+7/8SEfswX/g8m3sfAX+XV155JSoqih/h2mJpM4ws7loYhgkLCxO+Q2zYsGHcVG025PwYn2EYvEPMZtUQBAEXCIi62PG9wrt3aeTTlC5k+fgu//jHPyIjIxMSEmxe2R2oxWw2BwYGjh8/nj/etGnTfHx8TCYT+wba+Ph4/taFCxey9zQMw5w9e9aZz7VoQi3Tpk0zGAyFhYUsrAMHDhDR6tWr+eyEbZmrxZnPtXTA51qEdUUEBAQEXFcL3yvsZyeFEcHhXAuYzebKykr+vv369XvqqaeaqhaGYcaMGRMQEHDt2jV2tNLS0hYtWgwaNIhd/eMf/0hEX3/9z6+xuXfvXkxMTHR0dENDA8Mw7HsElixZws9EeNukHrWsWLEiKytr+vTpRPTCCy9kPVrYShQWFrZu3To2Nnb58uULFiwIDQ3t2bOn8O1hfFIMw8hcLQ/ftH75VoeZu6Nn2n4LcvTM3R1m7j6C73qxqitWQUBAwEW12LOIvbjguE0KVFRUBAUFvfLKK4sXL163bt348eOJ6P3333dBLeybjyMjI+fPn79o0aKYmBjhm49DQkIyMzOXLFnSu3fvZs2asW8+Zhimvr6+ZcuWv/zlLzds2LB169aCggKbCahHLVFRUVZv7iIiTssXL14cMWJEYGBgy5YtJ0yYUFpa2mhR5a8W1i5dM/dEv7Wb/xkXdrVr5h54pdEqowMIuPi5Fsf+cLzVJeh1dXUZGRlxcXHs5xzj4uI++OADdiThTYODF8TYXc6fPz9y5MjmzZsHBgYOHTqUu0dht7IfmWzZsqVer4+Pj+c+Mslu/fzzz7t166bT6bhXxoQJqEct7Jzd+F9FqIVhmMrq+g+PW3/z8YfHC0w19W6kgaFAQMUEmnzXouHvEBN/GjSZtuCQXniML8jB9YBS1MLO0GKx3Hn0ey138Hstrtcce2qUgCsXO61+87H4U8QV2o8fFWp5nAfWQAAEZEnAxYudM99n7EwfWTLxXFIu0uYlBLXwYKAJAiAgVwLiL3ZynZkc8xJPG2qRY12REwiAgBUB8Rc7qwGx6oCAeNpQiwO82AQCICAXAuIvdnKZiRLyEE8balFCnZEjCGiegPiLneYRNgGAeNpQSxNwoysIgIC3CLAXu+rqam8loKnjVldX5+bm1tTUuDxrqMVldNgRBEBAOgIPHjzIzc3lfilLugNr8khVVVW5ubkPHjxwefZQi8vosCMIgIB0BCwWy+XLl2/cuCHdITV8pBs3bly+fFnMT99CLRo+fTB1EFAUgYqKitzc3LKysurq6hosniFQXV1dVlaWm5tbUVEh5uyAWsTQw74gAALSEWB/IysvLy8XiycJ5OXlFRcXi7llYbzyey1uPBOV9UUvbpw4hgIBzRIwm82e+Xsdo/6TgNlsFn924a5FPEOMAAIgAAIg8BgBqOUxHFgBARAAARAQTwBqEc8QI4AACIAACDxGAGp5DAdWQAAEQAAExBOAWsQzxAggAAIgAAKPEYBaHsOBFRAAARAAAfEEoBbxDDECCIAACIDAYwSUrRaLxWIymUR+tOcxHlgBARAAARAQTUDZahE9fQwAAiAAAiDgfgJQi/uZYkQQAAEQ0DgBqEXjJwCmDwIgAALuJwC1uJ8pRgQBEAABjROAWjR+AmD6IAACIOB+AlCL+5liRBAAARDQOAGoReMnAKYPAiAAAu4nALW4nylGBAEQAAGNE/h/pqrwpErdAwsAAAAASUVORK5CYII=;" parent="1" vertex="1">
          <mxGeometry x="40" y="600" width="347.01" height="210" as="geometry" />
        </mxCell>
        <mxCell id="cyDXjY6HerALDzwMRZeK-36" value="" style="shape=image;verticalLabelPosition=bottom;labelBackgroundColor=default;verticalAlign=top;aspect=fixed;imageAspect=0;image=data:image/png,iVBORw0KGgoAAAANSUhEUgAAAh4AAAFICAIAAACQnmBqAAAAAXNSR0IArs4c6QAAIABJREFUeAHtnQ18TFf+/78mk8xMHoVGkg0SgnooaWzDSpRSJdFGdYk+eGiXvpS1VruVZdefqJTy69azem67bINV21/RXwhtSdBF1baIioo2QbKEZBLyOJnzf3HX3WtmMjOZOw937v3cV1/23HPPOfd73t/Z+54z986EGDYQAAEQAAEQcCoBcupoGAwEQAAEQAAEGNSCFwEIgAAIgICTCUAtTgaK4UAABEAABKAWvAZAAARAAAScTABqcTJQDAcCIAACIAC14DUAAiAAAiDgZAJQi5OBYjgQAAEQAAGoBa8BEAABEAABJxPwbrUYjUa9Xm80Gp1MBcOBAAiAAAiIIODdatHr9USk1+tFEEBXEAABEAABJxOAWpwMFMOBAAiAAAhALXgNgAAIgAAIOJkA1OJkoBgOBEAABEAAasFrAARAAARAwMkEoBYnA8VwIAACIAACUAteAyAAAiAAAk4mALU4GSiGAwEQAAEQgFrwGgABEAABEHAyAajFyUAxHAiAAAiAANSC1wAIgAAIgICTCbhVLQUFBc8//3xUVJROp3v44YffeuutO3fu8BM6evRoUlKSTqcLDw+fPn16VVUVf6ipAn7opSkyqAcBEAABDxJwn1qKiopatmwZHR39zjvvrF+//pVXXiGiESNGcJM/ffq0VquNj49fu3btnDlzNBpNcnKyTS5Qi01EaAACIAAC7ifgPrUsXLiQiM6ePctPcsKECUR069YtxlhKSkpkZCT/Q5MbN24kov379/ONLRagFotYUAkCIAACniXgPrXMmjWLiG7cuMFPeNasWSqV6vbt23q9Xq1Wp6en84fq6uoCAwMnTZrE11gsQC0WsaASBEAABDxLwH1qyc7O5j4BO336dFFR0fbt24ODg19//XXG2JEjR4hox44dQhb9+/fv3bu3sMa8DLWYM5F3jdFovN38DX/RR96vCsxOggTcpxbGWGZmpk6no/vbnDlzOCI7d+4kotzcXCGgtLS0iIgIYQ1Xrq2t1d/fiouLiai8vLwRmwIIGAyGpKQkVfO3/v37GwwGBRDCFEHA5QTMr8kWa9yqlq1btw4bNmzDhg27du2aOHFiixYtVq1axRjbsmULER0/flwY4vjx40NCQoQ1XDkjI+O+m/7zvwUFBSXYFEDg2rVrEyZMSGj+NmHChGvXrimAEKYIAi4nYH5NtljjPrVs27ZNp9MVFxfzcbzyyiv+/v5lZWVYtbj8nYZcTmAwGCotbZ999plKperZs6elg5VYssgl/5iH5wnwF3DrBfep5fHHH09MTBRG849//IOIDhw4gHstQiwoO0DgwIEDRNSzZ08H+qILCICA0wm4Ty1dunTp27evcAI7duwgouzs7IqKCotPiE2cOFHY3ryM2/jmTJRZA7UoM++YtWQJuE8tzzzzjJ+f34ULF3gWI0eOVKlUV69eZYwlJydHRkZWVlZyRzdt2sRZh29ssQC1WMSiwEqoRYFJx5SlTMB9ajl8+LCPj0+bNm0WLFiwZs2alJQUInr11Vc5OqdOndJoNPy38bVa7dChQ22Cg1psIlJIA6hFIYnGNL2FgPvUwhg7fvx4SkpKRESEr69vly5dFi5c2NDQwJPKy8tLTEzUarVhYWHTpk3jVzB8A/MC1GLORJk1UIsy845ZS5aAW9XidApQi9OReumAUIuXJg5hy5UA1CLXzCprXlCLsvKN2UqeANQi+RQhQDsIQC12QEITEHAfAajFfaxxJtcRgFpcxxYjg4ADBKAWB6Chi+QIQC2SSwkCUjYBqEXZ+ZfL7KEWuWQS85AJAahFJolU+DSgFoW/ADB9qRGAWqSWEcTjCAGoxRFq6AMCLiMAtbgMLQZ2IwGoxY2wcSoQsE0AarHNCC2kTwBqkX6OEKGiCEAtikq3bCcLtcg2tZiYdxKAWrwzb4j6QQJQy4M8sAcCHiYAtXg4ATi9UwhALU7BiEFAwFkEoBZnkcQ4niQAtXiSPs4NAmYEoBYzJKjwQgJQixcmDSHLmQDUIufsKmduUItyco2ZegUBqMUr0oQgbRCAWmwAwmEQcC8BqMW9vHE21xCAWlzDFaOCgIMEoBYHwaGbpAhALZJKB4IBAagFrwE5EIBa5JBFzEFGBKAWGSVTwVOBWhScfExdigTcp5aXX36ZLG1XrlzhwBw9ejQpKUmn04WHh0+fPr2qqsomML1eT0R6vd5mSzSQNwGoRd75xey8joD71HLs2LGtgm3Lli3+/v7du3fnkJ0+fVqr1cbHx69du3bOnDkajSY5OdkmTajFJiKFNIBaFJJoTNNbCLhPLSZE8vLyiGjhwoVcfUpKSmRkJL/+2LhxIxHt37/fpJfJLtRiAkSxu1CLYlOPiUuTgMfUMnXq1BYtWly+fJkxptfr1Wp1eno6z6iuri4wMHDSpEl8jcUC1GIRiwIroRYFJh1TljIBz6ilvr6+devWSUlJHJojR44Q0Y4dO4Sk+vfv37t3b2GNeRlqMWeizBqoRZl5x6wlS8AzatmzZw8Rvf/++xyXnTt3ElFubq4QU1paWkREhLCGK9fW1urvb8XFxURUXl7eiE3ZBHJyclQqVVxcnLIxYPYg4HIC5tdkizWeUcuLL77o6+tbVlbGxbRlyxYiOn78uDDE8ePHh4SECGu4ckZGhsmDZgUFBSXYlE0gOzs7ISFh9OjRysaA2YOAywmYX5Mt1nhALVVVVf7+/s888wwfEFYtLn+nIfcTYNUi9wxjflIhwF+3rRc8oJatW7cS0bZt2/jIcK+FR4GCYwRwr8UxbugFAi4i4AG1JCcnBwYG3rlzh59SRUWFxSfEJk6cyLexWMBtfItYFFgJtSgw6ZiylAm4Wy3Xr19Xq9Xjx483gZKcnBwZGVlZWcnVb9q0iYiys7NNmpnsQi0mQBS7C7UoNvWYuDQJuFstq1atIqJ9+/aZ4Dh16pRGo+G/ja/VaocOHWrSxnwXajFnoswaqEWZecesJUvA3Wr51a9+1aZNG4PBYE4kLy8vMTFRq9WGhYVNmzaNX8GYt+RroBYehcILUIvCXwCYvtQIuFstzp0/1OJcnt47GtTivblD5LIkALXIMq2KmxTUoriUY8LSJgC1SDs/iM4+AlCLfZzQCgTcRABqcRNonMalBKAWl+LF4CDQXAJQS3OJob0UCUAtUswKYlIwAahFwcmX0dShFhklE1ORAwGoRQ5ZxBygFrwGQEBSBKAWSaUDwThIAGpxEBy6gYBrCEAtruGKUd1LAGpxL2+cDQRsEIBabADCYa8gALV4RZoQpHIIQC3KybWcZwq1yDm7mJsXEoBavDBpCNmMANRihgQVIOBJAlCLJ+nj3M4iALU4iyTGAQGnEIBanIIRg3iYANTi4QTg9CDwIAGo5UEe2PNOAlCLd+YNUcuWANQi29QqamJQi6LSjclKnwDUIv0cIULbBKAW24zQAgTcSABqcSNsnMplBKAWl6HFwCDgCAGoxRFq6CM1AlCL1DKCeBROAGpR+AvAadM/ceLEtGnTunfv7u/v365du7S0tAsXLpiPvmbNGiLq06eP+SExNVCLGHroCwJOJwC1OB2pQgccNWpURETE9OnTN27cmJmZGR4eHhAQcObMGRMciYmJfn5+RHTx4kWTQ2J2oRYx9Cz0/emYhUqTKnvamHTBrmIIQC2KSbWLJ3r06NG6ujr+JAUFBRqNZuzYsXwNY6ywsJCIFixY4OvrO3/+fOEhkWWoRSTAB7p/uYhlBLO8pQ9UmuzkLb3b5stFJtXYBQGOgLvVcurUqdTU1NDQUJ1O16NHjxUrVvCZOHr0aFJSkk6nCw8Pnz59elVVFX+oqYJerycivV7fVAPUe5BA73ubMIDMzEwfH5/S0tLhw4d37txZeCglJSU6OlpYYzQa4+Pj+/fvL6xsqgy1NEWm2fU/HbvrDO6/puzCeYVrg7VLsxErooNb1bJ//34/P7++ffsuXbp0w4YNs2bNSk9P5zCfPn1aq9XGx8evXbt2zpw5Go0mOTnZZgagFpuIPNXAaDRGRUUNHTpUGEDXrl0HDRrEGPvoo4+I6MSJE/zRefPmEdGtW7f4mqysLCI6cuQIX2OlALVYgdPsQ0JzmNvF+tFmnwwd5EnAfWrR6/Xh4eHPPfdcY2OjOcuUlJTIyEh+/bFx40Yi2r9/v3lLYQ3UIqQhqfLWrVuJaPPmzXxU33zzDRGtW7eOMVZRUeHn5zdjxgz+6O7du4noiy++4Grq6+tjY2NTU1P5BtYLUIt1Ps0+2pQ/mqpv9gnQQeYE3KeWtWvXElF+fj5j7Pbt20LB6PV6tVrNr2AYY3V1dYGBgZMmTbKOH2qxzsdTR8+fPx8cHNyvXz+DwcDH8MYbb6jV6hs3bnA1I0aMCA8P5xuUlJQQ0bvvvssdXb16tUqlMn8KgB/NpAC1mABxwq65RcxrnHAaDCFPAu5Ty6hRo4KDgw8cONClSxciCggImDJlSk1NDWPsyJEjRLRjxw4h4/79+/fu3VtYY16GWsyZeLympKSkY8eO7dq1u3r1Kh+MwWCIjIwUfj728ccfmyxMo6KiXnrpJe6dR3h4+IQJE/juNgtQi01EjjQQumRxtO17MI6cA33kScB9aunVq5f/vW369Om7du2aPn06Eb3wwguMsZ07dxJRbm6ukHFaWlpERISwhivX1tbq72/FxcVEVF5e3ohNGgRu3br16KOPtmrV6syZM8KI9u3bR0QbN27kK/V6vU6nGz9+PF/z7LPPduvWrbGx8a233vLz8yssLOQP2Szk5OSoVKq4uDibLdGgeQRy3/uvUe7dt2/Mfa95I6C1vAiYX5Mt1rhPLR07diSiKVOm8HG89tprRFRQULBlyxYiOn78OH+IMTZ+/PiQkBBhDVfOyMigB7eCgoISbBIgcPny5b59++p0uj179piEM2bMGF9f3/Pnzwvrn3766cDAwMLCQq5y9uzZKpXq5MmTQUFBr776qrClzXJ2dnZCQsLo0aNttkSD5hJoXNSet0vjovbN7e7+9oWFhadPn3b/eRVyRvNrssUa96mlR48eRHT48GE+jsOHDxPRX//6V6xaZPC2pr6+PjU1Va1W79mzx2Q6t2/fDgoKSklJManftm0bEWVlZXH12dnZRJSUlBQUFFRaWmrS2PouVi3W+Th+1NtWLQ0NDaGhodxbVcdnjZ5NE+Av4NYL7lPLU089RUQ//PADH9D58+eJaPny5bjXwjPx3sKMGTOIKDU1deuDG2Ns+/btRDR8+PB3Htzmzp3LdeFmffPmTW456sC3KXGvxSWvHC+817Jr1y7uVfTMM8+4hAkGtY+A+9Qye/Zs4dOljLEvvviCiD7++OOKigqLT4hNnDjR+ixwG986H3ceHThw4IOfU/5njzGWmppq8RBX6evrW1ZWxoUaExMTFhZmz7dlTaYGtZgAccKu0Cvct1vMa5xwGmcO0djY2KtXL+515ePj49wfE3JmoAoYy31q+fbbb4mIewSIA/viiy+q1WruOaLk5OTIyMjKykru0KZNm4goOzvbegqgFut8vOvopUuXfHx8hD/QYH/8UIv9rOxq2ZRFmqq3a1CXN+KWLC1atODs8vLLL7v8lDhBEwTcpxbG2MSJE4lozJgxa9asSUtLI6I//elPXGCnTp3SaDT8t/G1Wq3wQdUmgmdQS1NkvLF+zJgxsbGxwh8is38WUIv9rGy3tO4P60dtj+6qFvySJSgoCAsXV1G2e1y3qqW+vn7+/PnR0dG+vr6dOnVatmyZMM68vLzExEStVhsWFjZt2jR+BSNsY1KGWkyAeONueXl5VlbW5MmTW7RosW/fPsemALU4xs1CL6/9DTFuyRIcHBwZGck9D0JEWLhYSLFbqtyqFqfPCGpxOlL3D/jJJ58QUdu2bTds2ODw2aEWh9FZ6OiFv3zML1nmzp0bFRXFPXpKRLjjYiG/bqmCWtyCGSdxMQGoxcmA7fk9Y3vaODmsJof78ccfiSg4OPjmzZucWk6dOjV8+HAiWrrU6l8HaHJIHBBFAGoRhQ+dJUIAapFIIjwVhtFoXLly5aFDhxhjvFpKSkrmzZt3/fp1T0Wl5PNCLUrOvnzmDrXIJ5eiZ8KrRfRIGMBxAlCL4+zQUzoEoBbp5MLjkUAtHk8BYwxqkUIWEINYAlCLWIIy6g+1SCGZUIsUsoAYxBKAWsQSlFF/qEUKyYRapJAFxCCWANQilqCM+kMtUkgm1CKFLCAGsQSgFrEEZdQfapFCMqEWKWQBMYglALWIJSij/lCLFJIJtUghC4hBLAGoRSxBGfWHWqSQTKhFCllADGIJQC1iCcqoP9QihWRCLVLIAmIQSwBqEUtQRv2hFikkE2qRQhYQg1gCUItYgjLqD7VIIZlQixSygBjEEoBaxBKUUX+oRQrJhFqkkAXEIJYA1CKWoIz6Qy1SSCbUIoUsIAaxBKAWsQRl1B9qkUIyoRYpZAExiCUAtYglKKP+UIsUkgm1SCELiEEsAahFLEEZ9XdMLWvWrCGiPn36yIiE7amcOHFi2rRp3bt39/f3b9euXVpa2oULF0y61dbW/vGPf4yMjNRqtX369MnJyTFpYHEXarGIxSWVRqPx5u26opt3bt6uMxqNLjmHUgeFWpSaeQvzdkwtiYmJfn5+RHTx4kULg8q0atSoUREREdOnT9+4cWNmZmZ4eHhAQMCZM2eE033hhRfUavXMmTPXr1/fr18/tVqdl5cnbGCxDLVYxOLkyorq+s15hQOWfBk9ay/334AlX27OK6yornfymZQ6HNSi1MxbmLcDaiksLCSiBQsW+Pr6zp8/38KgMq06evRoXV0dP7mCggKNRjN27Fi+5vjx40T07rvvcjU1NTWxsbH9+vXjGzRVcJ9avvrqKzLbvv76az6yo0ePJiUl6XS68PDw6dOnV1VV8YeaKuj1eiLS6/VNNZBC/aEL17vNzY6ZtTfmvlei75VjZu3tNjf70AX8dVUnZAlqcQJEuQzhgFoyMzN9fHxKS0uHDx/euXNnIYmUlJTo6GhhjdFojI+P79+/v7BSNuXe9zZ+Ounp6T4+PsJr7KJFi4ioqKiIb2Ox4G61/P73v98q2G7cuMGFdfr0aa1WGx8fv3bt2jlz5mg0muTkZIsRCyulr5ZDF653mL03ZvZ/Fiv8qoUrxMze22H2XthFmFPHylCLY9xk2csBtXTt2nXQoEGMsY8++oiITpw4wZOZN28eEd26dYuvycrKIqIjR47wNRIp1NfX37C6NTY2Wg/VaDRGRUUNHTqUbzZkyJBu3brxu4yxgwcPEtHu3buFleZld6tl586d5kEwxlJSUiIjI3k3bty4kYj2799vsTFfKXG1VFTX312vNOEV3i7d5mbjkzE+p44VoBbHuMmyV3PV8s033xDRunXrGGMVFRV+fn4zZszgyezevZuIvvjiC66mvr4+NjY2NTWVbyCdgsVPhoQfFV2+fNl6tFu3biWizZs388169OgxePBgfpcxdu7cOR6XsN6k7AG1VFZWNjQ0COPQ6/VqtTo9PZ2vrKurCwwMnDRpEl9jsSBxtWzOKxR+CGayZOF3Y2bt/eBIocUJotJOAlCLnaCU0Ky5annjjTfUajX/CcqIESPCw8MNBgPHqqSkRHizYfXq1SqVyuRGt3uoElFxcbGVc926deuA1a2mpsZK9/PnzwcHB/fr14+fO2OsY8eOKSkpwl6XLl0iomXLlgkrzcvuVktgYCAR+fj4PPHEEydPnuQCOnLkCBHt2LFDGF///v179+4trDEvS1ktRqNxwJIv7VTLgCVf4pkx8/zaXwO12M9K9i2bpRaDwRAZGSn8COjjjz82+cgkKirqpZdeYozdvn07PDx8woQJ7mEYHR0tfBbLplrERFVSUtKxY8d27dpdvXpVOI4XrFqOHj06atSozZs3f/bZZ++8807r1q21Wu23337LGNu5cycR5ebmCqeUlpYWEREhrOHKtbW1+vtbcXExEZWXlzdKb7tRWcOvS+wplFXVSG8SXhNRTk6OSqWKi4vzmogRqMsIcGo5efKkPWfYt28fEW3cuJFvrNfrdTrd+PHj+Zpnn322W7dujY2Nb731lp+fX2FhIX/IpYXo6OjDhw/zpyCin3/+md81L9TU1Fy1utXX15v3amxsvHXr1qOPPtqqVaszZ86YNHjyySe5ufP1krvXYiKJixcv6nS6YcOGMca2bNlCRMePHxe2GT9+fEhIiLCGK2dkZAg/PSSigoKCEultp374yR6j8G1O/fCT9CbhNRFlZ2cnJCSMHj3aayJGoC4jEBkZyS077DnDmDFjfH19z58/L2z89NNPBwYGFhYWcpWzZ89WqVQnT54MCgp69dVX+ZZXr16dNGlSaGhocHBwXFzc2bNnuU/PFi1a1LZt2+Dg4CVLluzevbtz584hISHp6elcx0OHDvXp0yc4OLhnz56fffZZU5UvvfRSixYttFqtv7//6tWruZEXL17crl270NDQP/3pT3wYfGHXrl0m10aT3RMnTvCN+cLly5f79u2r0+n27NnDV/KFqVOn+vj4CK+xCxculNYTYuaSeOGFF/z8/AwGA1Yt0bP2YtXCvy1yoIBViwPQ5NrF/lXL7du3g4KCUlJSTFBs27aNiLKysrj67OxsIkpKSgoKCiotLeUbf/7557/85S/Ly8vr6+tPnjyp1+sbGxuJaMyYMVVVVQcPHtRqtc8999yNGzfOnTun1WovXrxYU1PToUOH5cuX19bWZmVlhYaGlpWVWaxsbGw0X7WMGjVKr9d/9913Go2moKCAj4QrlJWV7be63blzx6RLfX19amqqWq3es2ePySFu99ixY0T0P//zP9xudXV1p06d+vbta349N6lx370WkxMzxtLT07lvpeBeC+61mL88mlWDey3NwiXvxvbfa9m+fTsRDR8+/J0Ht7lz5xIR/xjYzZs3ubf/Jt+mPHjwYJcuXY4fPy68UUpEp06d4gi3adNm165dXLlPnz6ffvppbm6u8Fsyv/rVr7KysixWMsbM77V888033GgJCQmffvqp+DzOmDGDm6ngKyF3i8KR09LSuMes1q9fn5iYqFarDx8+LGxgsexJtYwaNUqr1TY2NlZUVFh8QmzixIkWg+YrpXwbnzGGJ8T4TLm6ALW4mrAXjW+/WlJTU00+MhLu+vr6lpWVcROPiYkJCwsz/x730qVL4+LiwsPD33zzzfr6uz+uIbzZLnTDwIEDt27dun37duF3LZ9//vm//OUvFistqoV/QowbTXxSBg4cKJwyXxaOXFNTM3PmzIiICI1Gk5CQsG/fPuHRpsruU8v16w987fxf//qXr6/viBEjuMiSk5MjIyMrKyu53U2bNhFRdnZ2U3Fz9RJXiz3fa+kw++538vG9FuuJtnkUarGJSDkN7FeLnUwuXbrk4+OzYsWKptoXFRU98sgjH374oU21mCxQ+vXrZ75q4SoZYzExMU09IeYstTQ1I/H17lPLoEGDhg8f/vbbb2/YsOH111/39/cPCQnJz8/n5nDq1CmNRsN/G1+r1QofB2xqnhJXC2PMnm/jH8ZvvTSVYLvroRa7Ucm/odPVMmbMmNjYWOFvbXEQT548eeLEiYaGhvLy8vj4+C1btthUS11dXXR09KpVqxoaGv7+97+3bNny1q1bFisZY3369BF+NiVcD0Et/30dr1ixok+fPq1atVKr1ZGRkePGjTP5hdG8vLzExEStVhsWFjZt2jR+BfPfIcxK0lcLZxcrvyEGr5hl1ZEKqMURajLt4yy1lJeXZ2VlTZ48uUWLFhY/BTp48OAjjzwSEBDQpk2b3/3ud9w3DYUCMP9AjDH23XffJSYmBgcHx8fH89+4sFi5a9euqKiokJCQjz/+2ERaUItrX7xeoZa7vx5RXf/BEdNfPv7gSKG+Br987JxXCNTiHI6yGMVZavnkk0+IqG3bths2bJAFGLdOwn0fiLliWt6iFm7uRqPx1r2/13ILf6/F2a8GqMXZRL14PGepxYsRSCB0qEUCSUAIoglALaIRymcAqEUKuYRapJAFxCCWANQilqCM+kMtUkgm1CKFLCAGsQSgFrEEZdQfapFCMqEWKWQBMYglALWIJSij/lCLFJIJtUghC4hBLAGoRSxBGfWHWqSQTKhFCllADGIJQC1iCcqoP9QihWRCLVLIAmIQSwBqEUtQRv2hFikkE2qRQhYQg1gCUItYgjLqD7VIIZlQixSygBjEEoBaxBKUUX+oRQrJhFqkkAXEIJYA1CKWoIz6Qy1SSCbUIoUsIAaxBKAWsQRl1B9qkUIyoRYpZAExiCUAtYglKKP+UIsUkgm1SCELiEEsAahFLEEZ9YdapJBMqEUKWUAMYglALWIJyqg/1CKFZEItUsgCYhBLAGoRS1BG/aEWKSQTapFCFhCDWAJQi1iCXt7/5s2bMTEx48aNY4zxasnKygoMDMzOzvbyyXll+FCLV6YNQZsQgFpMgChtt6ysTK1WE1FeXh6nlqNHj0ZGRhLR3/72N6XRkMJ8oRYpZAExOETgp2N8tybVImjDN0ZBlgQmT55MREOGDOHUMnPmTCJq165dXV2dLOcr8UlBLRJPEMJrgsCXi1hGMMtbyh22rJa8pXfbfLmoiSFQLSsCP/30E7dweeihh4iI+3fdunWymqT3TMYzann77beJqEePHkJQR48eTUpK0ul04eHh06dPr6qqEh61WNbr9USk1+stHkWlbAn8dOyuM7j/7tnFglo4r3BtsHaR7UvhgYlxCxeNRkP3NixZHqDj3h0PqKW4uNjf3z8gIEColtOnT2u12vj4+LVr186ZM0ej0SQnJ9tEAbXYRCTbBkJz5C01VcuDR2ULARN7kAC/cOHUgiXLg3jcumdbLQMGDPj666+dGNTzzz8/ePDggQMHCtWSkpISGRnJrz82btxIRPv377d+XqjFOh+ZHxX4o+DD3xJRz549705ZUM9/YiZzFJjefQLcwoWIwsPDcZdfHhc9AAAgAElEQVTlPhUP/K9ttcTHx6tUqpEjR+bn54sP8PDhwz4+Pt9//71QLXq9Xq1Wp6en8+PX1dUFBgZOmjSJr7FYgFosYlFQpcAif0zyu6sWQQ28oqBXwv2p/vTTT9ySZe7cuffr8L8eIGBbLYyxrKysTp06qdXq3/zmN0VFRQ6HaTAYevXq9dprrzHGhGo5cuQIEe3YsUM4cv/+/Xv37i2sMS9DLeZMFFcjcEn57JYm92AURwMTZuy3v/3tY489VltbCxgeJGCXWhhjDQ0Nq1evjoiI0Gq1f/jDH8rKyhwIevXq1SEhIdevXzdRy86dO4koNzdXOGZaWlpERISwhivX1tbq72/FxcVEVF5e3ohNyQRy3/uvUe7dt2/MfU/JPDB3EHAdAfNrssUae9XCdb5z586CBQtC7m2ZmZl37tyxOKjFyrKyslatWv3lL3/hjgpXLVu2bCGi48ePCzuOHz8+JCREWMOVMzIyuAUv/29BQUEJNmUTqMv8BW+XxkXtlQ0DswcBFxIwvyZbrGmeWrghioqK+vfvr1KpwsPDV69e3dDQYHFok8opU6Z06tSJv7EmVAtWLa57i6GIkbFqUUSaMUlJEDC5sDe1a5daKioqvvrqq/fee2/cuHE9evRQq9Ut7m0dOnRQq9WdO3c+cOBAUyfg6gsKClQq1cqVKy/f3/r27dulS5fLly/fvHkT91qs08NRawRwr8UaHRwDAc8QsK2WmJgY1b2tRYsWbdu2fe655xYtWpSTk3Pr1i3G2KVLl8aMGePj47N582YrM/jqq6/4z69MCjNmzKioqLD4hNjEiROtjMkYw21863zkf1TgFTwhJv90Y4beQ8C2WlJSUjIyMvbs2VNaWtrUvCZPnty+ffumjjLGbty48emDW48ePdq3b//pp59+//33jLHk5OTIyMjKykpukE2bNhGRzZ8shVqsMJf/IYFX8L0W+acbM/QqArbVYs90srKyWrRoYU9Lvo3wXgtj7NSpUxqNhv82vlarHTp0KN+4qQLU0hQZ+dcLvMLwbXz55xsz9DICzlFLRUXFrl27mjV1E7Xc/Q51Xl5iYqJWqw0LC5s2bRq/grEyLNRiBY6cD+E3xOScXcxNDgScoxZPkYBaPEXe8+fFLx97PgeIAASaJAC1NIkGB6ROQPB7xqY/T8mHLmjD16EAAiDgagJQi6sJY3x3EGhSLe44Oc4BAiBgSgBqMSWCfW8kALV4Y9YQs4wJQC0yTq6Cpga1KCjZmKo3EIBavCFLiNEWAajFFiEcBwG3EoBa3IobJ3MRAajFRWAxLAg4RgBqcYwbekmLANQirXwgGsUTgFoU/xKQBQCoRRZpxCTkQwBqkU8ulTwTqEXJ2cfcJUgAapFgUhBSswlALc1Ghg4g4EoCUIsr6WJsdxGAWtxFGucBAbsIQC12YUIjiROAWiSeIISnNAJQi9IyLs/5Qi3yzCtm5bUEoBavTR0CFxCAWgQwUAQBzxOAWjyfA0QgngDUIp4hRgABJxKAWpwIE0N5jADU4jH0ODEIWCIAtViigjpvIwC1eFvGEK/MCUAtMk+wQqYHtSgk0ZimtxCAWrwlU4jTGgGoxRodHAMBtxOAWtyOHCd0AQGoxQVQMSQIOE7AfWo5e/bs6NGjO3TooNPpWrdu/fjjj+/evVsYeH5+/rBhwwICAkJDQ8eNG3f9+nXhUYtlvV5PRHq93uJRVCqHANSinFxjpl5BwH1q+fzzz4cNGzZ//vwNGzYsX7788ccfJ6L169dzmIqLix966KHY2NgVK1YsXLgwNDQ0Li6urq7OOkSoxTof5RyFWpSTa8zUKwi4Ty0mOAwGQ1xc3MMPP8zVT506VafT/fzzz9wud6XgxWPSl9+FWngUCi9ALQp/AWD6UiPgMbUwxp555pnw8HCOSJs2bdLS0oR0unTp8uSTTwprzMtQizkTZdZALcrMO2YtWQLuVsvt27dv3Ljx448/Ll261MfH56WXXmKMXblyhYiWLFkixDRu3LhWrVoJa8zLUIs5E2XWQC3KzDtmLVkC7lbLa6+9Rvc2lUo1evToW7duMcZOnjxJRFu2bBFiSk9PJ6La2lphJWOstrZWf38rLi4movLy8kZsyiaQk5OjUqni4uKUjQGzBwGXEzC5IDe16261nD9//sCBA3/961+ffvrp5557rrS0lDGWm5tLRDt27BBGOXfuXE4bwkrGWEZGBicn/t+CgoISbMomkJ2dnZCQMHr0aGVjwOxBwOUETC7ITe26Wy3COJ566qmEhASj0YhVi8vfacj9BFi1yD3DmJ9UCAiv4VbKnlTL+vXrieiHH37AvRYrGcIhewjgXos9lNAGBNxGwJNqWb58OREdP36cMRYWFmb+hNjgwYOtg8BtfOt8lHMUalFOrjFTryDgPrX8+9//FhKpr6/v3bu3TqerqqpijE2ZMkWn0xUVFXFtDh48SERr164VdjEvQy3mTJRZA7UoM++YtWQJuE8tI0eOHDx48Pz58zdu3JiZmdm1a1cieu+99zg0RUVFrVu3jo2NXbly5aJFi0JDQ3v27Gn+eJgJR6jFBIhid6EWxaYeE5cmAfepZdu2bUOGDAkPD1er1aGhoUOGDPnss8+EUM6ePTt06FB/f/+WLVuOHTuWe3hM2MC8DLWYM1FmDdSizLxj1pIl4D61uAIB1OIKqt44JtTijVlDzDImALXIOLkKmhrUoqBkY6reQABq8YYsIUZbBKAWW4RwHATcSgBqcStunMxFBKAWF4HFsCDgGAGoxTFu6CUtAlCLtPKBaBRPAGpR/EtAFgCgFlmkEZOQDwGoRT65VPJMoBYlZx9zlyABqEWCSUFIzSYAtTQbGTqAgCsJQC2upIux3UUAanEXaZwHBOwiALXYhQmNJE4AapF4ghCe0ghALUrLuDznC7XIM6+YldcSgFq8NnUIXEAAahHAQBEEPE8AavF8DhCBeAJQi3iGGAEEnEgAanEiTAzlMQJQi8fQ48QgYIkA1GKJCuq8jQDU4m0ZQ7wyJwC1yDzBCpke1KKQRGOa3kIAavGWTCFOawSgFmt0cAwE3E4AanE7cpzQBQSgFhdAxZAg4DgBqMVxdugpHQJQi3RygUhAgDEGteBl4BwCJ06cmDZtWvfu3f39/du1a5eWlnbhwgXzodesWUNEffr0MT8kpgZqEUMPfUHA6QSgFqcjVeiAo0aNioiImD59+saNGzMzM8PDwwMCAs6cOWOCIzEx0c/Pj4guXrxockjMLtQihh76goDTCbhPLTbf1ebn5w8bNiwgICA0NHTcuHHXr1+3OVu9Xk9Eer3eZks0cDWBo0eP1tXV8WcpKCjQaDRjx47laxhjhYWFRLRgwQJfX9/58+cLD4ksQy0iAaI7CDiXgPvUYv1dbXFx8UMPPRQbG7tixYqFCxeGhobGxcUJL1UWpw21WMQikcre9zZhMJmZmT4+PqWlpcOHD+/cubPwUEpKSnR0tLDGaDTGx8f3799fWNlUGWppigzqQcAjBNynFuvvaqdOnarT6X7++WeOAnelWL9+vXUoUIt1Ph48ajQao6Kihg4dKoyha9eugwYNYox99NFHRHTixAn+6Lx584jo1q1bfE1WVhYRHTlyhK+xUoBarMDBIRBwPwH3qcV8bsJ3tW3atElLSxO26dKly5NPPimsMS9DLeZMJFKzdetWItq8eTMfzzfffENE69atY4xVVFT4+fnNmDGDP7p7924i+uKLL7ia+vr62NjY1NRUvoH1AtRinQ+OgoCbCXhMLcJ3tVeuXCGiJUuWCCc/bty4Vq1aCWvMy1CLORMp1Jw/fz44OLhfv34Gg4GP54033lCr1Tdu3OBqRowYER4ezjcoKSkhonfffZc7unr1apVKZf4UAD+aSQFqMQGCXRDwLAGPqUX4rvbkyZNEtGXLFiGL9PR0IqqtrRVWMsZqa2v197fi4mIiKi8vb8QmGQJXr17t2LFju3btiouL+aDq6+sjIyOfeuopvoZ7AWRnZ/M1UVFRL774YmNjY2VlZXh4+Pjx4/lDNgs5OTkqlSouLs5mSzQAARAQQ8DkgtzUrmfUYvKuNjc3l4h27NghjHLu3LmcNoSVjLGMjAx6cCsoKCjBJg0CFy5ceOSRR0JDQw8dOiSMaPv27US0dOlSvvLHH3/UarVpaWl8TXJycufOnUtKStLT0/38/E6cOMEfslnIzs5OSEgYPXq0zZZoAAIgIIaAyQW5qV0PqKWkpIR7V3v16lUuLKxaxLyJkE7fO3fuPP744/7+/keOHDGJasKECb6+vmVlZcL6X//610FBQbdv3+Yq3377bZVKdfny5eDg4N///vfCljbLWLXYRIQGIOAUAk25xKTe3WqpqKh49NFHW7Vqde7cOT4U3GvhUXhvwWAwjBgxQq1Wf/755yazqK6uDgoKGj58uEn9jh07iGj79u1c/f79+4koKSkpKCjInm81CUfDvRYhDZRBwOME3KqWmpoa7l3tsWPHTGYeFhZm/oTY4MGDTZqZ7OI2vgkQD+7OmDGDiFJTU7c+uDHGuE/Dhg8f/s6DG/eZJ/8Y2M2bN7lPOh34NiXU4sHU49QgYE7AfWqx8q6WMTZlyhSdTldUVMSFePDgQSJau3atecTCGqhFSMOz5YEDBz54C+w/e4yx1NRUi4e4Su6DMi74mJiYsLCwqqqq5s4FamkuMbQHAZcScJ9arLyrZYwVFRW1bt06NjZ25cqVixYtCg0N7dmzp/njYSYsoBYTIF69e+nSJR8fnxUrVjgwC6jFAWjoAgKuI+A+tVh5V8tN7+zZs0OHDvX392/ZsuXYsWNLS0ttThtqsYnIixqMGTMmNjbW5q/7WJwR1GIRCypBwFME3KcWV8wQanEFVTePWV5enpWVNXny5BYtWuzbt8+xs0MtjnFDLxBwEQGoxUVgMay9BD755BMiatu27YYNG+ztY9YOajFDggoQ8CQBqMWT9HFuZxGAWpxFEuOAgFMIQC1OwYhBPEwAavFwAnB6EHiQANTyIA/seScBqMU784aoZUsAapFtahU1MahFUenGZKVPAGqRfo4QoW0CUIttRmgBAm4kALW4ETZO5TICUIvL0GJgEHCEANTiCDX0kRoBqEVqGUE8CicAtSj8BSCT6UMtMkkkpiEXAlCLXDKp7HlALcrOP2YvOQJQi+RSgoAcIAC1OAANXUDAdQSgFtexxcjuIwC1uI+1p89kMBhqsLmSgMFgEJ9kqEU8Q4zgeQJQi+dz4PoIjEbjtWvX8rG5nsC1a9eMRqOYlEItYuihr1QIQC1SyYQr4+C8UlZWVl1d7cp37Yoeu7q6uqysLD8//9q1a2KSCbWIoYe+UiEAtUglEy6Lw2Aw5Ofnl5WVuewMGPi/BDi7iPlkDGr5L02UvJcA1OK9ubMz8pqamvz8/Orqajvbo5kYAtXV1fn5+TU1NQ4PArU4jA4dJUQAapFQMlwTCqcWMRc718Qlz1HF04Za5PnKUNqsoBbZZ1z8xU72iJw4QfG0oRYnpgNDeYwA1OIx9O46sfiLnbsilcN5xNOGWuTwOsAcoBbZvwbEX+yMRuPN23VFN+/cvF0n8snaZtHOyMgg8rIrrXjaXjZhk4zq9Xoi0uv1JvXYVRoBqEX2GRdzsauort+cVzhgyZfRs/Zy/w1Y8uXmvMKK6no3cLNfLWvWrPnwww/dEJLNU4ihzQ3uPrVUVVXNmzdv2LBhoaGhRGROMD8/f9iwYQEBAaGhoePGjbt+/brN+UMtNhEppAHUIvtEO3yxO3There52TGz9sbc90r0vXLMrL3d5mYfumD7OiOSrf1q6dGjx8CBA0WezindHabNn919arl8+TIRtW/f/oknnjBXS3Fx8UMPPRQbG7tixYqFCxeGhobGxcXV1dXxgVosQC0WsSiwEmqRfdIdu9gdunC9w+y9MbP/s1jhVy1cIWb23g6z97raLlCLa1+ctbW1JSUljLGTJ0+aq2Xq1Kk6ne7nn3/mguCuFOvXr7ceE9RinY9yjkItss+1A2qpqK6/u15pwiu8XbrNzXbuJ2N5eXmPPfaYRqPp2LHjunXrhGr54IMPBg0aFBYW5ufn161bt/fff59PXHR0NAk2bvly8+bNN99885FHHgkICAgKCkpOTv7Xv/7Fd3FdwQHaJsG4b9XCn9iiWtq0aZOWlsa3YYx16dLlySefFNaYl6EWcybKrIFaZJ93By52m/MKhR+CmSxZ+N2YWXs/OFLoLIDff/+9Tqdr3779O++8k5mZGR4e3qtXL/42fkJCwiuvvLJs2bJVq1YNHTqUiFavXs2d+tNPP23btm3Xrl233ttycnK4N+KxsbGzZ89ev379ggULoqKiQkJCrl696qxomxrHAdomQ0lCLVeuXCGiJUuWCIMbN25cq1athDXmZajFnIkya6AW2ee9uRc7o9E4YMmXdqplwJIvnfXM2MiRI7VaLf8BTH5+vo+PD68Wk18TGDZsWMeOHfncmd9rqa2tbWxs5BtcvnxZo9EsWLCAr3FRobm0zcOQhFq4dcyWLVuE8aWnpxNRbW2tsJIxVltbq7+/FRcXE1F5eXkjNmUTyMnJUalUcXFxysYg59nfuXPn3Llz1dXVRvu2sqpafl1iT+FmVa19A1tr1dDQoNPpXnjhBWGj4cOHE5Gwxmg0lpeXX79+feHChdwVjDvKqcWkJbfb0NBw48aN69ev9+rVa+TIkRbbOLGyurr63Llzd+7cMX9JmVyQm9qVhFpyc3OJaMeOHcIo586dy0EXVjLGuA8uBZ9JUkFBQQk2ZRPIzs5OSEgYPXq0sjHIefZFRUVnzpyprKyst28r/LfeHqPwbQr/rbdvYGutioqKiOjPf/6zsNGMGTOIiKs5dOjQ4MGD/f39hVewH3/8kTvavXv3AQMGCPvW1ta+++67nTp14pY+XK8nnnhC2MYV5crKyjNnzhQVFZm/pEwuyE3tSkItWLWYvzVATbMIYNXSLFze2NgrVi3Xrl0jov/3//6fcAHx+uuvc6uWixcvajSauLi4tWvX7t27NycnhztUWFjItTdftSxYsICIfvOb32RlZe3bty8nJ8e8jfBczirLZNWCey1NmR/1dhLAvRY7QXlvs+Z++u+Rey0Gg4H7QEzImftAjDG2bNkyIuJvwzDG/vznPxPR5cuXufaPPPKIyfda4uLiBg0aJBwtKirKpI3wqLPKzaVtfl5JrFoYY2FhYeZPiA0ePNg8YmENbuMLaSi5DLXIPvsOXOw88oSYldv4K1euJKKffvqJS1ZFRUVkZKRQLX379o2LixOmsnfv3k888QRf8/e//52IoBYeyAMFiw8fT5kyRafTFRUVcU0PHjxIRGvXrn2gp9kO1GKGRKEVUIvsE++AWuz5XkuH2Xe/k+/E77V89913Wq22ffv2ixcvfvvtt4UPH//www9+fn49e/ZcvXr14sWLY2Nj4+LihGr57W9/26JFi8zMzG3btn3xxReMsXnz5hHRK6+8smHDhunTp7dq1apjx45Qi+mrfdWqVZmZmVOnTiWiX//615n3toqKCsZYUVFR69atY2NjV65cuWjRotDQ0J49e5o/HmYyItRiAkSxu1CL7FPvgFoYY/Z8G/+ws3/r5fDhw7/85S/9/PzMvzK5e/fuXr16abXamJiYJUuWfPDBB0K1lJaWPv3000FBQfzSpLa29s0334yMjNTpdElJSV9//fXAe5ur0+0YbWFUbv1AzOTrptzTDvznjGfPnh06dKi/v3/Lli3Hjh1bWloqDNRiGWqxiEWBlVCL7JPu8MXO+m+IOd0r8kiEw7T56btVLfxZnVWAWpxF0tvHgVq8PYM24xdzsauorv/giOkvH39wpFBf445fPrY5NQk2EEObmw7UIsG0IqRmE4Bamo3M2zqIv9gZjcZb9/5eyy33/r0WbyN9N17xtKEWb8w7YjYlALWYEpHdvviLneyQuHBC4mlDLS5MD4Z2GwGoxW2oPXUi8Rc7T0XujecVTxtq8ca8I2ZTAlCLKRHZ7Yu/2MkOiQsnJJ421OLC9GBotxGAWtyG2lMnEn+x81Tk3nhe8bShFm/MO2I2JQC1mBKR3b74i53skLhwQuJpQy0uTA+GdhsBqMVtqD11IvEXO09F7o3nFU8bavHGvCNmUwJQiykR2e2Lv9jJDokLJySeNtTiwvRgaLcRgFrchtpTJxJ/sfNU5N54XvG0oRZvzDtiNiUAtZgSkd2++Iud7JC4cELiaUMtLkwPhnYbAajFbag9dSIHL3Y/HbMdsD1tbI8i9RYDBw7s0aOHnVE6SFswOtQigIGi1xKAWrw2dfYG7sjF7stFLCOY5S21do68pXfbfLnIWhtvO3b16tWMjIzTp08LA4dahDRslPHzlDYAKeYw1CL7VDdbLT8du+sM7r+m7MJ5hWsjo7WLxb+JBbU04/8jUEszYMm6KdQi6/TenVyz1cLY3fWKFbtYP+rNQKEWsdmDWsQSlEt/qEUumWxyHo6oxYpdXOaVysrKGTNmREdH+/n5hYWFDRky5NSpU4wxbtHw3XffDRgwQKfTxcbG7ty58+4fKzt0qE+fPlqttkuXLgcOHBDO/9tvv01OTg4KCgoICBg8ePDXX38tPHrp0qXRo0eHhobqdLq+ffvu3buXO/rVV19xfwqL//fDDz/kAzh37twTTzyh0+l+8YtfLFmyRDigsOwgbcEQuNcigIGi1xKAWrw2dfYG7vjFztwi5jX2RmG73UsvveTn5/eHP/xh06ZNS5YsSU1N/dvf/sZd2X/xi1+0a9cuPT191apV3bt39/Hx2b59e0RExPz585cvXx4VFRUSElJZWcmd4+zZswEBAZGRkZmZmYsXL+7QoYNGo/nnP//JHS0tLQ0PDw8KCpozZ87SpUvj4uJUKtU//vEPxlhpaemCBQuIaPLkyVvvbZcuXRIGMGPGjPfff3/w4MFE9H//938Wp+Q47fvDQS33SeB/vZkA1OLN2bMrdlEXO6FLFkdb+5TMrlisNQoJCZk2bZp5i4EDBxJRVlYWd+iHH34gIpVKxdti//79RMStMBhjI0eO9PPz46zAGLt27VpQUNCAAQO47q+//joR5eXlcbtVVVUdOnSIiYlpbGxkjDX1gRgRbdmyhetSV1cXERExatQobtfkX1G0740FtZggxa5XEoBavDJtzQla7MVOaBfr9/abE5V52+jo6Mcee+zq1asmhwYOHBgYGGg0Gvn6li1bCp8GrqioIKK5c+cyxgwGg7+//5gxY/jGjLHXXntNpVLp9XrGWJcuXfr06SM8+s477xDRmTNnrKjFJIARI0bEx8cLB+HLYmkzBrXwMFHwYgJQixcnz77QxV/smHC9sjjavtM2u9WOHTu0Wq1KpUpISMjIyOCXHQMHDuzatatwuOjo6OTkZGENEf3ud79jjJWUlPCa4RssX76ciM6ePcsY02g048eP5w8xxv73f/+XiLg7Lk2tWkwCePnll2NiYoSD8GXxtKEWHiYKXkwAavHi5NkXutiLnbtWLdyHV2vWrHn22Wf9/f21Wi13P8P82d/o6Oinn35aOHsi4j5Mc5FahIskxtjLL78cHW1ZsWJpS2rVUltb+8c//jEyMlKr1fbp0ycnJ0cI3WIZT4hZxKLASqhF9kkXdbETekW4dmnq+y5Oovnvf/87KioqKSmJf0BLOLAVtVj8QGzKlClWPhBbvHgx/4HYN998I7xtw53U3G1KUcsLL7ygVqtnzpy5fv36fv36qdVq/iaVMB/CMtQipKHkMtQi++w7rhahVziXmNc4CZ/BYKioqBAOlpCQ8NhjjzVXLdxtfI1Gc/nyZW600tLS4OBgk9v4x47952dsbt++3bFjR/42/vnz54lo2bJlwkgUqpbjx48T0bvvvsuxqKmpiY2N7devnxCNeRlqMWeizBqoRfZ5d1AtTVmkqXpxHMvLywMCAl5++eWlS5du2LBhzJgxRPTee+85oBbu4eOoqKiFCxcuWbKkY8eO5g8fh4SEzJ07d9myZY8++miLFi24h48ZY/X19S1btnz44Yc3bdq0bdu2wsJCiwEoYtWSnp7u4+PDPfzAJXfRokVEVFRUZCXXUIsVOIo6BLXIPt2OqMW6P6wfdQhoXV1denp6XFwc9z3HuLi4999/nxvJfNFg5QMxrsu33347bNiwwMBAf3//QYMG8WsU7ij3lcmWLVtydxD4r0xyRz/77LPu3bur1Wr+kzHzABShliFDhnTr1o2Dwv178OBBItq9e7ew0qQMtZgAkf2u0Wi8bWnbvXs3EfXo0cPSwdvCJz5lj0iuE2y2WhT8G2LiXwPNpm12Sqk8IdajR4/BgwcLwzt37hwRrVu3TljJGKutrdXf34qLi4movLy8EZsCCBgMhqSkJFXzt/79+xsMBgUQkvMU79y5c+7cuerqaqP925cLWUawMXeptR65d39nzPjlQmttlHesurr63Llzd+7cMX9JmVyQm9qVilo6duyYkpIijPLSpUvmd6IYYxkZGfxv43CFgoKCEmwKIHDt2rUJEyYkNH+bMGHCtWvXFEBIzlMsKio6c+ZMZWVlfXO2hku5Npvb08bmIDJrUFlZeebMmaKiIvOXlPAqbaUsFbVg1WL+7gA15gQMBkNl8zcsWcxJel2NI6sW5a02nDVj+axacK/Fiv9xCARAQPyn/2BoPwHxtKWyapk5c6bJE2ILFy7EE2L2vxTQEgTkTUD8xU7efJw7O/G0paKWf/7zn8LvtdTW1nbq1Klv377WeeEJMet8cBQEZENA/MVONijcMBHxtKWiFsZYWlqaWq1OT09fv359YmKiWq0+fPiwdYhQi3U+OAoCsiHAXeyqq6tlMyMpT6S6ujo/P7+mpsbhICWklpqampkzZ0ZERGg0moSEhH379tmcFdRiExEagIA8CDQ0NOTn5/N/KUsek5LsLCorK/Pz8xsaGhyOUEJqcWAOUIsD0NAFBLyRgNFovK+PPIUAAAFxSURBVHDhwpUrV7wxeK+L+cqVKxcuXBDzXWOoxeuSjoBBQKEEysvL8/Pzb9y4UV1dXYPNNQSqq6tv3LiRn59fXl4u5nUGtYihh74gAALuI2A0Gq9du3b+/Pl8bK4kcP78+WvXrolZsjBJ/b0WB16h+EDMAWjoAgJeTcBgMLjm/TpG/Q8Bg8Eg/hWCVYt4hhgBBEAABEDgAQJQywM4sAMCIAACICCeANQiniFGAAEQAAEQeIAA1PIADuyAAAiAAAiIJwC1iGeIEUAABEAABB4gALU8gAM7IAACIAAC4glALeIZYgQQAAEQAIEHCHi3WoxGo16vF/nVngd4YAcEQAAEQEA0Ae9Wi+jpYwAQAAEQAAHnE4BanM8UI4IACICAwglALQp/AWD6IAACIOB8AlCL85liRBAAARBQOAGoReEvAEwfBEAABJxPAGpxPlOMCAIgAAIKJwC1KPwFgOmDAAiAgPMJQC3OZ4oRQQAEQEDhBP4/+xuDFD7QF/IAAAAASUVORK5CYII=;" parent="1" vertex="1">
          <mxGeometry x="418" y="600" width="347.01" height="210" as="geometry" />
        </mxCell>
        <mxCell id="cyDXjY6HerALDzwMRZeK-38" value="" style="shape=image;verticalLabelPosition=bottom;labelBackgroundColor=default;verticalAlign=top;aspect=fixed;imageAspect=0;image=data:image/png,iVBORw0KGgoAAAANSUhEUgAAAhsAAAFaCAIAAAA4qQi+AAAAAXNSR0IArs4c6QAAIABJREFUeAHt3Qt8FNWhx/FDErK7IQ+wjckWSsJDqqLkhkqoCRdEW0iwWiwNWj+N2OBH7aW52tpcsPnQWFAerYIWEIWo94bKo5RSrS1GVIQEuRFiqkjAWMAGeVwSSDaBvJO5H506mZ3dvCa7s5PJbz5+9Jyzc2bO+Z44/8y+IiQ2BBBAAAEEfCEgfHEQjoEAAggggIBEovBDgAACCCDgGwESxTeOHAUBBBBAgEThZwABBBBAwDcCJIpvHDkKAggggACJws8AAggggIBvBEgU3zhyFAQQQAABEoWfAQQQQAAB3wiQKL5x5CgIIIAAAiQKPwMIIIAAAr4RMDRRDh06NHPmzIiIiPDw8O985zulpaWaSezfvz8lJcXhcMTExGRlZdXV1Wl2oIoAAgggYFoB4xKlpKTEbrdfddVVTz755G9+85v4+PjIyMhjx44pNKWlpXa7PTExcf369Tk5OTabLTU1VXmUAgIIIICAyQWMS5RZs2YNGzasqqpKFjlz5kx4ePj3v/99BSgtLc3pdLpcLrll48aNQoiCggJlBwoIIIAAAmYWMC5RIiIi0tPT1Ra33npraGio/NSWy+UKCQnJzs5WdmhqagoPD58/f77SQgEBBBBAwMwCxiVKaGjoPffco7ZIT08XQhw4cECSpKKiIiHEtm3b1DtMmTJl4sSJ6hbKCCCAAAKmFTAuUa6//vpx48a1trbKFk1NTSNHjhRC/PGPf5Qkafv27UKIffv2qaXS09NjY2PVLZIkNTY2ur7campqzp8/397ertmHKgIIIICA8QLGJcr69euFEPPmzTty5Mjhw4fvvPPOwYMHCyE2bdokSVJ+fr4Qori4WE2QkZERFRWlbpEkKTc3V7hv5eXlZ9kQQAABBPwvoLkga6rGJYokSb/85S/lFBFC3HDDDTk5OUKInTt36r5HOXXqlBCiurq6jQ0BBBBAwP8CmgjRVA1NFEmSLl68WFhY+OGHH0qS9Oijjwohjhw5ovt1FJfLJYRQ3h6mmRtVBBBAAAEjBYxOFPXcJk2aNGLEiLa2NkmSampqvL7XKzMzU91FUyZRNCBUEUAAgQAKBCxRtm7dKoR48sknlcmnpqY6nc7a2lq5JS8vTwixa9cuZQfPAoniaUILAgggECgB4xJl7969t9xyy8qVK/Py8u67777g4ODU1NSWlhZl5iUlJTabTfnMvN1unzFjhvKo1wKJ4pWFRgQQQCAgAsYlyj/+8Y8ZM2Z89atftdlsV1999fLly5uamjRzLiwsTE5Ottvt0dHRCxYsUO5XNLspVRJFoaCAAAIIBFzAuETxx1RJFH+ockwEEEBAnwCJos+NXggggAACWgESRStCHQEEEEBAnwCJos+NXggggAACWgESRStCHQEEEEBAnwCJos+NXggggAACWgESRStCHQEEEEBAnwCJos+NXggggAACWgESRStCHQEEEEBAnwCJos+NXggggAACWgESRStCHQEEEEBAnwCJos+NXggggAACWgESRStCHQEEEEBAnwCJos+NXggggAACWgESRStCHQEEEEBAnwCJos+NXggggAACWgESRStCHQEEEEBAnwCJos+NXggggAACWgESRStCHQEEEEBAnwCJos+NXggggAACWgESRStCHQEEEEBAnwCJos+NXggggAACWgESRStCHQEEEEBAnwCJos+NXggggAACWgESRStCHQEEEEBAnwCJos+NXggggAACWgESRStCHQEEEEBAnwCJos+NXggggAACWgESRStCHQEEEEBAnwCJos+NXggggAACWgESRStCHQEEEEBAnwCJos+NXggggAACWgESRStCHQEEEEBAnwCJos+NXggggAACWgESRStCHQEEEEBAnwCJos+NXggggAACWgESRStCHQEEEEBAnwCJos+NXggggAACWgESRStCHQEEEEBAnwCJos+NXggggAACWgESRStCHQEEEEBAnwCJos+NXggggAACWgESRStCHQEEEEBAnwCJos+NXggggAACWgESRStCHQEEEEBAnwCJos+NXggggAACWgESRStCHQEEBqDAunXrhBBJSUkDbe6NjY3/9V//5XQ67XZ7UlLSG2+80RcBEqUvevQNqMCn73Z/+p7s0/1RBt4ePXHryT79Ry45OTk0NFQI8cknn/SfUftgpHfddVdISMgvfvGL559//sYbbwwJCSksLNR9XBJFNx0dAyrw9jIpN1IqXNXVIApXfb7P28u62ofHPAUGnu2JEyeEEEuWLBk8ePBjjz3mSWLVluLiYiHEb3/7W3mCDQ0NY8aMufHGG3XP19BEKS8vv/POO4cPH+5wOL7xjW/8+te/vnz5sjL0/fv3p6SkOByOmJiYrKysuro65aHOCi6XSwjhcrk624F2awp8+u7nUSH/01moyHEi72Ot36b9u6YD0nbp0qXBwcHnzp2bNWvWVVddpRZOS0uLi4tTt7S3tycmJk6ZMkXd2E/L2dnZwcHB6kvosmXLhBAVFRX6ZmRcolRUVAwdOjQuLm758uXPP//8vffeK4S4/fbb5XGXlpba7fbExMT169fn5OTYbLbU1NRup0SidEtk2R3UgeEZKl0/alkUH02sa72uH/XREAw+zNVXXz19+nRJkv77v/9bCPHee+8pA/jVr34lhLh48aLSsnnzZiFEUVGR0mKSQnNzc2WXW1tbm2ao3/72t6+55hp145tvvimEePXVV9WNPS8blyhPPPGEEOKjjz5SBnfPPfcoS5WWluZ0OpWo3LhxoxCioKBA2dlrgUTxyjJQGju7tHXWPlBcfDHPzgw7a/fFOQN1jEOHDgkhnnvuOUmSampqQkNDH3roIWUwr776qhDirbfekluam5vHjBlz2223KTuYp7Bnzx7R5Xby5EnNaMePH3/zzTerG48cOaJoqNt7WDYuURYuXCiEqKysVEa2cOHCoKCgS5cuuVyukJCQ7Oxs5aGmpqbw8PD58+crLV4LJIpXlgHU6HmB82wZQBw+naqnpGeLT08YqIP97Gc/CwkJUS5Nt99+e0xMTGtrqzyes2fPql9pWLt2bVBQ0OHDh40frRDi1KlTXZz34sWLu7vcGhoaNN1Hjx6dlpambjx+/LgQYvXq1erGnpeNS5Rdu3bJT3OVlpZWVFRs3bo1MjLy4YcfliSpqKhICLFt2zb1uKdMmTJx4kR1i2eZRPE0GXAt6svcirjuX18ZcEB9mPAAsG1tbXU6nTNmzFCYXn75Zc0TJMOHD7/77rslSbp06VJMTMw999yj7OzXQlxcnPptV90mio7B9ON7FEmSli5d6nA4lNuynJwcmWD79u1CiH379qlF0tPTY2Nj1S1yubGx0fXldurUKSFEdXV1G9tAFtj3VEeQfPFSfNu+pwayhy/nbnXb119/XQixceNGBc3lcjkcjoyMDKXle9/73jXXXNPW1vbrX/86NDT0xIkTykN+LcTFxe3du1c5hRDin//8p1L1LDQ0NJzucmtubtb0uuWWW+SpKe1vvPGGEOLPf/6z0qIpeF6T1S3G3aNIkrRp06aZM2du2LBhx44dmZmZgwYNWrNmjSRJ+fn5Qoji4mL1yDIyMqKiotQtcjk3N1fJJLlQXl5+lm1gC7QtG6mEStuykQMbw8ezt7bt3LlzBw8efPToUbXarbfeGh4efuLECblx0aJFQUFBBw8ejIiIuO+++5Q9T58+PX/+/GHDhkVGRiYkJHz00UfyU2TLli0bMWJEZGTkypUrX3311auuuioqKio7O1vu+M477yQlJUVGRl5//fWvvPJKZ4133333oEGD7HZ7WFjY2rVr5SOvWLHi61//+rBhwx599FFlGEphx44dmmujpvree+8pO8uFn/zkJ8HBwepL6KJFi4QQhw4d0uypVD2vyeoW4xJly5YtDodD/TzgvffeGxYWVlVVxT2K5rcAqr0TsPrv0b3T8O3elra9dOlSREREWlqaxmzLli1CiM2bN8vt8jP2KSkpERER586dU3b+61//+s1vfrO6urq5ufngwYMul6utrU0IMXfu3Lq6ujfffNNut99xxx2VlZVHjhyx2+2ffPJJQ0PDqFGjnn766cbGxs2bNw8bNqyqqsprY1tbm+c9ypw5c1wu1wcffGCz2crLy5WRyIWqqqqCLrfLly9rurz77rtCiN/85jdye319/dixYydPnqzZTV1V54dn2bhE+fd///fk5GT1CP70pz8JIXbv3s3rKGoWyr0TGADP9fcOxId7W91269atQohZs2Ytd98WL14shFDe0HXhwgX5l33Nhx/ffPPNcePGFRcXt7e3K+pCiJKSErl65ZVX7tixQy4nJSXt3Llz37596k+3fOtb39q8ebPXRkmSPF9HOXTokHy0SZMm7dy5UzlpXwrp6enyG6Oef/755OTkkJCQvXv36j6gcYkybty4yZMnqwe6bds2IcSuXbtqamq8vtcrMzNTvb9nmVfmPU0GVov6kid/KsWzZWCJ+G62npKeLb47W0COdNttt2meF1JXBw8eXFVVJQ8sPj4+Ojra82PXq1atSkhIiImJeeSRR5qbmyVJUr9+ro6EadOmbdq0aevWreqPRt55551PPvmk10aviaI8xyMfzSdoDQ0Nv/jFL2JjY20226RJk15//fW+HNa4RPnud78bGhr68ccfK8OdPXt2UFDQ6dOnJUlKTU11Op21tbXyo3l5eXLYKDt7LZAoXlkGSmNnF7jO2geKiy/m2ZlhZ+2+OKdpj3H8+PHg4OBnnnmmsxFWVFRcd911L730UreJorkdufHGGz3vUeRGSZLi4+M7e6+XDxOls0npazcuUfbu3RscHHzllVcuWbJk3bp1aWlpQoj77rtPHndJSYnNZlM+M2+329Xv5+tsbiRKZzLWb+/60tb1o9bX6dsMu9br+tG+ndmcvefOnTtmzJimpibN8A4ePPjee++1tLRUV1cnJibm5+d3myhNTU1xcXFr1qxpaWn5wx/+MHTo0IsXL3ptlCQpKSlp06ZNyknVdz8kyucsxcXFaWlpsbGxgwcPHjdu3BNPPNHS0qJ4FRYWJicn2+326OjoBQsWKPcryg6eBRLF02RAtAzI754yaGWx/RK6urp68+bN999//6BBg7w+F/Tmm29ed911Q4YMufLKK3/605/KH4pUX/c9n/WSJOmDDz5ITk6OjIxMTExUPjLhtXHHjh3Dhw+Piop6+eWXNVlFony5Sj79L4niU85+dbCB9/24xi0Ptl9Y//GPfxRCjBgxYsOGDcbh9/MzGfeslz+gSBR/qPabY/bkG4V7sk+/mbCBA+2JW0/2MXDInMoMAiSKGVaBMSCAAAJWECBRrLCKzAEBBBAwgwCJYoZVYAwIIICAFQRIFCusInNAAAEEzCBAophhFRgDAgggYAUBEsUKq8gcEEAAATMIkChmWAXGgAACCFhBgESxwioyBwQQQMAMAiSKGVaBMSCAAAJWECBRrLCKzAEBBBAwgwCJYoZVYAwIIICAFQRIFCusInNAAAEEzCBAophhFRgDAgggYAUBEsUKq8gcEEAAATMIkChmWAXGgAACCFhBgESxwioyBwQQQMAMAiSKGVaBMSCAAAJWECBRrLCKzAEBBBAwgwCJYoZVYAwIIICAFQRIFCusInNAAAEEzCBAophhFRgDAgggYAUBEsUKq8gcEEAAATMIkChmWAXGgAACCFhBgESxwioyBwQQQMAMAiSKGVaBMSCAAAJWECBRrLCKzAEBBBAwgwCJYoZVYAwIIICAFQRIFCusInNAAAEEzCBAophhFRgDAgggYAUBEsUKq8gcEEAAATMIkChmWAXGgAACCFhBgESxwioyBwQQQMAMAiSKGVaBMSCAAAJWECBRrLCKzAEBBBAwgwCJYoZVYAwIIICAFQRIFCusInNAAAEEzCBAophhFRgDAgggYAUBEsUKq8gcEEAAATMIkChmWAXGgAACCFhBgESxwioyBwQQQMAMAiSKGVaBMSCAAAJWECBRrLCKzAEBBBAwgwCJYoZVYAwIIICAFQRIFCusInNAAAEEzCBAophhFRgDAgggYAUBEsUKq8gcEEAAATMIGJco8+bNE962zz77TIbYv39/SkqKw+GIiYnJysqqq6vrFsjlcgkhXC5Xt3uyAwIIIICAvwWMS5R33313k2rLz88PCwu79tpr5RmWlpba7fbExMT169fn5OTYbLbU1NRuJ0+idEvEDggggIBhAsYlimZKhYWFQognnnhCbk9LS3M6ncrdxsaNG4UQBQUFml6aKomiAaGKAAIIBFAgYInyk5/8ZNCgQSdPnpQkyeVyhYSEZGdnKxBNTU3h4eHz589XWrwWSBSvLDQigAACAREITKI0Nzd/5StfSUlJkedcVFQkhNi2bZuaYMqUKRMnTlS3eJZJFE8TWhBAAIFACQQmUf7yl78IIZ599ll52tu3bxdC7Nu3T62Qnp4eGxurbpHLjY2Nri+3U6dOCSGqq6vb2BBAAAEE/C/geU1WtwQmUX74wx8OHjy4qqpKHkp+fr4Qori4WD2yjIyMqKgodYtczs3N1bxlrLy8/CwbAggggID/BTyvyeqWACRKXV1dWFjYd7/7XWUc3KP4/xcLzoAAAgj4QEC5bnstBCBRNm3aJITYsmWLMiBeR1EoKCCAAAL9VyAAiZKamhoeHn758mVFraamxut7vTIzM5V9vBZ4Zd4rC40IIIBAQASMTpTz58+HhIRkZGRoZpuamup0Omtra+X2vLw8IcSuXbs0u2mqJIoGhCoCCCAQQAGjE2XNmjVCiNdff10z55KSEpvNpnxm3m63z5gxQ7OPZ5VE8TShBQEEEAiUgNGJ8q1vfevKK69sbW31nHBhYWFycrLdbo+Ojl6wYIFyv+K5p9JCoigUFBBAAIGACxidKL6dMIniW0+OhgACCPRFgETpix59EUAAAQQ6BEiUDgtKCCCAAAJ9ESBR+qJHXwQQQACBDgESpcOCEgIIIIBAXwRIlL7o0RcBBBBAoEOAROmwoIQAAggg0BcBEqUvevRFAAEEEOgQIFE6LCghgAACCPRFgETpix59EUAAAQQ6BEiUDgtKCCCAAAJ9ESBR+qJHXwQQQACBDgESpcOCEgIIIIBAXwRIlL7o0RcBBBBAoEOAROmwoIQAAggg0BcBEqUvevRFAAEEEOgQIFE6LCghgAACCPRFgETpix59EUAAAQQ6BEiUDgtKCCCAAAJ9ESBR+qJHXwQQQACBDoHuE2Xq1KkHDhzo6GGmEn9n3kyrwVgQQGCgC3SfKImJiUFBQbNnzy4rKzObFolithVhPAggMJAFuk8USZI2b948duzYkJCQH//4xxUVFebxIlHMsxaMBAEEEOhRokiS1NLSsnbt2tjYWLvd/vOf/7yqqsoMdiSKGVaBMSCAAAKyQE8TRd778uXLS5YsifpiW7p06eXLlwPrSKIE1p+zI4AAAmqB3iWK3LOiomLKlClBQUExMTFr165taWlRH9HIMolipDbnQgABBLoW6FGi1NTU7Nmz56mnnvrRj340fvz4kJCQQV9so0aNCgkJueqqq3bv3t31afz0KIniJ1gOiwACCOgQ6D5R4uPjg77YBg0aNGLEiDvuuGPZsmVvvPHGxYsXJUk6fvz43Llzg4ODX3jhBR2n72MXEqWPgHRHAAEEfCjQfaKkpaXl5ub+5S9/OXfuXGcnvv/++0eOHNnZo/5rJ1H8Z8uREUAAgd4KdJ8oPTni5s2bBw0a1JM9fbsPieJbT46GAAII9EXAN4lSU1OzY8eOvoxDX18SRZ8bvRBAAAF/CPgmUfwxsp4ck0TpiRL7IIAAAsYIkCjGOHMWBBBAwPoCJIr115gZIoAAAsYIkCjGOHMWBBBAwPoCJIr115gZIoAAAsYIkCjGOHMWBBBAwPoCJIr115gZIoAAAsYIkCjGOHMWBBBAwPoCJIr115gZIoAAAsYIkCjGOHMWBBBAwPoCJIr115gZIoAAAsYIkCjGOHMWBBBAwPoCJIr115gZIoAAAsYIkCjGOHMWBBBAwPoCJIr115gZIoAAAsYIkCjGOHMWBBBAwPoCJIr115gZIoAAAsYIkCjGOHMWBBBAwPoCRidKSUnJbbfdNmzYMIfDMX78+GeeeUYx3r9/f0pKisPhiImJycrKqqurUx7qrMDfcOxMhnYEEEDAeAFDE6WgoCA0NHTy5MmrVq3asGHDwoULs7Oz5TmXlpba7fbExMT169fn5OTYbLbU1NRuOUiUbonYAQEEEDBMwLhEcblcMTExd9xxR1tbm+f00tLSnE6ny+WSH9q4caMQoqCgwHNPdQuJotagjAACCARWwLhEWb9+vRCirKxMkqRLly6pc8XlcoWEhCj3K5IkNTU1hYeHz58/v2sdEqVrHx5FAAEEjBQwLlHmzJkTGRm5e/fucePGCSGGDBny4IMPNjQ0SJJUVFQkhNi2bZt65lOmTJk4caK6xbNMonia0IIAAggESsC4RJkwYULYF1tWVtaOHTuysrKEEHfddZckSdu3bxdC7Nu3T62Qnp4eGxurbpHLjY2Nri+3U6dOCSGqq6vb2BBAAAEE/C/geU1WtxiXKKNHjxZCPPjgg8rpH3jgASFEeXl5fn6+EKK4uFh5SJKkjIyMqKgodYtczs3NFe5beXn5WTYEEEAAAf8LeF6T1S3GJcr48eOFEHv37lVOv3fvXiHE//zP/3CP4v9fLDgDAggg4AMB5QLutWBconznO98RQhw7dkwZx9GjR4UQTz/9NK+jKCYUEEAAgf4rYFyiLFq0SAjx1ltvKVhvvfWWEOLll1+uqanx+l6vzMxMZWevBV6Z98pCIwIIIBAQAeMS5f333xdC3H333co8f/jDH4aEhJw+fVqSpNTUVKfTWVtbKz+al5cnhNi1a5eys9cCieKVhUYEEEAgIALGJYokSZmZmUKIuXPnrlu3Lj09XQjx6KOPytMuKSmx2WzKZ+btdvuMGTO6FSFRuiViBwQQQMAwAUMTpbm5+bHHHouLixs8ePDYsWNXr16tnmdhYWFycrLdbo+Ojl6wYIFyv6LeR1MmUTQgVBFAAIEAChiaKD6fJ4nic1IOiAACCOgWIFF009ERAQQQQMBNgERx46CCAAIIIKBbgETRTUdHBBBAAAE3ARLFjYMKAggggIBuARJFNx0dEUAAAQTcBEgUNw4qCCCAAAK6BUgU3XR0RAABBBBwEyBR3DioIIAAAgjoFiBRdNPREQEEEEDATYBEceOgggACCCCgW4BE0U1HRwQQQAABNwESxY2DCgIIIICAbgESRTcdHRFAAAEE3ARIFDcOKggggAACugVIFN10dEQAAQQQcBMgUdw4qCCAAAII6BYgUXTT0REBBBBAwE2ARHHjoIIAAgggoFuARNFNR0cEEEAAATcBEsWNgwoCCCCAgG4BEkU3HR0RQAABBNwESBQ3DioIIIAAAroFSBTddHREAAEEEHATIFHcOKgggAACCOgWIFF009ERAQQQQMBNgERx46CCAAIIIKBbgETRTUdHBBBAAAE3ARLFjYMKAggggIBuARJFNx0dEUAAAQTcBEgUNw4qCCCAAAK6BUgU3XR0RAABBBBwEyBR3DioIIAAAgjoFiBRdNPREQEEEEDATYBEceOgggACCCCgW4BE0U1HRwQQQAABNwESxY2DCgIIIICAbgESRTcdHRFAAAEE3ARIFDcOKggggAACugVIFN10dEQAAQQQcBMgUdw4qCCAAAII6BYgUXTT0REBBBBAwE2ARHHjoIIAAgggoFuARNFNR0cEEEAAATcBEsWNgwoCCCCAgG4BEkU3HR0RQAABBNwESBQ3Dv9V2tvbL1xqqrhw+cKlpvb2dv+diCMjgAACgRIgUfwuX1Pf/ELhiakr345b+Jr8z9SVb79QeKKmvtnv5+YECCCAgIECxiXKnj17hMd24MABZbL79+9PSUlxOBwxMTFZWVl1dXXKQ50VXC6XEMLlcnW2Q8Db3/n4/DWLd8UvfC3+yziJ+6Icv/C1axbveufj8wEfIQNAAAEEfCVgdKL853/+5ybVVllZKc+ktLTUbrcnJiauX78+JyfHZrOlpqZ2O0mTJ8o7H58ftei1+EX/ujVR7lHkQvyi10Yteo1Q6XaV2QEBtUBra2sDmz8FWltb1eC9KhudKNu3b/c6vrS0NKfTqdxtbNy4UQhRUFDgdWel0cyJUlPf/PndSSdxooTKNYt38fSXsqAUEOhCoL29/cyZM2Vs/hc4c+aMvpd7A5AotbW1LS0t6p8bl8sVEhKSnZ2tNDY1NYWHh8+fP19p8Vowc6K8UHhC/UyX5gZFqcYvfO3FohNeZ0cjAgioBeQ4qaqqqq+v9+fv6AP62PX19VVVVWVlZWfOnFHj97BsdKKEh4cLIYKDg2+66aaDBw/KoywqKhJCbNu2TT3oKVOmTJw4Ud3iWTZtorS3t09d+XYPE2Xqyrf1/TrgCUILAlYVaG1tLSsrq6qqsuoETTUvOVR0PP1lXKLs379/zpw5L7zwwiuvvLJ8+fKvfOUrdrv9/ffflyRp+/btQoh9+/apTdPT02NjY9UtcrmxsdH15Xbq1CkhRHV1dZvJtsraBuUupCeFqroGk82A4SBgLoHLly8fOXLk8uXL7Wz+F1C0PX8IPK/J6hbjEkV9VkmSPvnkE4fDMXPmTEmS8vPzhRDFxcXqfTIyMqKiotQtcjk3N1fzlrHy8vKzJttKjn3akyBR9ik59qnJZsBwEDCXQEVFxeHDh2tra5vZ/C9QW1t7+PDhiooKzx8Cz2uyuiVgiSJJ0l133RUaGtra2so9Cvconr8K0YKAWkD+rbm+vt7/v6Bzhvb6+nr5jlC9BHJZnR+e5UAmSnZ2tvxpEl5H4XUUzx9NWhBQCzQ0NJSVlTU0NKgbKftJQLd2IBNlzpw5dru9ra2tpqbG63u9MjMzu/Yy7SvzkiTxXq+u145HEejhd31fAAAPxElEQVSVgO5rnHKWQH0TkvxEvTKMflHQrW1copw/7/b58L///e+DBw++/fbbZd/U1FSn01lbWytX8/LyhBC7du3qWt/MidKTz6OMWvT5J+f5PErXq8yjCEiSpPsaJ0lSYL8JqeeJsm7dupdeeskMy61b27hEmT59+qxZsx5//PENGzY8/PDDYWFhUVFRZWVlMl9JSYnNZlM+M2+322fMmNGtrJkTRZKknnxmfi9fxNLtMrMDAn1IlIB/E1LPE2X8+PHTpk0zw2r3g0R55plnkpKSrrjiipCQEKfT+aMf/eiTTz5R2xUWFiYnJ9vt9ujo6AULFij3K+p9NGWTJ4ocKl18rxdxollQqgh0JqDvGteT3+r8/U1IJEpna2q6dvMninzH/WKR9ruHXyw64Wrgu4dN9xPFgEwroCNRevLMc7wfnnkuLCy84YYbbDbb6NGjn3vuOXWivPjii9OnT4+Ojg4NDb3mmmueffZZBTwuLk79uQj5ZuXChQuPPPLIddddN2TIkIiIiNTU1L///e9KF/8VdGjLgzHuWS9/TL5fJIo88fb29otf/H2Ui/x9FH/8KHBMqwvouMYF5N0xH374ocPhGDly5PLly5cuXRoTEzNhwgQh/nWlnTRp0r333rt69eo1a9bMmDFDCLF27Vp56Xbu3DlixIirr75a/irdN954Q5KkgwcPjhkzZtGiRc8///ySJUuGDx8eFRV1+vRpf6+2Dm15SCSKv5eG4yOAgA8EenuNC9Q3Ic2ePdtut//zn/+U51xWVhYcHKwkSn19vdpi5syZo0ePVlo8X0dpbGxsa2tTdjh58qTNZluyZInS4qdCb7WVYZAoCgUFBBAwr0Bvr3EXLjUp30nRk8LFS019n3xra6vD4bjrrrvUh5o1a5aSKEp7TU1NZWXlsmXLhBA1NTVyu2eiKPu3trZWVVVVVlZOmDBh9uzZSrufCr3VVoZBoigUFBBAwLwCvb3GVVy43JMgUfapuHC575M/e/asEGLx4sXqQ/3sZz9TEqWoqOiWW24JCwtTv2Si3NB4JkpbW9uqVavGjh0r3+jIvaZPn64+vj/KvdVWxkCiKBQUEEDAvAK9vcYF5B6l60T5xz/+YbPZEhISnnvuub/+9a+7d++Ww+bkyZOyu2eiLF26VAiRmZm5ZcuWgoKC3bt3e+7jjzXrrbYyBhJFoaCAAALmFejtNS4gr6N0/azX6tWrhRDKHYkkSb/85S+FEEqiXHfddZrPoyQkJGjuSIYPH67Zxx9r1lttZQwkikJBAQEEzCug4xoXkPd6dfHK/O9+9zshxKeffior19TUOJ1OdaJMnjw5ISFBvQYTJ0686aablJY//OEPQggSRQHxcaEfvXvYxzPncAgMMAEdidKTz6P4/JuQPvjgA7vdPnLkyBUrVjz++OPqdw8fO3YsNDT0+uuvX7t27YoVK8aMGZOQkKBOlP/4j/8YNGjQ0qVLt2zZ8tZbb0mS9Ktf/UoIce+9927YsCErK+uKK64YPXo0ieKvn30SxV+yHBcBkwnoSJRAfRPS3r17v/nNb4aGhnp+wvHVV1+dMGGC3W6Pj49fuXLliy++qE6Uc+fO3XrrrREREcqNSGNj4yOPPOJ0Oh0OR0pKyoEDB6Z9sfl7cfRpS5LEs17+XhqOjwACPhDQfY3r+nu9+CYkr2ujW5tE8epJIwIImEtA9zWOb0LSsZC6tUkUHdp0QQABowV0X+OUgfJNSApFtwXd2iRKt7bsgAACgRfQfY0L/ND74Qh0a5Mo/XC1GTICA09A9zVu4FH5YMa6tUkUH+hzCAQQ8LeA7mucvwdmyePr1iZRLPnzwKQQsJqA7muc1SAMmY9ubRLFkPXhJAgg0DcB3de4vp12gPbWrU2iDNCfGKaNQP8S0H2N61/TNMlodWuTKCZZQYaBAAJdCei+xnV1UB7rREC3NonSiSjNCCBgJgHd1zgzTaLfjEW3NonSb9aYgSIwkAV0X+MGMpruuevWJlF0m9MRAQSME9B5jfv03e6H2JN9uj+K2feYNm3a+PHjezhKndp8U2QPfdkNAQQCK6DnGvf2Mik3Uipc1dXIC1d9vs/by7rap789dvr06dzc3NLSUvXASRS1hvcy32bv3YVWBCwn0OtE+fTdz6NC/qezUJHjRN7HQncqBw8eFEK89NJL6p8CEkWt4b1Monh3oRUBywn0OlEk6fO7ky5CpetH+zMgiaJz9UgUnXB0Q6C/CehJlC5CxW9xUltb+9BDD8XFxYWGhkZHR3/7298uKSmRJEm+Rfjggw+mTp3qcDjGjBmzffv2z/8m2DvvJCUl2e32cePG7d69W70s77//fmpqakRExJAhQ26++eYDBw6oHz1+/PgPfvCDYcOGORyOyZMnv/baa/Kje/bsEe6bfLMiD+DIkSM33XSTw+H42te+tnLlSvUB1WWd2ryOokakjAACphXQfY3zcqfitziRJOnuu+8ODQ39+c9/npeXt3Llyttuu+33v/+9nChf+9rXvv71r2dnZ69Zs+baa68NDg7eunVrbGzsY4899vTTTw8fPjwqKqq2tlZego8++mjIkCFOp3Pp0qUrVqwYNWqUzWb73//9X/nRc+fOxcTERERE5OTkrFq1KiEhISgo6E9/+pMkSefOnVuyZIkQ4v7779/0xXb8+HH1AB566KFnn3325ptvFkL87W9/87riurV5r5dXTxoRQMBcArqvcZ9PQx0hK+K6eiqsz5OOiopasGCB52GmTZsmhNi8ebP80LFjx4QQQUFBSkgUFBSoX/yYPXt2aGioHAaSJJ05cyYiImLq1Kly94cfflgIUVhYKFfr6upGjRoVHx/f1tYmSVJnz3oJIfLz8+UuTU1NsbGxc+bMkauaf+vWJlE0klQRQMCMArqvcf+ajDpUun65vm+zj4uLu+GGG06fPq05zLRp08LDw9vb25X2oUOHqt/OW1NTI4RYvHixJEmtra1hYWFz585VdpYk6YEHHggKCnK5XJIkjRs3LikpSf3o8uXLhRCHDx/uIlE0A7j99tsTExPVB1HKurVJFMWQAgIImFdA9zWuY0rqu5MVcR3tPi1t27bNbrcHBQVNmjQpNzdXucmYNm3a1VdfrT5VXFxcamqqukUI8dOf/lSSpLNnzyrpouzw9NNPCyE++ugjSZJsNltGRobykCRJf/7zn4UQ8qspnd2jaAYwb968+Ph49UGUsm5tEkUxpIAAAuYV0H2N+9eUjLpHkZ+hWrdu3fe+972wsDC73S6/VuH55t24uLhbb71VLS6EkJ8x81OiqG+JJEmaN29eXJz3ZNWtTaKoF5QyAgiYVED3Ne7z+ajjRH2n0tnnVHxk8H//93/Dhw9PSUlR3uulPnAXieL1Wa8HH3ywi2e9VqxYoTzrdejQIfVLMvJJPSONRFEvx+dl3j2sFaGOgEUF9CeKOk7kCPFs8RFaa2trTU2N+mCTJk264YYbepsokiTNnj3bZrOdPHlSPtq5c+ciIyM1r8y/++6/vmPm0qVLo0ePVl6ZP3r0qBBi9erV6pGQKGoN72USxbsLrQhYTkBnonQWHp21982turp6yJAh8+bNW7Vq1YYNG+bOnSuEeOqpp3Qkivzu4eHDhz/xxBMrV64cPXq057uHo6KiFi9evHr16n/7t38bNGiQ/O5hSZKam5uHDh36jW98Iy8vb8uWLSdOnPA6AO5RtKtNomhFqCNgUQE9idJ1bHT9qC7Gpqam7OzshIQE+WOJCQkJzz77rHwkz1uELp71kru8//77M2fODA8PDwsLmz59unJHIj8qf8Jx6NChdrs9KSlJ+YSj/Ogrr7xy7bXXhoSEKE9/eQ6ARJGtOv5NonRYUELA0gK9TpQB/L1eff9B6LX2l6fklfkvJfgvAgiYWEDPNW6gfvdw35dRj/YXZyVR+o7PERBAwO8COq9xPflG4Z7s4/f5mesEOrX5Xi9zLSOjQQCBTgR0X+M6OR7NXQno1uYepStWHkMAAZMI6L7GmWT8/WsYurVJlP610IwWgQEqoPsaN0C9+jZt3dokSt/g6Y0AAoYI6L7GGTI6q51EtzaJYrUfBeaDgCUF5GtcfX29JWdntknV19eXlZU1NDT0dmAkSm/F2B8BBAIg0NLSUlZWpvxBqgCMYCCdsra2tqysrKWlpbeTJlF6K8b+CCAQAIH29vaPP/74s88+C8C5B94pP/vss48//lj911x6aECi9BCK3RBAIMAC1dXVZWVllZWV9fX1DWz+Eaivr6+srCwrK6uurtax3iSKDjS6IIBAAATa29vPnDlz9OjRMjZ/Chw9evTMmTM6blAkPuEYgP8tOCUCCPRBoLW11T+/nXPUfwm0trbqXp/A3KM8/vjjQgjNHxTbv39/SkqKw+GIiYnJysqqq6vrdlZ8U2S3ROyAAAIIGCYQgEQ5depUWFjYkCFD1IlSWlpqt9sTExPXr1+fk5Njs9k0f4HZqwiJ4pWFRgQQQCAgAgFIlDvvvPPmm2/WfFl/Wlqa0+l0uVyywsaNG4UQBQUFXaOQKF378CgCCCBgpIDRibJ3797g4OAPP/xQnSgulyskJCQ7O1uZeVNTU3h4+Pz585UWrwUSxSsLjQgggEBABAxNlNbW1gkTJjzwwAOaP1FZVFQkhNi2bZuaYMqUKRMnTlS3eJZJFE8TWhBAAIFACRiaKGvXro2Kijp//rwmUbZv3y6E2Ldvn1ohPT09NjZW3SKXGxsbXV9up06dEkJUV1e3sSGAAAII+F/A85qsbjEuUaqqqq644oonn3xSPr36Wa/8/HwhRHFxsXpkGRkZUVFR6ha5nJubK9w35dUXz51pQQABBBAwTMC4RHnwwQfHjh3b1NQkz02dKLrvUWpqas6fP6/vkziGEXMiBBBAYIAIGJQo5eXlQUFBv/vd705+uU2ePHncuHEnT568cOGC7tdRBsgiMU0EEECgXwgYlCh79uxxf6aqo/bQQw/V1NR4fa9XZmZmv0BkkAgggAACxn0LS2Vl5U73bfz48SNHjty5c+eHH34oSVJqaqrT6VS+qjovL08IsWvXLhYJAQQQQKC/CBh0j+LJoX4dRZKkkpISm82mfGbebrfPmDHDsxctCCCAAAKmFTBLokiSVFhYmJycbLfbo6OjFyxYoNyvmNaOgSGAAAIIqAUClijqQVBGAAEEELCAAIligUVkCggggIApBEgUUywDg0AAAQQsIECiWGARmQICCCBgCgESxRTLwCAQQAABCwiQKBZYRKaAAAIImEKARDHFMjAIBBBAwAICJIoFFpEpIIAAAqYQIFFMsQwMAgEEELCAAIligUVkCggggIApBEgUUywDg0AAAQQsIECiWGARmQICCCBgCgESxRTLwCAQQAABCwiQKBZYRKaAAAIImELg/wHgFcX6n0t9EAAAAABJRU5ErkJggg==;" parent="1" vertex="1">
          <mxGeometry x="780" y="600" width="327.14" height="210" as="geometry" />
        </mxCell>
        <mxCell id="cyDXjY6HerALDzwMRZeK-39" value="&lt;span style=&quot;font-size: 24px;&quot;&gt;&lt;b&gt;&amp;nbsp;Case 1&lt;/b&gt;&lt;/span&gt;" style="text;html=1;align=center;verticalAlign=middle;whiteSpace=wrap;rounded=0;" parent="1" vertex="1">
          <mxGeometry x="200" y="560" width="100" height="30" as="geometry" />
        </mxCell>
        <mxCell id="cyDXjY6HerALDzwMRZeK-40" value="&lt;span style=&quot;font-size: 24px;&quot;&gt;&lt;b&gt;&amp;nbsp;Case 2&lt;/b&gt;&lt;/span&gt;" style="text;html=1;align=center;verticalAlign=middle;whiteSpace=wrap;rounded=0;" parent="1" vertex="1">
          <mxGeometry x="590" y="560" width="100" height="30" as="geometry" />
        </mxCell>
        <mxCell id="cyDXjY6HerALDzwMRZeK-41" value="&lt;span style=&quot;font-size: 24px;&quot;&gt;&lt;b&gt;&amp;nbsp;Case 3&lt;/b&gt;&lt;/span&gt;" style="text;html=1;align=center;verticalAlign=middle;whiteSpace=wrap;rounded=0;" parent="1" vertex="1">
          <mxGeometry x="910" y="560" width="100" height="30" as="geometry" />
        </mxCell>
        <mxCell id="2uwr7_rNUOE0vX6nPSMb-1" value="&lt;font style=&quot;font-size: 16px;&quot;&gt;\(y_0\)&lt;/font&gt;" style="rounded=0;whiteSpace=wrap;html=1;fillColor=#d0cee2;strokeColor=#56517e;" parent="1" vertex="1">
          <mxGeometry x="920" y="230" width="40" height="40" as="geometry" />
        </mxCell>
        <mxCell id="2uwr7_rNUOE0vX6nPSMb-2" value="&lt;font style=&quot;font-size: 16px;&quot;&gt;\(y_5\)&lt;/font&gt;" style="rounded=0;whiteSpace=wrap;html=1;fillColor=#d0cee2;strokeColor=#56517e;" parent="1" vertex="1">
          <mxGeometry x="1120" y="230" width="40" height="40" as="geometry" />
        </mxCell>
        <mxCell id="2uwr7_rNUOE0vX6nPSMb-3" value="" style="endArrow=classic;html=1;rounded=0;exitX=0.5;exitY=1;exitDx=0;exitDy=0;entryX=0.5;entryY=0;entryDx=0;entryDy=0;" parent="1" source="KIiu1q--hpB5Ja1Us_eQ-60" target="2uwr7_rNUOE0vX6nPSMb-2" edge="1">
          <mxGeometry width="50" height="50" relative="1" as="geometry">
            <mxPoint x="950" y="130" as="sourcePoint" />
            <mxPoint x="950" y="240" as="targetPoint" />
          </mxGeometry>
        </mxCell>
        <mxCell id="2uwr7_rNUOE0vX6nPSMb-4" value="&lt;p style=&quot;line-height: 60%;&quot;&gt;&lt;/p&gt;&lt;div style=&quot;line-height: 60%;&quot;&gt;&lt;span style=&quot;font-size: 16px; font-weight: 400;&quot;&gt;end-value&amp;nbsp;&lt;/span&gt;&lt;/div&gt;&lt;div style=&quot;line-height: 60%;&quot;&gt;&lt;span style=&quot;font-size: 16px; font-weight: 400;&quot;&gt;does not change&lt;/span&gt;&lt;/div&gt;&lt;p&gt;&lt;/p&gt;" style="text;strokeColor=none;fillColor=none;html=1;fontSize=24;fontStyle=1;verticalAlign=middle;align=right;spacing=0;" parent="1" vertex="1">
          <mxGeometry x="850" y="160" width="80" height="35" as="geometry" />
        </mxCell>
      </root>
    </mxGraphModel>
  </diagram>
</mxfile>
